ISO-10303-21;
HEADER;
/* Generated by software containing ST-Developer
 * from STEP Tools, Inc. (www.steptools.com) 
 */

FILE_DESCRIPTION(
/* description */ (''),
/* implementation_level */ '2;1');

FILE_NAME(
/* name */ '',
/* time_stamp */ '2025-02-22T19:24:11+10:00',
/* author */ (''),
/* organization */ (''),
/* preprocessor_version */ 'ST-DEVELOPER v20',
/* originating_system */ 'Autodesk Translation Framework v13.14.0.145',

/* authorisation */ '');

FILE_SCHEMA (('AUTOMOTIVE_DESIGN { 1 0 10303 214 3 1 1 }'));
ENDSEC;

DATA;
#10=MECHANICAL_DESIGN_GEOMETRIC_PRESENTATION_REPRESENTATION('',(#13),#932);
#11=SHAPE_REPRESENTATION_RELATIONSHIP('SRR','None',#939,#12);
#12=ADVANCED_BREP_SHAPE_REPRESENTATION('',(#14),#931);
#13=STYLED_ITEM('',(#948),#14);
#14=MANIFOLD_SOLID_BREP('3 \X2\044D044204300436\X0\',#550);
#15=FACE_BOUND('',#73,.T.);
#16=FACE_BOUND('',#74,.T.);
#17=FACE_BOUND('',#75,.T.);
#18=FACE_BOUND('',#76,.T.);
#19=FACE_BOUND('',#88,.T.);
#20=FACE_BOUND('',#89,.T.);
#21=FACE_BOUND('',#90,.T.);
#22=FACE_BOUND('',#91,.T.);
#23=FACE_BOUND('',#92,.T.);
#24=FACE_BOUND('',#93,.T.);
#25=PLANE('',#567);
#26=PLANE('',#571);
#27=PLANE('',#577);
#28=PLANE('',#586);
#29=PLANE('',#588);
#30=PLANE('',#589);
#31=PLANE('',#590);
#32=PLANE('',#593);
#33=PLANE('',#594);
#34=PLANE('',#595);
#35=PLANE('',#596);
#36=PLANE('',#599);
#37=PLANE('',#608);
#38=PLANE('',#610);
#39=PLANE('',#616);
#40=FACE_OUTER_BOUND('',#67,.T.);
#41=FACE_OUTER_BOUND('',#68,.T.);
#42=FACE_OUTER_BOUND('',#69,.T.);
#43=FACE_OUTER_BOUND('',#70,.T.);
#44=FACE_OUTER_BOUND('',#71,.T.);
#45=FACE_OUTER_BOUND('',#72,.T.);
#46=FACE_OUTER_BOUND('',#77,.T.);
#47=FACE_OUTER_BOUND('',#78,.T.);
#48=FACE_OUTER_BOUND('',#79,.T.);
#49=FACE_OUTER_BOUND('',#80,.T.);
#50=FACE_OUTER_BOUND('',#81,.T.);
#51=FACE_OUTER_BOUND('',#82,.T.);
#52=FACE_OUTER_BOUND('',#83,.T.);
#53=FACE_OUTER_BOUND('',#84,.T.);
#54=FACE_OUTER_BOUND('',#85,.T.);
#55=FACE_OUTER_BOUND('',#86,.T.);
#56=FACE_OUTER_BOUND('',#87,.T.);
#57=FACE_OUTER_BOUND('',#94,.T.);
#58=FACE_OUTER_BOUND('',#95,.T.);
#59=FACE_OUTER_BOUND('',#96,.T.);
#60=FACE_OUTER_BOUND('',#97,.T.);
#61=FACE_OUTER_BOUND('',#98,.T.);
#62=FACE_OUTER_BOUND('',#99,.T.);
#63=FACE_OUTER_BOUND('',#100,.T.);
#64=FACE_OUTER_BOUND('',#101,.T.);
#65=FACE_OUTER_BOUND('',#102,.T.);
#66=FACE_OUTER_BOUND('',#103,.T.);
#67=EDGE_LOOP('',(#357,#358,#359,#360));
#68=EDGE_LOOP('',(#361,#362,#363,#364,#365));
#69=EDGE_LOOP('',(#366,#367,#368,#369,#370,#371));
#70=EDGE_LOOP('',(#372,#373,#374,#375,#376));
#71=EDGE_LOOP('',(#377,#378,#379,#380,#381,#382,#383,#384));
#72=EDGE_LOOP('',(#385,#386,#387,#388,#389,#390,#391,#392,#393,#394,#395,
#396,#397,#398,#399,#400));
#73=EDGE_LOOP('',(#401));
#74=EDGE_LOOP('',(#402));
#75=EDGE_LOOP('',(#403));
#76=EDGE_LOOP('',(#404));
#77=EDGE_LOOP('',(#405,#406,#407,#408));
#78=EDGE_LOOP('',(#409,#410,#411,#412));
#79=EDGE_LOOP('',(#413,#414,#415,#416));
#80=EDGE_LOOP('',(#417,#418,#419,#420));
#81=EDGE_LOOP('',(#421,#422,#423,#424));
#82=EDGE_LOOP('',(#425,#426,#427,#428));
#83=EDGE_LOOP('',(#429,#430,#431,#432));
#84=EDGE_LOOP('',(#433,#434,#435,#436,#437,#438,#439,#440,#441));
#85=EDGE_LOOP('',(#442,#443,#444,#445,#446,#447,#448,#449));
#86=EDGE_LOOP('',(#450,#451,#452,#453));
#87=EDGE_LOOP('',(#454,#455,#456,#457,#458,#459,#460,#461));
#88=EDGE_LOOP('',(#462,#463,#464,#465));
#89=EDGE_LOOP('',(#466));
#90=EDGE_LOOP('',(#467));
#91=EDGE_LOOP('',(#468));
#92=EDGE_LOOP('',(#469));
#93=EDGE_LOOP('',(#470));
#94=EDGE_LOOP('',(#471,#472,#473,#474));
#95=EDGE_LOOP('',(#475,#476,#477,#478));
#96=EDGE_LOOP('',(#479,#480,#481,#482));
#97=EDGE_LOOP('',(#483,#484,#485,#486));
#98=EDGE_LOOP('',(#487,#488,#489,#490));
#99=EDGE_LOOP('',(#491,#492,#493,#494));
#100=EDGE_LOOP('',(#495,#496,#497,#498));
#101=EDGE_LOOP('',(#499,#500,#501,#502));
#102=EDGE_LOOP('',(#503,#504,#505,#506));
#103=EDGE_LOOP('',(#507,#508,#509,#510));
#104=LINE('',#782,#155);
#105=LINE('',#785,#156);
#106=LINE('',#788,#157);
#107=LINE('',#790,#158);
#108=LINE('',#792,#159);
#109=LINE('',#793,#160);
#110=LINE('',#798,#161);
#111=LINE('',#800,#162);
#112=LINE('',#802,#163);
#113=LINE('',#804,#164);
#114=LINE('',#805,#165);
#115=LINE('',#806,#166);
#116=LINE('',#810,#167);
#117=LINE('',#814,#168);
#118=LINE('',#819,#169);
#119=LINE('',#823,#170);
#120=LINE('',#825,#171);
#121=LINE('',#826,#172);
#122=LINE('',#828,#173);
#123=LINE('',#830,#174);
#124=LINE('',#834,#175);
#125=LINE('',#838,#176);
#126=LINE('',#842,#177);
#127=LINE('',#846,#178);
#128=LINE('',#847,#179);
#129=LINE('',#860,#180);
#130=LINE('',#861,#181);
#131=LINE('',#864,#182);
#132=LINE('',#865,#183);
#133=LINE('',#867,#184);
#134=LINE('',#872,#185);
#135=LINE('',#873,#186);
#136=LINE('',#876,#187);
#137=LINE('',#877,#188);
#138=LINE('',#879,#189);
#139=LINE('',#882,#190);
#140=LINE('',#884,#191);
#141=LINE('',#885,#192);
#142=LINE('',#888,#193);
#143=LINE('',#892,#194);
#144=LINE('',#896,#195);
#145=LINE('',#900,#196);
#146=LINE('',#911,#197);
#147=LINE('',#913,#198);
#148=LINE('',#915,#199);
#149=LINE('',#916,#200);
#150=LINE('',#919,#201);
#151=LINE('',#921,#202);
#152=LINE('',#923,#203);
#153=LINE('',#925,#204);
#154=LINE('',#927,#205);
#155=VECTOR('',#623,10.);
#156=VECTOR('',#626,10.);
#157=VECTOR('',#629,10.);
#158=VECTOR('',#630,10.);
#159=VECTOR('',#631,10.);
#160=VECTOR('',#632,10.);
#161=VECTOR('',#637,10.);
#162=VECTOR('',#638,10.);
#163=VECTOR('',#641,10.);
#164=VECTOR('',#644,10.);
#165=VECTOR('',#645,10.);
#166=VECTOR('',#646,10.);
#167=VECTOR('',#649,10.);
#168=VECTOR('',#652,0.940000000000005);
#169=VECTOR('',#657,10.);
#170=VECTOR('',#662,10.);
#171=VECTOR('',#663,10.);
#172=VECTOR('',#664,10.);
#173=VECTOR('',#665,10.);
#174=VECTOR('',#666,10.);
#175=VECTOR('',#669,10.);
#176=VECTOR('',#672,10.);
#177=VECTOR('',#675,10.);
#178=VECTOR('',#678,10.);
#179=VECTOR('',#679,10.);
#180=VECTOR('',#694,10.);
#181=VECTOR('',#695,10.);
#182=VECTOR('',#698,10.);
#183=VECTOR('',#699,10.);
#184=VECTOR('',#702,10.);
#185=VECTOR('',#709,10.);
#186=VECTOR('',#710,10.);
#187=VECTOR('',#713,10.);
#188=VECTOR('',#714,10.);
#189=VECTOR('',#717,10.);
#190=VECTOR('',#720,10.);
#191=VECTOR('',#721,10.);
#192=VECTOR('',#722,10.);
#193=VECTOR('',#725,10.);
#194=VECTOR('',#730,10.);
#195=VECTOR('',#733,10.);
#196=VECTOR('',#736,10.);
#197=VECTOR('',#749,10.);
#198=VECTOR('',#752,10.);
#199=VECTOR('',#755,10.);
#200=VECTOR('',#756,10.);
#201=VECTOR('',#761,10.);
#202=VECTOR('',#764,1.5);
#203=VECTOR('',#767,1.5);
#204=VECTOR('',#770,1.5);
#205=VECTOR('',#773,1.5);
#206=CIRCLE('',#565,0.940000000000005);
#207=CIRCLE('',#566,0.940000000000005);
#208=CIRCLE('',#569,0.960000000000001);
#209=CIRCLE('',#570,0.960000000000001);
#210=CIRCLE('',#573,0.940000000000005);
#211=CIRCLE('',#574,0.940000000000005);
#212=CIRCLE('',#575,0.940000000000005);
#213=CIRCLE('',#576,0.940000000000005);
#214=CIRCLE('',#578,9.);
#215=CIRCLE('',#579,9.);
#216=CIRCLE('',#580,9.);
#217=CIRCLE('',#581,9.);
#218=CIRCLE('',#582,1.5);
#219=CIRCLE('',#583,1.5);
#220=CIRCLE('',#584,1.5);
#221=CIRCLE('',#585,1.5);
#222=CIRCLE('',#587,0.960000000000001);
#223=CIRCLE('',#592,0.960000000000001);
#224=CIRCLE('',#598,9.);
#225=CIRCLE('',#600,9.);
#226=CIRCLE('',#601,9.);
#227=CIRCLE('',#602,9.);
#228=CIRCLE('',#603,1.5);
#229=CIRCLE('',#604,1.5);
#230=CIRCLE('',#605,1.5);
#231=CIRCLE('',#606,1.5);
#232=VERTEX_POINT('',#778);
#233=VERTEX_POINT('',#779);
#234=VERTEX_POINT('',#781);
#235=VERTEX_POINT('',#783);
#236=VERTEX_POINT('',#787);
#237=VERTEX_POINT('',#789);
#238=VERTEX_POINT('',#791);
#239=VERTEX_POINT('',#795);
#240=VERTEX_POINT('',#797);
#241=VERTEX_POINT('',#799);
#242=VERTEX_POINT('',#808);
#243=VERTEX_POINT('',#809);
#244=VERTEX_POINT('',#811);
#245=VERTEX_POINT('',#813);
#246=VERTEX_POINT('',#816);
#247=VERTEX_POINT('',#818);
#248=VERTEX_POINT('',#822);
#249=VERTEX_POINT('',#824);
#250=VERTEX_POINT('',#827);
#251=VERTEX_POINT('',#829);
#252=VERTEX_POINT('',#831);
#253=VERTEX_POINT('',#833);
#254=VERTEX_POINT('',#835);
#255=VERTEX_POINT('',#837);
#256=VERTEX_POINT('',#839);
#257=VERTEX_POINT('',#841);
#258=VERTEX_POINT('',#843);
#259=VERTEX_POINT('',#845);
#260=VERTEX_POINT('',#848);
#261=VERTEX_POINT('',#850);
#262=VERTEX_POINT('',#852);
#263=VERTEX_POINT('',#854);
#264=VERTEX_POINT('',#859);
#265=VERTEX_POINT('',#863);
#266=VERTEX_POINT('',#871);
#267=VERTEX_POINT('',#875);
#268=VERTEX_POINT('',#881);
#269=VERTEX_POINT('',#883);
#270=VERTEX_POINT('',#887);
#271=VERTEX_POINT('',#891);
#272=VERTEX_POINT('',#893);
#273=VERTEX_POINT('',#895);
#274=VERTEX_POINT('',#897);
#275=VERTEX_POINT('',#899);
#276=VERTEX_POINT('',#902);
#277=VERTEX_POINT('',#904);
#278=VERTEX_POINT('',#906);
#279=VERTEX_POINT('',#908);
#280=EDGE_CURVE('',#232,#233,#206,.T.);
#281=EDGE_CURVE('',#232,#234,#104,.T.);
#282=EDGE_CURVE('',#235,#234,#207,.T.);
#283=EDGE_CURVE('',#233,#235,#105,.T.);
#284=EDGE_CURVE('',#236,#232,#106,.T.);
#285=EDGE_CURVE('',#236,#237,#107,.T.);
#286=EDGE_CURVE('',#237,#238,#108,.T.);
#287=EDGE_CURVE('',#234,#238,#109,.T.);
#288=EDGE_CURVE('',#239,#236,#208,.T.);
#289=EDGE_CURVE('',#239,#240,#110,.T.);
#290=EDGE_CURVE('',#240,#241,#111,.T.);
#291=EDGE_CURVE('',#238,#241,#209,.T.);
#292=EDGE_CURVE('',#236,#237,#112,.T.);
#293=EDGE_CURVE('',#233,#239,#113,.T.);
#294=EDGE_CURVE('',#241,#235,#114,.T.);
#295=EDGE_CURVE('',#239,#240,#115,.T.);
#296=EDGE_CURVE('',#242,#243,#116,.T.);
#297=EDGE_CURVE('',#243,#244,#210,.T.);
#298=EDGE_CURVE('',#244,#245,#117,.T.);
#299=EDGE_CURVE('',#245,#245,#211,.T.);
#300=EDGE_CURVE('',#244,#246,#212,.T.);
#301=EDGE_CURVE('',#247,#246,#118,.T.);
#302=EDGE_CURVE('',#242,#247,#213,.T.);
#303=EDGE_CURVE('',#236,#248,#119,.T.);
#304=EDGE_CURVE('',#248,#249,#120,.T.);
#305=EDGE_CURVE('',#249,#242,#121,.T.);
#306=EDGE_CURVE('',#247,#250,#122,.T.);
#307=EDGE_CURVE('',#250,#251,#123,.T.);
#308=EDGE_CURVE('',#252,#251,#214,.T.);
#309=EDGE_CURVE('',#252,#253,#124,.T.);
#310=EDGE_CURVE('',#254,#253,#215,.T.);
#311=EDGE_CURVE('',#254,#255,#125,.T.);
#312=EDGE_CURVE('',#256,#255,#216,.T.);
#313=EDGE_CURVE('',#256,#257,#126,.T.);
#314=EDGE_CURVE('',#258,#257,#217,.T.);
#315=EDGE_CURVE('',#258,#259,#127,.T.);
#316=EDGE_CURVE('',#259,#239,#128,.T.);
#317=EDGE_CURVE('',#260,#260,#218,.T.);
#318=EDGE_CURVE('',#261,#261,#219,.T.);
#319=EDGE_CURVE('',#262,#262,#220,.T.);
#320=EDGE_CURVE('',#263,#263,#221,.T.);
#321=EDGE_CURVE('',#239,#236,#222,.T.);
#322=EDGE_CURVE('',#249,#264,#129,.T.);
#323=EDGE_CURVE('',#264,#243,#130,.T.);
#324=EDGE_CURVE('',#248,#265,#131,.T.);
#325=EDGE_CURVE('',#265,#264,#132,.T.);
#326=EDGE_CURVE('',#237,#265,#133,.T.);
#327=EDGE_CURVE('',#240,#237,#223,.T.);
#328=EDGE_CURVE('',#266,#259,#134,.T.);
#329=EDGE_CURVE('',#266,#240,#135,.T.);
#330=EDGE_CURVE('',#246,#267,#136,.T.);
#331=EDGE_CURVE('',#250,#267,#137,.T.);
#332=EDGE_CURVE('',#267,#266,#138,.T.);
#333=EDGE_CURVE('',#268,#258,#139,.T.);
#334=EDGE_CURVE('',#269,#268,#140,.T.);
#335=EDGE_CURVE('',#251,#269,#141,.T.);
#336=EDGE_CURVE('',#257,#270,#142,.T.);
#337=EDGE_CURVE('',#270,#268,#224,.T.);
#338=EDGE_CURVE('',#271,#270,#143,.T.);
#339=EDGE_CURVE('',#272,#271,#225,.T.);
#340=EDGE_CURVE('',#272,#273,#144,.T.);
#341=EDGE_CURVE('',#274,#273,#226,.T.);
#342=EDGE_CURVE('',#274,#275,#145,.T.);
#343=EDGE_CURVE('',#269,#275,#227,.T.);
#344=EDGE_CURVE('',#276,#276,#228,.T.);
#345=EDGE_CURVE('',#277,#277,#229,.T.);
#346=EDGE_CURVE('',#278,#278,#230,.T.);
#347=EDGE_CURVE('',#279,#279,#231,.T.);
#348=EDGE_CURVE('',#275,#252,#146,.T.);
#349=EDGE_CURVE('',#253,#274,#147,.T.);
#350=EDGE_CURVE('',#255,#272,#148,.T.);
#351=EDGE_CURVE('',#271,#256,#149,.T.);
#352=EDGE_CURVE('',#273,#254,#150,.T.);
#353=EDGE_CURVE('',#263,#279,#151,.T.);
#354=EDGE_CURVE('',#262,#278,#152,.T.);
#355=EDGE_CURVE('',#261,#277,#153,.T.);
#356=EDGE_CURVE('',#260,#276,#154,.T.);
#357=ORIENTED_EDGE('',*,*,#280,.F.);
#358=ORIENTED_EDGE('',*,*,#281,.T.);
#359=ORIENTED_EDGE('',*,*,#282,.F.);
#360=ORIENTED_EDGE('',*,*,#283,.F.);
#361=ORIENTED_EDGE('',*,*,#284,.F.);
#362=ORIENTED_EDGE('',*,*,#285,.T.);
#363=ORIENTED_EDGE('',*,*,#286,.T.);
#364=ORIENTED_EDGE('',*,*,#287,.F.);
#365=ORIENTED_EDGE('',*,*,#281,.F.);
#366=ORIENTED_EDGE('',*,*,#288,.F.);
#367=ORIENTED_EDGE('',*,*,#289,.T.);
#368=ORIENTED_EDGE('',*,*,#290,.T.);
#369=ORIENTED_EDGE('',*,*,#291,.F.);
#370=ORIENTED_EDGE('',*,*,#286,.F.);
#371=ORIENTED_EDGE('',*,*,#292,.F.);
#372=ORIENTED_EDGE('',*,*,#293,.F.);
#373=ORIENTED_EDGE('',*,*,#283,.T.);
#374=ORIENTED_EDGE('',*,*,#294,.F.);
#375=ORIENTED_EDGE('',*,*,#290,.F.);
#376=ORIENTED_EDGE('',*,*,#295,.F.);
#377=ORIENTED_EDGE('',*,*,#296,.T.);
#378=ORIENTED_EDGE('',*,*,#297,.T.);
#379=ORIENTED_EDGE('',*,*,#298,.T.);
#380=ORIENTED_EDGE('',*,*,#299,.F.);
#381=ORIENTED_EDGE('',*,*,#298,.F.);
#382=ORIENTED_EDGE('',*,*,#300,.T.);
#383=ORIENTED_EDGE('',*,*,#301,.F.);
#384=ORIENTED_EDGE('',*,*,#302,.F.);
#385=ORIENTED_EDGE('',*,*,#288,.T.);
#386=ORIENTED_EDGE('',*,*,#303,.T.);
#387=ORIENTED_EDGE('',*,*,#304,.T.);
#388=ORIENTED_EDGE('',*,*,#305,.T.);
#389=ORIENTED_EDGE('',*,*,#302,.T.);
#390=ORIENTED_EDGE('',*,*,#306,.T.);
#391=ORIENTED_EDGE('',*,*,#307,.T.);
#392=ORIENTED_EDGE('',*,*,#308,.F.);
#393=ORIENTED_EDGE('',*,*,#309,.T.);
#394=ORIENTED_EDGE('',*,*,#310,.F.);
#395=ORIENTED_EDGE('',*,*,#311,.T.);
#396=ORIENTED_EDGE('',*,*,#312,.F.);
#397=ORIENTED_EDGE('',*,*,#313,.T.);
#398=ORIENTED_EDGE('',*,*,#314,.F.);
#399=ORIENTED_EDGE('',*,*,#315,.T.);
#400=ORIENTED_EDGE('',*,*,#316,.T.);
#401=ORIENTED_EDGE('',*,*,#317,.T.);
#402=ORIENTED_EDGE('',*,*,#318,.T.);
#403=ORIENTED_EDGE('',*,*,#319,.T.);
#404=ORIENTED_EDGE('',*,*,#320,.T.);
#405=ORIENTED_EDGE('',*,*,#284,.T.);
#406=ORIENTED_EDGE('',*,*,#280,.T.);
#407=ORIENTED_EDGE('',*,*,#293,.T.);
#408=ORIENTED_EDGE('',*,*,#321,.T.);
#409=ORIENTED_EDGE('',*,*,#305,.F.);
#410=ORIENTED_EDGE('',*,*,#322,.T.);
#411=ORIENTED_EDGE('',*,*,#323,.T.);
#412=ORIENTED_EDGE('',*,*,#296,.F.);
#413=ORIENTED_EDGE('',*,*,#304,.F.);
#414=ORIENTED_EDGE('',*,*,#324,.T.);
#415=ORIENTED_EDGE('',*,*,#325,.T.);
#416=ORIENTED_EDGE('',*,*,#322,.F.);
#417=ORIENTED_EDGE('',*,*,#303,.F.);
#418=ORIENTED_EDGE('',*,*,#292,.T.);
#419=ORIENTED_EDGE('',*,*,#326,.T.);
#420=ORIENTED_EDGE('',*,*,#324,.F.);
#421=ORIENTED_EDGE('',*,*,#321,.F.);
#422=ORIENTED_EDGE('',*,*,#295,.T.);
#423=ORIENTED_EDGE('',*,*,#327,.T.);
#424=ORIENTED_EDGE('',*,*,#285,.F.);
#425=ORIENTED_EDGE('',*,*,#316,.F.);
#426=ORIENTED_EDGE('',*,*,#328,.F.);
#427=ORIENTED_EDGE('',*,*,#329,.T.);
#428=ORIENTED_EDGE('',*,*,#289,.F.);
#429=ORIENTED_EDGE('',*,*,#306,.F.);
#430=ORIENTED_EDGE('',*,*,#301,.T.);
#431=ORIENTED_EDGE('',*,*,#330,.T.);
#432=ORIENTED_EDGE('',*,*,#331,.F.);
#433=ORIENTED_EDGE('',*,*,#297,.F.);
#434=ORIENTED_EDGE('',*,*,#323,.F.);
#435=ORIENTED_EDGE('',*,*,#325,.F.);
#436=ORIENTED_EDGE('',*,*,#326,.F.);
#437=ORIENTED_EDGE('',*,*,#327,.F.);
#438=ORIENTED_EDGE('',*,*,#329,.F.);
#439=ORIENTED_EDGE('',*,*,#332,.F.);
#440=ORIENTED_EDGE('',*,*,#330,.F.);
#441=ORIENTED_EDGE('',*,*,#300,.F.);
#442=ORIENTED_EDGE('',*,*,#331,.T.);
#443=ORIENTED_EDGE('',*,*,#332,.T.);
#444=ORIENTED_EDGE('',*,*,#328,.T.);
#445=ORIENTED_EDGE('',*,*,#315,.F.);
#446=ORIENTED_EDGE('',*,*,#333,.F.);
#447=ORIENTED_EDGE('',*,*,#334,.F.);
#448=ORIENTED_EDGE('',*,*,#335,.F.);
#449=ORIENTED_EDGE('',*,*,#307,.F.);
#450=ORIENTED_EDGE('',*,*,#314,.T.);
#451=ORIENTED_EDGE('',*,*,#336,.T.);
#452=ORIENTED_EDGE('',*,*,#337,.T.);
#453=ORIENTED_EDGE('',*,*,#333,.T.);
#454=ORIENTED_EDGE('',*,*,#337,.F.);
#455=ORIENTED_EDGE('',*,*,#338,.F.);
#456=ORIENTED_EDGE('',*,*,#339,.F.);
#457=ORIENTED_EDGE('',*,*,#340,.T.);
#458=ORIENTED_EDGE('',*,*,#341,.F.);
#459=ORIENTED_EDGE('',*,*,#342,.T.);
#460=ORIENTED_EDGE('',*,*,#343,.F.);
#461=ORIENTED_EDGE('',*,*,#334,.T.);
#462=ORIENTED_EDGE('',*,*,#282,.T.);
#463=ORIENTED_EDGE('',*,*,#287,.T.);
#464=ORIENTED_EDGE('',*,*,#291,.T.);
#465=ORIENTED_EDGE('',*,*,#294,.T.);
#466=ORIENTED_EDGE('',*,*,#299,.T.);
#467=ORIENTED_EDGE('',*,*,#344,.F.);
#468=ORIENTED_EDGE('',*,*,#345,.F.);
#469=ORIENTED_EDGE('',*,*,#346,.F.);
#470=ORIENTED_EDGE('',*,*,#347,.F.);
#471=ORIENTED_EDGE('',*,*,#308,.T.);
#472=ORIENTED_EDGE('',*,*,#335,.T.);
#473=ORIENTED_EDGE('',*,*,#343,.T.);
#474=ORIENTED_EDGE('',*,*,#348,.T.);
#475=ORIENTED_EDGE('',*,*,#348,.F.);
#476=ORIENTED_EDGE('',*,*,#342,.F.);
#477=ORIENTED_EDGE('',*,*,#349,.F.);
#478=ORIENTED_EDGE('',*,*,#309,.F.);
#479=ORIENTED_EDGE('',*,*,#312,.T.);
#480=ORIENTED_EDGE('',*,*,#350,.T.);
#481=ORIENTED_EDGE('',*,*,#339,.T.);
#482=ORIENTED_EDGE('',*,*,#351,.T.);
#483=ORIENTED_EDGE('',*,*,#336,.F.);
#484=ORIENTED_EDGE('',*,*,#313,.F.);
#485=ORIENTED_EDGE('',*,*,#351,.F.);
#486=ORIENTED_EDGE('',*,*,#338,.T.);
#487=ORIENTED_EDGE('',*,*,#310,.T.);
#488=ORIENTED_EDGE('',*,*,#349,.T.);
#489=ORIENTED_EDGE('',*,*,#341,.T.);
#490=ORIENTED_EDGE('',*,*,#352,.T.);
#491=ORIENTED_EDGE('',*,*,#320,.F.);
#492=ORIENTED_EDGE('',*,*,#353,.T.);
#493=ORIENTED_EDGE('',*,*,#347,.T.);
#494=ORIENTED_EDGE('',*,*,#353,.F.);
#495=ORIENTED_EDGE('',*,*,#319,.F.);
#496=ORIENTED_EDGE('',*,*,#354,.T.);
#497=ORIENTED_EDGE('',*,*,#346,.T.);
#498=ORIENTED_EDGE('',*,*,#354,.F.);
#499=ORIENTED_EDGE('',*,*,#318,.F.);
#500=ORIENTED_EDGE('',*,*,#355,.T.);
#501=ORIENTED_EDGE('',*,*,#345,.T.);
#502=ORIENTED_EDGE('',*,*,#355,.F.);
#503=ORIENTED_EDGE('',*,*,#317,.F.);
#504=ORIENTED_EDGE('',*,*,#356,.T.);
#505=ORIENTED_EDGE('',*,*,#344,.T.);
#506=ORIENTED_EDGE('',*,*,#356,.F.);
#507=ORIENTED_EDGE('',*,*,#350,.F.);
#508=ORIENTED_EDGE('',*,*,#311,.F.);
#509=ORIENTED_EDGE('',*,*,#352,.F.);
#510=ORIENTED_EDGE('',*,*,#340,.F.);
#511=CYLINDRICAL_SURFACE('',#564,0.940000000000005);
#512=CYLINDRICAL_SURFACE('',#568,0.960000000000001);
#513=CYLINDRICAL_SURFACE('',#572,0.940000000000005);
#514=CYLINDRICAL_SURFACE('',#591,0.960000000000001);
#515=CYLINDRICAL_SURFACE('',#597,9.);
#516=CYLINDRICAL_SURFACE('',#607,9.);
#517=CYLINDRICAL_SURFACE('',#609,9.);
#518=CYLINDRICAL_SURFACE('',#611,9.);
#519=CYLINDRICAL_SURFACE('',#612,1.5);
#520=CYLINDRICAL_SURFACE('',#613,1.5);
#521=CYLINDRICAL_SURFACE('',#614,1.5);
#522=CYLINDRICAL_SURFACE('',#615,1.5);
#523=ADVANCED_FACE('',(#40),#511,.F.);
#524=ADVANCED_FACE('',(#41),#25,.F.);
#525=ADVANCED_FACE('',(#42),#512,.F.);
#526=ADVANCED_FACE('',(#43),#26,.F.);
#527=ADVANCED_FACE('',(#44),#513,.F.);
#528=ADVANCED_FACE('',(#45,#15,#16,#17,#18),#27,.T.);
#529=ADVANCED_FACE('',(#46),#28,.T.);
#530=ADVANCED_FACE('',(#47),#29,.F.);
#531=ADVANCED_FACE('',(#48),#30,.F.);
#532=ADVANCED_FACE('',(#49),#31,.F.);
#533=ADVANCED_FACE('',(#50),#514,.T.);
#534=ADVANCED_FACE('',(#51),#32,.F.);
#535=ADVANCED_FACE('',(#52),#33,.F.);
#536=ADVANCED_FACE('',(#53),#34,.T.);
#537=ADVANCED_FACE('',(#54),#35,.T.);
#538=ADVANCED_FACE('',(#55),#515,.T.);
#539=ADVANCED_FACE('',(#56,#19,#20,#21,#22,#23,#24),#36,.F.);
#540=ADVANCED_FACE('',(#57),#516,.T.);
#541=ADVANCED_FACE('',(#58),#37,.T.);
#542=ADVANCED_FACE('',(#59),#517,.T.);
#543=ADVANCED_FACE('',(#60),#38,.T.);
#544=ADVANCED_FACE('',(#61),#518,.T.);
#545=ADVANCED_FACE('',(#62),#519,.F.);
#546=ADVANCED_FACE('',(#63),#520,.F.);
#547=ADVANCED_FACE('',(#64),#521,.F.);
#548=ADVANCED_FACE('',(#65),#522,.F.);
#549=ADVANCED_FACE('',(#66),#39,.T.);
#550=CLOSED_SHELL('',(#523,#524,#525,#526,#527,#528,#529,#530,#531,#532,
#533,#534,#535,#536,#537,#538,#539,#540,#541,#542,#543,#544,#545,#546,#547,
#548,#549));
#551=DERIVED_UNIT_ELEMENT(#553,1.);
#552=DERIVED_UNIT_ELEMENT(#934,-3.);
#553=(
MASS_UNIT()
NAMED_UNIT(*)
SI_UNIT(.KILO.,.GRAM.)
);
#554=DERIVED_UNIT((#551,#552));
#555=MEASURE_REPRESENTATION_ITEM('density measure',
POSITIVE_RATIO_MEASURE(7850.),#554);
#556=PROPERTY_DEFINITION_REPRESENTATION(#561,#558);
#557=PROPERTY_DEFINITION_REPRESENTATION(#562,#559);
#558=REPRESENTATION('material name',(#560),#931);
#559=REPRESENTATION('density',(#555),#931);
#560=DESCRIPTIVE_REPRESENTATION_ITEM('Steel','Steel');
#561=PROPERTY_DEFINITION('material property','material name',#941);
#562=PROPERTY_DEFINITION('material property','density of part',#941);
#563=AXIS2_PLACEMENT_3D('',#776,#617,#618);
#564=AXIS2_PLACEMENT_3D('',#777,#619,#620);
#565=AXIS2_PLACEMENT_3D('',#780,#621,#622);
#566=AXIS2_PLACEMENT_3D('',#784,#624,#625);
#567=AXIS2_PLACEMENT_3D('',#786,#627,#628);
#568=AXIS2_PLACEMENT_3D('',#794,#633,#634);
#569=AXIS2_PLACEMENT_3D('',#796,#635,#636);
#570=AXIS2_PLACEMENT_3D('',#801,#639,#640);
#571=AXIS2_PLACEMENT_3D('',#803,#642,#643);
#572=AXIS2_PLACEMENT_3D('',#807,#647,#648);
#573=AXIS2_PLACEMENT_3D('',#812,#650,#651);
#574=AXIS2_PLACEMENT_3D('',#815,#653,#654);
#575=AXIS2_PLACEMENT_3D('',#817,#655,#656);
#576=AXIS2_PLACEMENT_3D('',#820,#658,#659);
#577=AXIS2_PLACEMENT_3D('',#821,#660,#661);
#578=AXIS2_PLACEMENT_3D('',#832,#667,#668);
#579=AXIS2_PLACEMENT_3D('',#836,#670,#671);
#580=AXIS2_PLACEMENT_3D('',#840,#673,#674);
#581=AXIS2_PLACEMENT_3D('',#844,#676,#677);
#582=AXIS2_PLACEMENT_3D('',#849,#680,#681);
#583=AXIS2_PLACEMENT_3D('',#851,#682,#683);
#584=AXIS2_PLACEMENT_3D('',#853,#684,#685);
#585=AXIS2_PLACEMENT_3D('',#855,#686,#687);
#586=AXIS2_PLACEMENT_3D('',#856,#688,#689);
#587=AXIS2_PLACEMENT_3D('',#857,#690,#691);
#588=AXIS2_PLACEMENT_3D('',#858,#692,#693);
#589=AXIS2_PLACEMENT_3D('',#862,#696,#697);
#590=AXIS2_PLACEMENT_3D('',#866,#700,#701);
#591=AXIS2_PLACEMENT_3D('',#868,#703,#704);
#592=AXIS2_PLACEMENT_3D('',#869,#705,#706);
#593=AXIS2_PLACEMENT_3D('',#870,#707,#708);
#594=AXIS2_PLACEMENT_3D('',#874,#711,#712);
#595=AXIS2_PLACEMENT_3D('',#878,#715,#716);
#596=AXIS2_PLACEMENT_3D('',#880,#718,#719);
#597=AXIS2_PLACEMENT_3D('',#886,#723,#724);
#598=AXIS2_PLACEMENT_3D('',#889,#726,#727);
#599=AXIS2_PLACEMENT_3D('',#890,#728,#729);
#600=AXIS2_PLACEMENT_3D('',#894,#731,#732);
#601=AXIS2_PLACEMENT_3D('',#898,#734,#735);
#602=AXIS2_PLACEMENT_3D('',#901,#737,#738);
#603=AXIS2_PLACEMENT_3D('',#903,#739,#740);
#604=AXIS2_PLACEMENT_3D('',#905,#741,#742);
#605=AXIS2_PLACEMENT_3D('',#907,#743,#744);
#606=AXIS2_PLACEMENT_3D('',#909,#745,#746);
#607=AXIS2_PLACEMENT_3D('',#910,#747,#748);
#608=AXIS2_PLACEMENT_3D('',#912,#750,#751);
#609=AXIS2_PLACEMENT_3D('',#914,#753,#754);
#610=AXIS2_PLACEMENT_3D('',#917,#757,#758);
#611=AXIS2_PLACEMENT_3D('',#918,#759,#760);
#612=AXIS2_PLACEMENT_3D('',#920,#762,#763);
#613=AXIS2_PLACEMENT_3D('',#922,#765,#766);
#614=AXIS2_PLACEMENT_3D('',#924,#768,#769);
#615=AXIS2_PLACEMENT_3D('',#926,#771,#772);
#616=AXIS2_PLACEMENT_3D('',#928,#774,#775);
#617=DIRECTION('axis',(0.,0.,1.));
#618=DIRECTION('refdir',(1.,0.,0.));
#619=DIRECTION('center_axis',(0.,-1.,0.));
#620=DIRECTION('ref_axis',(5.1949431753986E-15,0.,1.));
#621=DIRECTION('center_axis',(0.,-1.,0.));
#622=DIRECTION('ref_axis',(-0.99977362761453,0.,-0.0212765957446689));
#623=DIRECTION('',(0.,-1.,0.));
#624=DIRECTION('center_axis',(0.,1.,0.));
#625=DIRECTION('ref_axis',(-0.99977362761453,0.,-0.0212765957446689));
#626=DIRECTION('',(0.,-1.,0.));
#627=DIRECTION('center_axis',(4.99537918841465E-16,0.,1.));
#628=DIRECTION('ref_axis',(-1.,0.,4.99537918841465E-16));
#629=DIRECTION('',(-1.,0.,4.99537918841465E-16));
#630=DIRECTION('',(0.,-1.,0.));
#631=DIRECTION('',(0.,-1.,0.));
#632=DIRECTION('',(1.,0.,-4.99537918841465E-16));
#633=DIRECTION('center_axis',(0.,-1.,0.));
#634=DIRECTION('ref_axis',(-1.,0.,0.));
#635=DIRECTION('center_axis',(0.,-1.,0.));
#636=DIRECTION('ref_axis',(-1.,0.,0.));
#637=DIRECTION('',(0.,-1.,0.));
#638=DIRECTION('',(0.,-1.,0.));
#639=DIRECTION('center_axis',(0.,1.,0.));
#640=DIRECTION('ref_axis',(-1.,0.,0.));
#641=DIRECTION('',(0.,-1.,0.));
#642=DIRECTION('center_axis',(4.99537918841465E-16,0.,1.));
#643=DIRECTION('ref_axis',(-1.,0.,4.99537918841465E-16));
#644=DIRECTION('',(-1.,0.,4.99537918841465E-16));
#645=DIRECTION('',(1.,0.,-4.99537918841465E-16));
#646=DIRECTION('',(0.,-1.,0.));
#647=DIRECTION('center_axis',(0.,-1.,0.));
#648=DIRECTION('ref_axis',(-1.,0.,0.));
#649=DIRECTION('',(0.,-1.,0.));
#650=DIRECTION('center_axis',(0.,1.,0.));
#651=DIRECTION('ref_axis',(-1.,0.,0.));
#652=DIRECTION('',(0.,-1.,0.));
#653=DIRECTION('center_axis',(0.,1.,0.));
#654=DIRECTION('ref_axis',(-1.,0.,0.));
#655=DIRECTION('center_axis',(0.,1.,0.));
#656=DIRECTION('ref_axis',(-1.,0.,0.));
#657=DIRECTION('',(0.,-1.,0.));
#658=DIRECTION('center_axis',(0.,-1.,0.));
#659=DIRECTION('ref_axis',(-1.,0.,0.));
#660=DIRECTION('center_axis',(0.,1.,0.));
#661=DIRECTION('ref_axis',(1.,0.,0.));
#662=DIRECTION('',(1.,0.,-4.99537918841465E-16));
#663=DIRECTION('',(1.89781713611138E-16,0.,1.));
#664=DIRECTION('',(-1.,0.,1.24884479710366E-16));
#665=DIRECTION('',(-1.,0.,1.24884479710366E-16));
#666=DIRECTION('',(0.,0.,1.));
#667=DIRECTION('center_axis',(0.,-1.,0.));
#668=DIRECTION('ref_axis',(-0.707106781186548,0.,0.707106781186547));
#669=DIRECTION('',(1.,0.,0.));
#670=DIRECTION('center_axis',(0.,-1.,0.));
#671=DIRECTION('ref_axis',(0.707106781186548,0.,0.707106781186547));
#672=DIRECTION('',(0.,0.,-1.));
#673=DIRECTION('center_axis',(0.,-1.,0.));
#674=DIRECTION('ref_axis',(0.707106781186548,0.,-0.707106781186548));
#675=DIRECTION('',(-1.,0.,0.));
#676=DIRECTION('center_axis',(0.,-1.,0.));
#677=DIRECTION('ref_axis',(-0.707106781186547,0.,-0.707106781186548));
#678=DIRECTION('',(0.,0.,1.));
#679=DIRECTION('',(1.,0.,-4.99537918841465E-16));
#680=DIRECTION('center_axis',(0.,-1.,0.));
#681=DIRECTION('ref_axis',(1.,0.,0.));
#682=DIRECTION('center_axis',(0.,-1.,0.));
#683=DIRECTION('ref_axis',(1.,0.,0.));
#684=DIRECTION('center_axis',(0.,-1.,0.));
#685=DIRECTION('ref_axis',(1.,0.,0.));
#686=DIRECTION('center_axis',(0.,-1.,0.));
#687=DIRECTION('ref_axis',(1.,0.,0.));
#688=DIRECTION('center_axis',(0.,1.,0.));
#689=DIRECTION('ref_axis',(1.,0.,0.));
#690=DIRECTION('center_axis',(0.,1.,0.));
#691=DIRECTION('ref_axis',(-1.,0.,0.));
#692=DIRECTION('center_axis',(1.24884479710366E-16,0.,1.));
#693=DIRECTION('ref_axis',(-1.,0.,1.24884479710366E-16));
#694=DIRECTION('',(0.,-1.,0.));
#695=DIRECTION('',(-1.,0.,1.24884479710366E-16));
#696=DIRECTION('center_axis',(1.,0.,-1.89781713611138E-16));
#697=DIRECTION('ref_axis',(1.89781713611138E-16,0.,1.));
#698=DIRECTION('',(0.,-1.,0.));
#699=DIRECTION('',(1.89781713611138E-16,0.,1.));
#700=DIRECTION('center_axis',(-4.99537918841465E-16,0.,-1.));
#701=DIRECTION('ref_axis',(1.,0.,-4.99537918841465E-16));
#702=DIRECTION('',(1.,0.,-4.99537918841465E-16));
#703=DIRECTION('center_axis',(0.,-1.,0.));
#704=DIRECTION('ref_axis',(1.83697019872103E-16,0.,1.));
#705=DIRECTION('center_axis',(0.,1.,0.));
#706=DIRECTION('ref_axis',(-1.,0.,0.));
#707=DIRECTION('center_axis',(-4.99537918841465E-16,0.,-1.));
#708=DIRECTION('ref_axis',(1.,0.,-4.99537918841465E-16));
#709=DIRECTION('',(0.,1.,0.));
#710=DIRECTION('',(1.,0.,-4.99537918841465E-16));
#711=DIRECTION('center_axis',(1.24884479710366E-16,0.,1.));
#712=DIRECTION('ref_axis',(-1.,0.,1.24884479710366E-16));
#713=DIRECTION('',(-1.,0.,1.24884479710366E-16));
#714=DIRECTION('',(0.,-1.,0.));
#715=DIRECTION('center_axis',(0.,1.,0.));
#716=DIRECTION('ref_axis',(-1.,0.,0.));
#717=DIRECTION('',(0.,0.,-1.));
#718=DIRECTION('center_axis',(-1.,0.,0.));
#719=DIRECTION('ref_axis',(0.,0.,1.));
#720=DIRECTION('',(0.,1.,0.));
#721=DIRECTION('',(0.,0.,-1.));
#722=DIRECTION('',(0.,-1.,0.));
#723=DIRECTION('center_axis',(0.,1.,0.));
#724=DIRECTION('ref_axis',(-0.707106781186547,0.,-0.707106781186548));
#725=DIRECTION('',(0.,-1.,0.));
#726=DIRECTION('center_axis',(0.,1.,0.));
#727=DIRECTION('ref_axis',(-0.707106781186547,0.,-0.707106781186548));
#728=DIRECTION('center_axis',(0.,1.,0.));
#729=DIRECTION('ref_axis',(1.,0.,0.));
#730=DIRECTION('',(-1.,0.,0.));
#731=DIRECTION('center_axis',(0.,1.,0.));
#732=DIRECTION('ref_axis',(0.707106781186548,0.,-0.707106781186548));
#733=DIRECTION('',(0.,0.,1.));
#734=DIRECTION('center_axis',(0.,1.,0.));
#735=DIRECTION('ref_axis',(0.707106781186548,0.,0.707106781186547));
#736=DIRECTION('',(-1.,0.,0.));
#737=DIRECTION('center_axis',(0.,1.,0.));
#738=DIRECTION('ref_axis',(-0.707106781186548,0.,0.707106781186547));
#739=DIRECTION('center_axis',(0.,-1.,0.));
#740=DIRECTION('ref_axis',(1.,0.,0.));
#741=DIRECTION('center_axis',(0.,-1.,0.));
#742=DIRECTION('ref_axis',(1.,0.,0.));
#743=DIRECTION('center_axis',(0.,-1.,0.));
#744=DIRECTION('ref_axis',(1.,0.,0.));
#745=DIRECTION('center_axis',(0.,-1.,0.));
#746=DIRECTION('ref_axis',(1.,0.,0.));
#747=DIRECTION('center_axis',(0.,1.,0.));
#748=DIRECTION('ref_axis',(-0.707106781186548,0.,0.707106781186547));
#749=DIRECTION('',(0.,1.,0.));
#750=DIRECTION('center_axis',(0.,0.,1.));
#751=DIRECTION('ref_axis',(1.,0.,0.));
#752=DIRECTION('',(0.,-1.,0.));
#753=DIRECTION('center_axis',(0.,1.,0.));
#754=DIRECTION('ref_axis',(0.707106781186548,0.,-0.707106781186548));
#755=DIRECTION('',(0.,-1.,0.));
#756=DIRECTION('',(0.,1.,0.));
#757=DIRECTION('center_axis',(0.,0.,-1.));
#758=DIRECTION('ref_axis',(-1.,0.,0.));
#759=DIRECTION('center_axis',(0.,1.,0.));
#760=DIRECTION('ref_axis',(0.707106781186548,0.,0.707106781186547));
#761=DIRECTION('',(0.,1.,0.));
#762=DIRECTION('center_axis',(0.,1.,0.));
#763=DIRECTION('ref_axis',(1.,0.,0.));
#764=DIRECTION('',(0.,-1.,0.));
#765=DIRECTION('center_axis',(0.,1.,0.));
#766=DIRECTION('ref_axis',(1.,0.,0.));
#767=DIRECTION('',(0.,-1.,0.));
#768=DIRECTION('center_axis',(0.,1.,0.));
#769=DIRECTION('ref_axis',(1.,0.,0.));
#770=DIRECTION('',(0.,-1.,0.));
#771=DIRECTION('center_axis',(0.,1.,0.));
#772=DIRECTION('ref_axis',(1.,0.,0.));
#773=DIRECTION('',(0.,-1.,0.));
#774=DIRECTION('center_axis',(1.,0.,0.));
#775=DIRECTION('ref_axis',(0.,0.,-1.));
#776=CARTESIAN_POINT('',(0.,0.,0.));
#777=CARTESIAN_POINT('Origin',(2.84,54.,-41.275));
#778=CARTESIAN_POINT('',(3.77978720995766,54.,-41.295));
#779=CARTESIAN_POINT('',(1.90021279004233,54.,-41.295));
#780=CARTESIAN_POINT('Origin',(2.84,54.,-41.275));
#781=CARTESIAN_POINT('',(3.77978720995766,52.,-41.295));
#782=CARTESIAN_POINT('',(3.77978720995766,54.,-41.295));
#783=CARTESIAN_POINT('',(1.90021279004233,52.,-41.295));
#784=CARTESIAN_POINT('Origin',(2.84,52.,-41.275));
#785=CARTESIAN_POINT('',(1.90021279004233,54.,-41.295));
#786=CARTESIAN_POINT('Origin',(3.79979164405614,54.,-41.295));
#787=CARTESIAN_POINT('',(3.79979164405614,54.,-41.295));
#788=CARTESIAN_POINT('',(20.3373958220281,54.,-41.295));
#789=CARTESIAN_POINT('',(3.79979164405614,53.5,-41.295));
#790=CARTESIAN_POINT('',(3.79979164405614,54.,-41.295));
#791=CARTESIAN_POINT('',(3.79979164405614,52.,-41.295));
#792=CARTESIAN_POINT('',(3.79979164405614,54.,-41.295));
#793=CARTESIAN_POINT('',(20.3373958220281,52.,-41.295));
#794=CARTESIAN_POINT('Origin',(2.84,54.,-41.275));
#795=CARTESIAN_POINT('',(1.88020835594385,54.,-41.295));
#796=CARTESIAN_POINT('Origin',(2.84,54.,-41.275));
#797=CARTESIAN_POINT('',(1.88020835594385,53.5,-41.295));
#798=CARTESIAN_POINT('',(1.88020835594385,54.,-41.295));
#799=CARTESIAN_POINT('',(1.88020835594385,52.,-41.295));
#800=CARTESIAN_POINT('',(1.88020835594385,54.,-41.295));
#801=CARTESIAN_POINT('Origin',(2.84,52.,-41.275));
#802=CARTESIAN_POINT('',(3.79979164405614,54.,-41.295));
#803=CARTESIAN_POINT('Origin',(1.90021279004233,54.,-41.295));
#804=CARTESIAN_POINT('',(19.3876063950212,54.,-41.295));
#805=CARTESIAN_POINT('',(19.3876063950212,52.,-41.295));
#806=CARTESIAN_POINT('',(1.88020835594385,54.,-41.295));
#807=CARTESIAN_POINT('Origin',(2.84,54.,-17.915));
#808=CARTESIAN_POINT('',(3.77978720995766,54.,-17.895));
#809=CARTESIAN_POINT('',(3.77978720995766,53.5,-17.895));
#810=CARTESIAN_POINT('',(3.77978720995766,54.,-17.895));
#811=CARTESIAN_POINT('',(3.78,53.5,-17.915));
#812=CARTESIAN_POINT('Origin',(2.84,53.5,-17.915));
#813=CARTESIAN_POINT('',(3.78,52.,-17.915));
#814=CARTESIAN_POINT('',(3.78,54.,-17.915));
#815=CARTESIAN_POINT('Origin',(2.84,52.,-17.915));
#816=CARTESIAN_POINT('',(1.90021279004233,53.5,-17.895));
#817=CARTESIAN_POINT('Origin',(2.84,53.5,-17.915));
#818=CARTESIAN_POINT('',(1.90021279004233,54.,-17.895));
#819=CARTESIAN_POINT('',(1.90021279004233,54.,-17.895));
#820=CARTESIAN_POINT('Origin',(2.84,54.,-17.915));
#821=CARTESIAN_POINT('Origin',(36.875,54.,-26.6));
#822=CARTESIAN_POINT('',(17.78,54.,-41.295));
#823=CARTESIAN_POINT('',(20.3373958220281,54.,-41.295));
#824=CARTESIAN_POINT('',(17.78,54.,-17.895));
#825=CARTESIAN_POINT('',(17.78,54.,-33.9475));
#826=CARTESIAN_POINT('',(27.3275,54.,-17.895));
#827=CARTESIAN_POINT('',(-1.68898985706469E-15,54.,-17.895));
#828=CARTESIAN_POINT('',(19.3876063950212,54.,-17.895));
#829=CARTESIAN_POINT('',(0.,54.,-9.));
#830=CARTESIAN_POINT('',(0.,54.,0.));
#831=CARTESIAN_POINT('',(9.,54.,0.));
#832=CARTESIAN_POINT('Origin',(9.,54.,-9.));
#833=CARTESIAN_POINT('',(64.75,54.,0.));
#834=CARTESIAN_POINT('',(63.75,54.,0.));
#835=CARTESIAN_POINT('',(73.75,54.,-9.));
#836=CARTESIAN_POINT('Origin',(64.75,54.,-9.));
#837=CARTESIAN_POINT('',(73.75,54.,-44.2));
#838=CARTESIAN_POINT('',(73.75,54.,-53.2));
#839=CARTESIAN_POINT('',(64.75,54.,-53.2));
#840=CARTESIAN_POINT('Origin',(64.75,54.,-44.2));
#841=CARTESIAN_POINT('',(9.,54.,-53.2));
#842=CARTESIAN_POINT('',(63.75,54.,-53.2));
#843=CARTESIAN_POINT('',(0.,54.,-44.2));
#844=CARTESIAN_POINT('Origin',(9.,54.,-44.2));
#845=CARTESIAN_POINT('',(-1.68898985706469E-15,54.,-41.295));
#846=CARTESIAN_POINT('',(0.,54.,0.));
#847=CARTESIAN_POINT('',(18.4375,54.,-41.295));
#848=CARTESIAN_POINT('',(7.58999999999999,54.,-48.74));
#849=CARTESIAN_POINT('Origin',(9.08999999999999,54.,-48.74));
#850=CARTESIAN_POINT('',(55.43,54.,-48.74));
#851=CARTESIAN_POINT('Origin',(56.93,54.,-48.74));
#852=CARTESIAN_POINT('',(7.58999999999999,54.,-10.45));
#853=CARTESIAN_POINT('Origin',(9.08999999999999,54.,-10.45));
#854=CARTESIAN_POINT('',(55.43,54.,-10.45));
#855=CARTESIAN_POINT('Origin',(56.93,54.,-10.45));
#856=CARTESIAN_POINT('Origin',(36.875,54.,-26.6));
#857=CARTESIAN_POINT('Origin',(2.84,54.,-41.275));
#858=CARTESIAN_POINT('Origin',(17.78,54.,-17.895));
#859=CARTESIAN_POINT('',(17.78,53.5,-17.895));
#860=CARTESIAN_POINT('',(17.78,54.,-17.895));
#861=CARTESIAN_POINT('',(-1.68898985706469E-15,53.5,-17.895));
#862=CARTESIAN_POINT('Origin',(17.78,54.,-41.295));
#863=CARTESIAN_POINT('',(17.78,53.5,-41.295));
#864=CARTESIAN_POINT('',(17.78,54.,-41.295));
#865=CARTESIAN_POINT('',(17.78,53.5,-17.895));
#866=CARTESIAN_POINT('Origin',(3.79979164405614,54.,-41.295));
#867=CARTESIAN_POINT('',(-1.68898985706469E-15,53.5,-41.295));
#868=CARTESIAN_POINT('Origin',(2.84,54.,-41.275));
#869=CARTESIAN_POINT('Origin',(2.84,53.5,-41.275));
#870=CARTESIAN_POINT('Origin',(-1.68898985706469E-15,54.,-41.295));
#871=CARTESIAN_POINT('',(-1.66533453693773E-15,53.5,-41.295));
#872=CARTESIAN_POINT('',(0.,53.,-41.295));
#873=CARTESIAN_POINT('',(-1.68898985706469E-15,53.5,-41.295));
#874=CARTESIAN_POINT('Origin',(1.90021279004233,54.,-17.895));
#875=CARTESIAN_POINT('',(-1.66533453693773E-15,53.5,-17.895));
#876=CARTESIAN_POINT('',(-1.68898985706469E-15,53.5,-17.895));
#877=CARTESIAN_POINT('',(0.,53.,-17.895));
#878=CARTESIAN_POINT('Origin',(1.89,53.5,-17.915));
#879=CARTESIAN_POINT('',(0.,53.5,-35.5575));
#880=CARTESIAN_POINT('Origin',(0.,52.,-53.2));
#881=CARTESIAN_POINT('',(0.,52.,-44.2));
#882=CARTESIAN_POINT('',(0.,52.,-44.2));
#883=CARTESIAN_POINT('',(0.,52.,-9.));
#884=CARTESIAN_POINT('',(0.,52.,0.));
#885=CARTESIAN_POINT('',(0.,52.,-9.));
#886=CARTESIAN_POINT('Origin',(9.,52.,-44.2));
#887=CARTESIAN_POINT('',(9.,52.,-53.2));
#888=CARTESIAN_POINT('',(9.,52.,-53.2));
#889=CARTESIAN_POINT('Origin',(9.,52.,-44.2));
#890=CARTESIAN_POINT('Origin',(36.875,52.,-26.6));
#891=CARTESIAN_POINT('',(64.75,52.,-53.2));
#892=CARTESIAN_POINT('',(63.75,52.,-53.2));
#893=CARTESIAN_POINT('',(73.75,52.,-44.2));
#894=CARTESIAN_POINT('Origin',(64.75,52.,-44.2));
#895=CARTESIAN_POINT('',(73.75,52.,-9.));
#896=CARTESIAN_POINT('',(73.75,52.,-53.2));
#897=CARTESIAN_POINT('',(64.75,52.,0.));
#898=CARTESIAN_POINT('Origin',(64.75,52.,-9.));
#899=CARTESIAN_POINT('',(9.,52.,0.));
#900=CARTESIAN_POINT('',(63.75,52.,0.));
#901=CARTESIAN_POINT('Origin',(9.,52.,-9.));
#902=CARTESIAN_POINT('',(7.58999999999999,52.,-48.74));
#903=CARTESIAN_POINT('Origin',(9.08999999999999,52.,-48.74));
#904=CARTESIAN_POINT('',(55.43,52.,-48.74));
#905=CARTESIAN_POINT('Origin',(56.93,52.,-48.74));
#906=CARTESIAN_POINT('',(7.58999999999999,52.,-10.45));
#907=CARTESIAN_POINT('Origin',(9.08999999999999,52.,-10.45));
#908=CARTESIAN_POINT('',(55.43,52.,-10.45));
#909=CARTESIAN_POINT('Origin',(56.93,52.,-10.45));
#910=CARTESIAN_POINT('Origin',(9.,52.,-9.));
#911=CARTESIAN_POINT('',(9.,52.,0.));
#912=CARTESIAN_POINT('Origin',(0.,52.,0.));
#913=CARTESIAN_POINT('',(64.75,52.,0.));
#914=CARTESIAN_POINT('Origin',(64.75,52.,-44.2));
#915=CARTESIAN_POINT('',(73.75,52.,-44.2));
#916=CARTESIAN_POINT('',(64.75,52.,-53.2));
#917=CARTESIAN_POINT('Origin',(73.75,52.,-53.2));
#918=CARTESIAN_POINT('Origin',(64.75,52.,-9.));
#919=CARTESIAN_POINT('',(73.75,52.,-9.));
#920=CARTESIAN_POINT('Origin',(56.93,52.,-10.45));
#921=CARTESIAN_POINT('',(55.43,52.,-10.45));
#922=CARTESIAN_POINT('Origin',(9.08999999999999,52.,-10.45));
#923=CARTESIAN_POINT('',(7.58999999999999,52.,-10.45));
#924=CARTESIAN_POINT('Origin',(56.93,52.,-48.74));
#925=CARTESIAN_POINT('',(55.43,52.,-48.74));
#926=CARTESIAN_POINT('Origin',(9.08999999999999,52.,-48.74));
#927=CARTESIAN_POINT('',(7.58999999999999,52.,-48.74));
#928=CARTESIAN_POINT('Origin',(73.75,52.,0.));
#929=UNCERTAINTY_MEASURE_WITH_UNIT(LENGTH_MEASURE(0.01),#933,
'DISTANCE_ACCURACY_VALUE',
'Maximum model space distance between geometric entities at asserted c
onnectivities');
#930=UNCERTAINTY_MEASURE_WITH_UNIT(LENGTH_MEASURE(0.01),#933,
'DISTANCE_ACCURACY_VALUE',
'Maximum model space distance between geometric entities at asserted c
onnectivities');
#931=(
GEOMETRIC_REPRESENTATION_CONTEXT(3)
GLOBAL_UNCERTAINTY_ASSIGNED_CONTEXT((#929))
GLOBAL_UNIT_ASSIGNED_CONTEXT((#933,#935,#936))
REPRESENTATION_CONTEXT('','3D')
);
#932=(
GEOMETRIC_REPRESENTATION_CONTEXT(3)
GLOBAL_UNCERTAINTY_ASSIGNED_CONTEXT((#930))
GLOBAL_UNIT_ASSIGNED_CONTEXT((#933,#935,#936))
REPRESENTATION_CONTEXT('','3D')
);
#933=(
LENGTH_UNIT()
NAMED_UNIT(*)
SI_UNIT(.MILLI.,.METRE.)
);
#934=(
LENGTH_UNIT()
NAMED_UNIT(*)
SI_UNIT($,.METRE.)
);
#935=(
NAMED_UNIT(*)
PLANE_ANGLE_UNIT()
SI_UNIT($,.RADIAN.)
);
#936=(
NAMED_UNIT(*)
SI_UNIT($,.STERADIAN.)
SOLID_ANGLE_UNIT()
);
#937=SHAPE_DEFINITION_REPRESENTATION(#938,#939);
#938=PRODUCT_DEFINITION_SHAPE('',$,#941);
#939=SHAPE_REPRESENTATION('',(#563),#931);
#940=PRODUCT_DEFINITION_CONTEXT('part definition',#945,'design');
#941=PRODUCT_DEFINITION('2 \X2\044D044204300436\X0\ \X2\0434043B044F\X0\ 
\X2\043C043E0442043E04400430\X0\','2 \X2\044D044204300436\X0\ \X2\0434043B044F\X0\ 
\X2\043C043E0442043E04400430\X0\ v24',#942,#940);
#942=PRODUCT_DEFINITION_FORMATION('',$,#947);
#943=PRODUCT_RELATED_PRODUCT_CATEGORY(
'2 \X2\044D044204300436\X0\ \X2\0434043B044F\X0\ \X2\043C043E0442043E04400430\X0\ 
v24','2 \X2\044D044204300436\X0\ \X2\0434043B044F\X0\ \X2\043C043E0442043E04400430\X0\ 
v24',(#947));
#944=APPLICATION_PROTOCOL_DEFINITION('international standard',
'automotive_design',2009,#945);
#945=APPLICATION_CONTEXT(
'Core Data for Automotive Mechanical Design Process');
#946=PRODUCT_CONTEXT('part definition',#945,'mechanical');
#947=PRODUCT('2 \X2\044D044204300436\X0\ \X2\0434043B044F\X0\ \X2\043C043E0442043E04400430\X0\',
'2 \X2\044D044204300436\X0\ \X2\0434043B044F\X0\ \X2\043C043E0442043E04400430\X0\ 
v24',$,(#946));
#948=PRESENTATION_STYLE_ASSIGNMENT((#949));
#949=SURFACE_STYLE_USAGE(.BOTH.,#950);
#950=SURFACE_SIDE_STYLE('',(#951));
#951=SURFACE_STYLE_FILL_AREA(#952);
#952=FILL_AREA_STYLE('Steel - Satin',(#953));
#953=FILL_AREA_STYLE_COLOUR('Steel - Satin',#954);
#954=COLOUR_RGB('Steel - Satin',0.627450980392157,0.627450980392157,0.627450980392157);
ENDSEC;
END-ISO-10303-21;
