ISO-10303-21;
HEADER;
/* Generated by software containing ST-Developer
 * from STEP Tools, Inc. (www.steptools.com) 
 */

FILE_DESCRIPTION(
/* description */ (''),
/* implementation_level */ '2;1');

FILE_NAME(
/* name */ '',
/* time_stamp */ '2025-02-22T19:23:05+10:00',
/* author */ (''),
/* organization */ (''),
/* preprocessor_version */ 'ST-DEVELOPER v20',
/* originating_system */ 'Autodesk Translation Framework v13.14.0.145',

/* authorisation */ '');

FILE_SCHEMA (('AUTOMOTIVE_DESIGN { 1 0 10303 214 3 1 1 }'));
ENDSEC;

DATA;
#10=MECHANICAL_DESIGN_GEOMETRIC_PRESENTATION_REPRESENTATION('',(#13),#1125);
#11=SHAPE_REPRESENTATION_RELATIONSHIP('SRR','None',#1132,#12);
#12=ADVANCED_BREP_SHAPE_REPRESENTATION('',(#14),#1124);
#13=STYLED_ITEM('',(#1141),#14);
#14=MANIFOLD_SOLID_BREP('\X2\043A04400435043F043B0435043D04380435\X0\ 
\X2\043104300440043E043C0435044204400430\X0\',#623);
#15=B_SPLINE_CURVE_WITH_KNOTS('',3,(#1017,#1018,#1019,#1020,#1021,#1022,
#1023,#1024,#1025,#1026,#1027,#1028,#1029,#1030,#1031),.UNSPECIFIED.,.F.,
 .F.,(4,2,2,3,2,2,4),(0.530141168434791,0.554932776544999,0.593043225769399,
0.6311536749938,0.6692641242182,0.707374573442601,0.732166181552807),
 .UNSPECIFIED.);
#16=B_SPLINE_CURVE_WITH_KNOTS('',3,(#1037,#1038,#1039,#1040,#1041,#1042,
#1043,#1044,#1045,#1046,#1047,#1048,#1049,#1050,#1051),.UNSPECIFIED.,.F.,
 .F.,(4,2,2,3,2,2,4),(0.53014115438167,0.554932770877619,0.593043220152867,
0.631153669428114,0.669264118703362,0.707374567978609,0.732166184474557),
 .UNSPECIFIED.);
#17=B_SPLINE_CURVE_WITH_KNOTS('',3,(#1063,#1064,#1065,#1066,#1067,#1068,
#1069,#1070),.UNSPECIFIED.,.F.,.F.,(4,2,2,4),(0.315576841264164,0.35368729041973,
0.391797739575297,0.416589336333333),.UNSPECIFIED.);
#18=B_SPLINE_CURVE_WITH_KNOTS('',3,(#1073,#1074,#1075,#1076,#1077,#1078,
#1079,#1080),.UNSPECIFIED.,.F.,.F.,(4,2,2,4),(0.214564334924716,0.239355940068494,
0.277466389274907,0.31557683848132),.UNSPECIFIED.);
#19=B_SPLINE_CURVE_WITH_KNOTS('',3,(#1081,#1082,#1083,#1084,#1085,#1086,
#1087,#1088),.UNSPECIFIED.,.F.,.F.,(4,2,2,4),(0.31557683848132,0.353687287687733,
0.391797736894147,0.416589342037924),.UNSPECIFIED.);
#20=B_SPLINE_CURVE_WITH_KNOTS('',3,(#1089,#1090,#1091,#1092,#1093,#1094,
#1095,#1096),.UNSPECIFIED.,.F.,.F.,(4,2,2,4),(0.214564346194996,0.239355942953032,
0.277466392108598,0.315576841264164),.UNSPECIFIED.);
#21=FACE_BOUND('',#72,.T.);
#22=FACE_BOUND('',#73,.T.);
#23=FACE_BOUND('',#84,.T.);
#24=FACE_BOUND('',#85,.T.);
#25=PLANE('',#640);
#26=PLANE('',#649);
#27=PLANE('',#655);
#28=PLANE('',#667);
#29=PLANE('',#668);
#30=PLANE('',#675);
#31=PLANE('',#677);
#32=PLANE('',#681);
#33=PLANE('',#687);
#34=PLANE('',#693);
#35=PLANE('',#695);
#36=PLANE('',#696);
#37=PLANE('',#697);
#38=PLANE('',#699);
#39=FACE_OUTER_BOUND('',#69,.T.);
#40=FACE_OUTER_BOUND('',#70,.T.);
#41=FACE_OUTER_BOUND('',#71,.T.);
#42=FACE_OUTER_BOUND('',#74,.T.);
#43=FACE_OUTER_BOUND('',#75,.T.);
#44=FACE_OUTER_BOUND('',#76,.T.);
#45=FACE_OUTER_BOUND('',#77,.T.);
#46=FACE_OUTER_BOUND('',#78,.T.);
#47=FACE_OUTER_BOUND('',#79,.T.);
#48=FACE_OUTER_BOUND('',#80,.T.);
#49=FACE_OUTER_BOUND('',#81,.T.);
#50=FACE_OUTER_BOUND('',#82,.T.);
#51=FACE_OUTER_BOUND('',#83,.T.);
#52=FACE_OUTER_BOUND('',#86,.T.);
#53=FACE_OUTER_BOUND('',#87,.T.);
#54=FACE_OUTER_BOUND('',#88,.T.);
#55=FACE_OUTER_BOUND('',#89,.T.);
#56=FACE_OUTER_BOUND('',#90,.T.);
#57=FACE_OUTER_BOUND('',#91,.T.);
#58=FACE_OUTER_BOUND('',#92,.T.);
#59=FACE_OUTER_BOUND('',#93,.T.);
#60=FACE_OUTER_BOUND('',#94,.T.);
#61=FACE_OUTER_BOUND('',#95,.T.);
#62=FACE_OUTER_BOUND('',#96,.T.);
#63=FACE_OUTER_BOUND('',#97,.T.);
#64=FACE_OUTER_BOUND('',#98,.T.);
#65=FACE_OUTER_BOUND('',#99,.T.);
#66=FACE_OUTER_BOUND('',#100,.T.);
#67=FACE_OUTER_BOUND('',#101,.T.);
#68=FACE_OUTER_BOUND('',#102,.T.);
#69=EDGE_LOOP('',(#393,#394,#395,#396));
#70=EDGE_LOOP('',(#397,#398,#399,#400,#401,#402,#403,#404,#405,#406,#407,
#408,#409,#410,#411,#412,#413,#414));
#71=EDGE_LOOP('',(#415,#416,#417,#418,#419,#420));
#72=EDGE_LOOP('',(#421));
#73=EDGE_LOOP('',(#422));
#74=EDGE_LOOP('',(#423,#424,#425,#426));
#75=EDGE_LOOP('',(#427,#428,#429,#430,#431,#432,#433,#434,#435,#436,#437,
#438,#439,#440,#441,#442,#443,#444));
#76=EDGE_LOOP('',(#445,#446,#447,#448));
#77=EDGE_LOOP('',(#449,#450,#451,#452));
#78=EDGE_LOOP('',(#453,#454,#455,#456,#457,#458,#459,#460));
#79=EDGE_LOOP('',(#461,#462,#463,#464));
#80=EDGE_LOOP('',(#465,#466,#467,#468));
#81=EDGE_LOOP('',(#469,#470,#471,#472));
#82=EDGE_LOOP('',(#473,#474,#475,#476));
#83=EDGE_LOOP('',(#477,#478,#479,#480,#481,#482));
#84=EDGE_LOOP('',(#483));
#85=EDGE_LOOP('',(#484));
#86=EDGE_LOOP('',(#485,#486,#487,#488,#489,#490,#491,#492));
#87=EDGE_LOOP('',(#493,#494,#495,#496,#497,#498,#499,#500,#501,#502));
#88=EDGE_LOOP('',(#503,#504,#505,#506,#507,#508,#509,#510,#511,#512));
#89=EDGE_LOOP('',(#513,#514,#515,#516));
#90=EDGE_LOOP('',(#517,#518,#519,#520,#521,#522));
#91=EDGE_LOOP('',(#523,#524,#525,#526,#527,#528));
#92=EDGE_LOOP('',(#529,#530,#531,#532,#533,#534));
#93=EDGE_LOOP('',(#535,#536,#537,#538,#539,#540));
#94=EDGE_LOOP('',(#541,#542,#543,#544));
#95=EDGE_LOOP('',(#545,#546,#547,#548));
#96=EDGE_LOOP('',(#549,#550,#551,#552));
#97=EDGE_LOOP('',(#553,#554,#555,#556));
#98=EDGE_LOOP('',(#557,#558,#559,#560));
#99=EDGE_LOOP('',(#561,#562,#563,#564));
#100=EDGE_LOOP('',(#565,#566,#567,#568));
#101=EDGE_LOOP('',(#569,#570,#571,#572));
#102=EDGE_LOOP('',(#573,#574,#575,#576));
#103=LINE('',#889,#155);
#104=LINE('',#892,#156);
#105=LINE('',#895,#157);
#106=LINE('',#899,#158);
#107=LINE('',#903,#159);
#108=LINE('',#907,#160);
#109=LINE('',#911,#161);
#110=LINE('',#913,#162);
#111=LINE('',#917,#163);
#112=LINE('',#921,#164);
#113=LINE('',#925,#165);
#114=LINE('',#929,#166);
#115=LINE('',#933,#167);
#116=LINE('',#934,#168);
#117=LINE('',#941,#169);
#118=LINE('',#944,#170);
#119=LINE('',#949,#171);
#120=LINE('',#953,#172);
#121=LINE('',#957,#173);
#122=LINE('',#961,#174);
#123=LINE('',#963,#175);
#124=LINE('',#967,#176);
#125=LINE('',#971,#177);
#126=LINE('',#975,#178);
#127=LINE('',#981,#179);
#128=LINE('',#985,#180);
#129=LINE('',#987,#181);
#130=LINE('',#988,#182);
#131=LINE('',#991,#183);
#132=LINE('',#995,#184);
#133=LINE('',#998,#185);
#134=LINE('',#1003,#186);
#135=LINE('',#1005,#187);
#136=LINE('',#1007,#188);
#137=LINE('',#1008,#189);
#138=LINE('',#1032,#190);
#139=LINE('',#1033,#191);
#140=LINE('',#1035,#192);
#141=LINE('',#1052,#193);
#142=LINE('',#1060,#194);
#143=LINE('',#1071,#195);
#144=LINE('',#1098,#196);
#145=LINE('',#1100,#197);
#146=LINE('',#1102,#198);
#147=LINE('',#1104,#199);
#148=LINE('',#1106,#200);
#149=LINE('',#1108,#201);
#150=LINE('',#1110,#202);
#151=LINE('',#1112,#203);
#152=LINE('',#1116,#204);
#153=LINE('',#1118,#205);
#154=LINE('',#1120,#206);
#155=VECTOR('',#707,10.);
#156=VECTOR('',#710,10.);
#157=VECTOR('',#713,10.);
#158=VECTOR('',#716,10.);
#159=VECTOR('',#719,10.);
#160=VECTOR('',#722,10.);
#161=VECTOR('',#725,10.);
#162=VECTOR('',#726,10.);
#163=VECTOR('',#729,10.);
#164=VECTOR('',#732,10.);
#165=VECTOR('',#735,10.);
#166=VECTOR('',#740,10.);
#167=VECTOR('',#743,10.);
#168=VECTOR('',#744,10.);
#169=VECTOR('',#751,10.);
#170=VECTOR('',#754,10.);
#171=VECTOR('',#759,10.);
#172=VECTOR('',#762,10.);
#173=VECTOR('',#765,10.);
#174=VECTOR('',#768,10.);
#175=VECTOR('',#769,10.);
#176=VECTOR('',#772,10.);
#177=VECTOR('',#775,10.);
#178=VECTOR('',#778,10.);
#179=VECTOR('',#785,10.);
#180=VECTOR('',#790,10.);
#181=VECTOR('',#791,10.);
#182=VECTOR('',#792,10.);
#183=VECTOR('',#795,10.);
#184=VECTOR('',#798,10.);
#185=VECTOR('',#801,10.);
#186=VECTOR('',#810,10.);
#187=VECTOR('',#813,10.);
#188=VECTOR('',#816,10.);
#189=VECTOR('',#817,10.);
#190=VECTOR('',#826,10.);
#191=VECTOR('',#827,10.);
#192=VECTOR('',#828,10.);
#193=VECTOR('',#829,10.);
#194=VECTOR('',#840,10.);
#195=VECTOR('',#843,10.);
#196=VECTOR('',#846,10.);
#197=VECTOR('',#849,1.00000000000001);
#198=VECTOR('',#852,1.);
#199=VECTOR('',#855,1.00000000000001);
#200=VECTOR('',#858,1.);
#201=VECTOR('',#861,10.);
#202=VECTOR('',#864,10.);
#203=VECTOR('',#867,10.);
#204=VECTOR('',#874,10.);
#205=VECTOR('',#877,10.);
#206=VECTOR('',#880,10.);
#207=CIRCLE('',#638,3.);
#208=CIRCLE('',#639,3.);
#209=CIRCLE('',#641,2.);
#210=CIRCLE('',#642,8.99999999999998);
#211=CIRCLE('',#643,8.99999999999999);
#212=CIRCLE('',#644,2.);
#213=CIRCLE('',#645,2.);
#214=CIRCLE('',#646,11.0000000298023);
#215=CIRCLE('',#647,11.000000079736);
#216=CIRCLE('',#648,2.);
#217=CIRCLE('',#650,3.);
#218=CIRCLE('',#651,1.00000000000001);
#219=CIRCLE('',#652,1.00000000000001);
#220=CIRCLE('',#654,3.);
#221=CIRCLE('',#656,2.);
#222=CIRCLE('',#657,11.000000079736);
#223=CIRCLE('',#658,11.0000000298023);
#224=CIRCLE('',#659,2.);
#225=CIRCLE('',#660,2.);
#226=CIRCLE('',#661,8.99999999999999);
#227=CIRCLE('',#662,8.99999999999998);
#228=CIRCLE('',#663,2.);
#229=CIRCLE('',#665,3.);
#230=CIRCLE('',#666,3.);
#231=CIRCLE('',#669,1.);
#232=CIRCLE('',#670,1.);
#233=CIRCLE('',#671,3.);
#234=CIRCLE('',#673,3.);
#235=CIRCLE('',#678,1.);
#236=CIRCLE('',#679,1.);
#237=CIRCLE('',#682,1.00000000000001);
#238=CIRCLE('',#683,1.00000000000001);
#239=CIRCLE('',#684,1.00000000000001);
#240=CIRCLE('',#685,1.00000000000001);
#241=VERTEX_POINT('',#885);
#242=VERTEX_POINT('',#886);
#243=VERTEX_POINT('',#888);
#244=VERTEX_POINT('',#890);
#245=VERTEX_POINT('',#894);
#246=VERTEX_POINT('',#896);
#247=VERTEX_POINT('',#898);
#248=VERTEX_POINT('',#900);
#249=VERTEX_POINT('',#902);
#250=VERTEX_POINT('',#904);
#251=VERTEX_POINT('',#906);
#252=VERTEX_POINT('',#908);
#253=VERTEX_POINT('',#910);
#254=VERTEX_POINT('',#912);
#255=VERTEX_POINT('',#914);
#256=VERTEX_POINT('',#916);
#257=VERTEX_POINT('',#918);
#258=VERTEX_POINT('',#920);
#259=VERTEX_POINT('',#922);
#260=VERTEX_POINT('',#924);
#261=VERTEX_POINT('',#928);
#262=VERTEX_POINT('',#930);
#263=VERTEX_POINT('',#932);
#264=VERTEX_POINT('',#935);
#265=VERTEX_POINT('',#937);
#266=VERTEX_POINT('',#940);
#267=VERTEX_POINT('',#942);
#268=VERTEX_POINT('',#946);
#269=VERTEX_POINT('',#948);
#270=VERTEX_POINT('',#950);
#271=VERTEX_POINT('',#952);
#272=VERTEX_POINT('',#954);
#273=VERTEX_POINT('',#956);
#274=VERTEX_POINT('',#958);
#275=VERTEX_POINT('',#960);
#276=VERTEX_POINT('',#962);
#277=VERTEX_POINT('',#964);
#278=VERTEX_POINT('',#966);
#279=VERTEX_POINT('',#968);
#280=VERTEX_POINT('',#970);
#281=VERTEX_POINT('',#972);
#282=VERTEX_POINT('',#974);
#283=VERTEX_POINT('',#978);
#284=VERTEX_POINT('',#980);
#285=VERTEX_POINT('',#984);
#286=VERTEX_POINT('',#986);
#287=VERTEX_POINT('',#990);
#288=VERTEX_POINT('',#992);
#289=VERTEX_POINT('',#994);
#290=VERTEX_POINT('',#996);
#291=VERTEX_POINT('',#1010);
#292=VERTEX_POINT('',#1012);
#293=VERTEX_POINT('',#1015);
#294=VERTEX_POINT('',#1016);
#295=VERTEX_POINT('',#1034);
#296=VERTEX_POINT('',#1036);
#297=VERTEX_POINT('',#1054);
#298=VERTEX_POINT('',#1057);
#299=VERTEX_POINT('',#1062);
#300=VERTEX_POINT('',#1072);
#301=EDGE_CURVE('',#241,#242,#207,.T.);
#302=EDGE_CURVE('',#242,#243,#103,.T.);
#303=EDGE_CURVE('',#243,#244,#208,.T.);
#304=EDGE_CURVE('',#244,#241,#104,.T.);
#305=EDGE_CURVE('',#242,#245,#105,.T.);
#306=EDGE_CURVE('',#246,#245,#209,.T.);
#307=EDGE_CURVE('',#246,#247,#106,.T.);
#308=EDGE_CURVE('',#247,#248,#210,.T.);
#309=EDGE_CURVE('',#248,#249,#107,.T.);
#310=EDGE_CURVE('',#249,#250,#211,.T.);
#311=EDGE_CURVE('',#250,#251,#108,.T.);
#312=EDGE_CURVE('',#252,#251,#212,.T.);
#313=EDGE_CURVE('',#252,#253,#109,.T.);
#314=EDGE_CURVE('',#254,#253,#110,.T.);
#315=EDGE_CURVE('',#255,#254,#213,.T.);
#316=EDGE_CURVE('',#255,#256,#111,.T.);
#317=EDGE_CURVE('',#256,#257,#214,.T.);
#318=EDGE_CURVE('',#257,#258,#112,.T.);
#319=EDGE_CURVE('',#258,#259,#215,.T.);
#320=EDGE_CURVE('',#259,#260,#113,.T.);
#321=EDGE_CURVE('',#243,#260,#216,.T.);
#322=EDGE_CURVE('',#261,#241,#114,.T.);
#323=EDGE_CURVE('',#262,#261,#217,.T.);
#324=EDGE_CURVE('',#262,#263,#115,.T.);
#325=EDGE_CURVE('',#263,#245,#116,.T.);
#326=EDGE_CURVE('',#264,#264,#218,.T.);
#327=EDGE_CURVE('',#265,#265,#219,.T.);
#328=EDGE_CURVE('',#261,#266,#117,.T.);
#329=EDGE_CURVE('',#266,#267,#220,.T.);
#330=EDGE_CURVE('',#267,#262,#118,.T.);
#331=EDGE_CURVE('',#268,#267,#221,.T.);
#332=EDGE_CURVE('',#269,#268,#119,.T.);
#333=EDGE_CURVE('',#270,#269,#222,.T.);
#334=EDGE_CURVE('',#271,#270,#120,.T.);
#335=EDGE_CURVE('',#272,#271,#223,.T.);
#336=EDGE_CURVE('',#273,#272,#121,.T.);
#337=EDGE_CURVE('',#274,#273,#224,.T.);
#338=EDGE_CURVE('',#275,#274,#122,.T.);
#339=EDGE_CURVE('',#276,#275,#123,.T.);
#340=EDGE_CURVE('',#277,#276,#225,.T.);
#341=EDGE_CURVE('',#278,#277,#124,.T.);
#342=EDGE_CURVE('',#279,#278,#226,.T.);
#343=EDGE_CURVE('',#280,#279,#125,.T.);
#344=EDGE_CURVE('',#281,#280,#227,.T.);
#345=EDGE_CURVE('',#282,#281,#126,.T.);
#346=EDGE_CURVE('',#263,#282,#228,.T.);
#347=EDGE_CURVE('',#274,#283,#229,.T.);
#348=EDGE_CURVE('',#283,#284,#127,.T.);
#349=EDGE_CURVE('',#284,#275,#230,.T.);
#350=EDGE_CURVE('',#283,#285,#128,.T.);
#351=EDGE_CURVE('',#286,#285,#129,.T.);
#352=EDGE_CURVE('',#284,#286,#130,.T.);
#353=EDGE_CURVE('',#287,#274,#131,.T.);
#354=EDGE_CURVE('',#287,#288,#231,.T.);
#355=EDGE_CURVE('',#289,#288,#132,.T.);
#356=EDGE_CURVE('',#289,#290,#232,.T.);
#357=EDGE_CURVE('',#254,#290,#133,.T.);
#358=EDGE_CURVE('',#285,#254,#233,.T.);
#359=EDGE_CURVE('',#253,#286,#234,.T.);
#360=EDGE_CURVE('',#282,#246,#134,.T.);
#361=EDGE_CURVE('',#281,#247,#135,.T.);
#362=EDGE_CURVE('',#251,#277,#136,.T.);
#363=EDGE_CURVE('',#276,#252,#137,.T.);
#364=EDGE_CURVE('',#291,#291,#235,.T.);
#365=EDGE_CURVE('',#292,#292,#236,.T.);
#366=EDGE_CURVE('',#293,#294,#15,.F.);
#367=EDGE_CURVE('',#293,#243,#138,.T.);
#368=EDGE_CURVE('',#260,#268,#139,.T.);
#369=EDGE_CURVE('',#267,#295,#140,.T.);
#370=EDGE_CURVE('',#296,#295,#16,.F.);
#371=EDGE_CURVE('',#296,#294,#141,.T.);
#372=EDGE_CURVE('',#293,#297,#237,.T.);
#373=EDGE_CURVE('',#297,#294,#238,.T.);
#374=EDGE_CURVE('',#296,#298,#239,.T.);
#375=EDGE_CURVE('',#298,#295,#240,.T.);
#376=EDGE_CURVE('',#266,#244,#142,.T.);
#377=EDGE_CURVE('',#287,#299,#17,.F.);
#378=EDGE_CURVE('',#273,#255,#143,.T.);
#379=EDGE_CURVE('',#300,#290,#18,.F.);
#380=EDGE_CURVE('',#289,#300,#19,.F.);
#381=EDGE_CURVE('',#299,#288,#20,.F.);
#382=EDGE_CURVE('',#272,#256,#144,.T.);
#383=EDGE_CURVE('',#298,#264,#145,.T.);
#384=EDGE_CURVE('',#299,#292,#146,.T.);
#385=EDGE_CURVE('',#297,#265,#147,.T.);
#386=EDGE_CURVE('',#300,#291,#148,.T.);
#387=EDGE_CURVE('',#271,#257,#149,.T.);
#388=EDGE_CURVE('',#270,#258,#150,.T.);
#389=EDGE_CURVE('',#269,#259,#151,.T.);
#390=EDGE_CURVE('',#278,#250,#152,.T.);
#391=EDGE_CURVE('',#279,#249,#153,.T.);
#392=EDGE_CURVE('',#280,#248,#154,.T.);
#393=ORIENTED_EDGE('',*,*,#301,.T.);
#394=ORIENTED_EDGE('',*,*,#302,.T.);
#395=ORIENTED_EDGE('',*,*,#303,.T.);
#396=ORIENTED_EDGE('',*,*,#304,.T.);
#397=ORIENTED_EDGE('',*,*,#302,.F.);
#398=ORIENTED_EDGE('',*,*,#305,.T.);
#399=ORIENTED_EDGE('',*,*,#306,.F.);
#400=ORIENTED_EDGE('',*,*,#307,.T.);
#401=ORIENTED_EDGE('',*,*,#308,.T.);
#402=ORIENTED_EDGE('',*,*,#309,.T.);
#403=ORIENTED_EDGE('',*,*,#310,.T.);
#404=ORIENTED_EDGE('',*,*,#311,.T.);
#405=ORIENTED_EDGE('',*,*,#312,.F.);
#406=ORIENTED_EDGE('',*,*,#313,.T.);
#407=ORIENTED_EDGE('',*,*,#314,.F.);
#408=ORIENTED_EDGE('',*,*,#315,.F.);
#409=ORIENTED_EDGE('',*,*,#316,.T.);
#410=ORIENTED_EDGE('',*,*,#317,.T.);
#411=ORIENTED_EDGE('',*,*,#318,.T.);
#412=ORIENTED_EDGE('',*,*,#319,.T.);
#413=ORIENTED_EDGE('',*,*,#320,.T.);
#414=ORIENTED_EDGE('',*,*,#321,.F.);
#415=ORIENTED_EDGE('',*,*,#301,.F.);
#416=ORIENTED_EDGE('',*,*,#322,.F.);
#417=ORIENTED_EDGE('',*,*,#323,.F.);
#418=ORIENTED_EDGE('',*,*,#324,.T.);
#419=ORIENTED_EDGE('',*,*,#325,.T.);
#420=ORIENTED_EDGE('',*,*,#305,.F.);
#421=ORIENTED_EDGE('',*,*,#326,.T.);
#422=ORIENTED_EDGE('',*,*,#327,.T.);
#423=ORIENTED_EDGE('',*,*,#323,.T.);
#424=ORIENTED_EDGE('',*,*,#328,.T.);
#425=ORIENTED_EDGE('',*,*,#329,.T.);
#426=ORIENTED_EDGE('',*,*,#330,.T.);
#427=ORIENTED_EDGE('',*,*,#330,.F.);
#428=ORIENTED_EDGE('',*,*,#331,.F.);
#429=ORIENTED_EDGE('',*,*,#332,.F.);
#430=ORIENTED_EDGE('',*,*,#333,.F.);
#431=ORIENTED_EDGE('',*,*,#334,.F.);
#432=ORIENTED_EDGE('',*,*,#335,.F.);
#433=ORIENTED_EDGE('',*,*,#336,.F.);
#434=ORIENTED_EDGE('',*,*,#337,.F.);
#435=ORIENTED_EDGE('',*,*,#338,.F.);
#436=ORIENTED_EDGE('',*,*,#339,.F.);
#437=ORIENTED_EDGE('',*,*,#340,.F.);
#438=ORIENTED_EDGE('',*,*,#341,.F.);
#439=ORIENTED_EDGE('',*,*,#342,.F.);
#440=ORIENTED_EDGE('',*,*,#343,.F.);
#441=ORIENTED_EDGE('',*,*,#344,.F.);
#442=ORIENTED_EDGE('',*,*,#345,.F.);
#443=ORIENTED_EDGE('',*,*,#346,.F.);
#444=ORIENTED_EDGE('',*,*,#324,.F.);
#445=ORIENTED_EDGE('',*,*,#347,.T.);
#446=ORIENTED_EDGE('',*,*,#348,.T.);
#447=ORIENTED_EDGE('',*,*,#349,.T.);
#448=ORIENTED_EDGE('',*,*,#338,.T.);
#449=ORIENTED_EDGE('',*,*,#348,.F.);
#450=ORIENTED_EDGE('',*,*,#350,.T.);
#451=ORIENTED_EDGE('',*,*,#351,.F.);
#452=ORIENTED_EDGE('',*,*,#352,.F.);
#453=ORIENTED_EDGE('',*,*,#347,.F.);
#454=ORIENTED_EDGE('',*,*,#353,.F.);
#455=ORIENTED_EDGE('',*,*,#354,.T.);
#456=ORIENTED_EDGE('',*,*,#355,.F.);
#457=ORIENTED_EDGE('',*,*,#356,.T.);
#458=ORIENTED_EDGE('',*,*,#357,.F.);
#459=ORIENTED_EDGE('',*,*,#358,.F.);
#460=ORIENTED_EDGE('',*,*,#350,.F.);
#461=ORIENTED_EDGE('',*,*,#358,.T.);
#462=ORIENTED_EDGE('',*,*,#314,.T.);
#463=ORIENTED_EDGE('',*,*,#359,.T.);
#464=ORIENTED_EDGE('',*,*,#351,.T.);
#465=ORIENTED_EDGE('',*,*,#306,.T.);
#466=ORIENTED_EDGE('',*,*,#325,.F.);
#467=ORIENTED_EDGE('',*,*,#346,.T.);
#468=ORIENTED_EDGE('',*,*,#360,.T.);
#469=ORIENTED_EDGE('',*,*,#360,.F.);
#470=ORIENTED_EDGE('',*,*,#345,.T.);
#471=ORIENTED_EDGE('',*,*,#361,.T.);
#472=ORIENTED_EDGE('',*,*,#307,.F.);
#473=ORIENTED_EDGE('',*,*,#312,.T.);
#474=ORIENTED_EDGE('',*,*,#362,.T.);
#475=ORIENTED_EDGE('',*,*,#340,.T.);
#476=ORIENTED_EDGE('',*,*,#363,.T.);
#477=ORIENTED_EDGE('',*,*,#349,.F.);
#478=ORIENTED_EDGE('',*,*,#352,.T.);
#479=ORIENTED_EDGE('',*,*,#359,.F.);
#480=ORIENTED_EDGE('',*,*,#313,.F.);
#481=ORIENTED_EDGE('',*,*,#363,.F.);
#482=ORIENTED_EDGE('',*,*,#339,.T.);
#483=ORIENTED_EDGE('',*,*,#364,.T.);
#484=ORIENTED_EDGE('',*,*,#365,.T.);
#485=ORIENTED_EDGE('',*,*,#366,.F.);
#486=ORIENTED_EDGE('',*,*,#367,.T.);
#487=ORIENTED_EDGE('',*,*,#321,.T.);
#488=ORIENTED_EDGE('',*,*,#368,.T.);
#489=ORIENTED_EDGE('',*,*,#331,.T.);
#490=ORIENTED_EDGE('',*,*,#369,.T.);
#491=ORIENTED_EDGE('',*,*,#370,.F.);
#492=ORIENTED_EDGE('',*,*,#371,.T.);
#493=ORIENTED_EDGE('',*,*,#303,.F.);
#494=ORIENTED_EDGE('',*,*,#367,.F.);
#495=ORIENTED_EDGE('',*,*,#372,.T.);
#496=ORIENTED_EDGE('',*,*,#373,.T.);
#497=ORIENTED_EDGE('',*,*,#371,.F.);
#498=ORIENTED_EDGE('',*,*,#374,.T.);
#499=ORIENTED_EDGE('',*,*,#375,.T.);
#500=ORIENTED_EDGE('',*,*,#369,.F.);
#501=ORIENTED_EDGE('',*,*,#329,.F.);
#502=ORIENTED_EDGE('',*,*,#376,.T.);
#503=ORIENTED_EDGE('',*,*,#377,.F.);
#504=ORIENTED_EDGE('',*,*,#353,.T.);
#505=ORIENTED_EDGE('',*,*,#337,.T.);
#506=ORIENTED_EDGE('',*,*,#378,.T.);
#507=ORIENTED_EDGE('',*,*,#315,.T.);
#508=ORIENTED_EDGE('',*,*,#357,.T.);
#509=ORIENTED_EDGE('',*,*,#379,.F.);
#510=ORIENTED_EDGE('',*,*,#380,.F.);
#511=ORIENTED_EDGE('',*,*,#355,.T.);
#512=ORIENTED_EDGE('',*,*,#381,.F.);
#513=ORIENTED_EDGE('',*,*,#378,.F.);
#514=ORIENTED_EDGE('',*,*,#336,.T.);
#515=ORIENTED_EDGE('',*,*,#382,.T.);
#516=ORIENTED_EDGE('',*,*,#316,.F.);
#517=ORIENTED_EDGE('',*,*,#374,.F.);
#518=ORIENTED_EDGE('',*,*,#370,.T.);
#519=ORIENTED_EDGE('',*,*,#375,.F.);
#520=ORIENTED_EDGE('',*,*,#383,.T.);
#521=ORIENTED_EDGE('',*,*,#326,.F.);
#522=ORIENTED_EDGE('',*,*,#383,.F.);
#523=ORIENTED_EDGE('',*,*,#354,.F.);
#524=ORIENTED_EDGE('',*,*,#377,.T.);
#525=ORIENTED_EDGE('',*,*,#384,.T.);
#526=ORIENTED_EDGE('',*,*,#365,.F.);
#527=ORIENTED_EDGE('',*,*,#384,.F.);
#528=ORIENTED_EDGE('',*,*,#381,.T.);
#529=ORIENTED_EDGE('',*,*,#372,.F.);
#530=ORIENTED_EDGE('',*,*,#366,.T.);
#531=ORIENTED_EDGE('',*,*,#373,.F.);
#532=ORIENTED_EDGE('',*,*,#385,.T.);
#533=ORIENTED_EDGE('',*,*,#327,.F.);
#534=ORIENTED_EDGE('',*,*,#385,.F.);
#535=ORIENTED_EDGE('',*,*,#380,.T.);
#536=ORIENTED_EDGE('',*,*,#386,.T.);
#537=ORIENTED_EDGE('',*,*,#364,.F.);
#538=ORIENTED_EDGE('',*,*,#386,.F.);
#539=ORIENTED_EDGE('',*,*,#379,.T.);
#540=ORIENTED_EDGE('',*,*,#356,.F.);
#541=ORIENTED_EDGE('',*,*,#335,.T.);
#542=ORIENTED_EDGE('',*,*,#387,.T.);
#543=ORIENTED_EDGE('',*,*,#317,.F.);
#544=ORIENTED_EDGE('',*,*,#382,.F.);
#545=ORIENTED_EDGE('',*,*,#334,.T.);
#546=ORIENTED_EDGE('',*,*,#388,.T.);
#547=ORIENTED_EDGE('',*,*,#318,.F.);
#548=ORIENTED_EDGE('',*,*,#387,.F.);
#549=ORIENTED_EDGE('',*,*,#333,.T.);
#550=ORIENTED_EDGE('',*,*,#389,.T.);
#551=ORIENTED_EDGE('',*,*,#319,.F.);
#552=ORIENTED_EDGE('',*,*,#388,.F.);
#553=ORIENTED_EDGE('',*,*,#368,.F.);
#554=ORIENTED_EDGE('',*,*,#320,.F.);
#555=ORIENTED_EDGE('',*,*,#389,.F.);
#556=ORIENTED_EDGE('',*,*,#332,.T.);
#557=ORIENTED_EDGE('',*,*,#304,.F.);
#558=ORIENTED_EDGE('',*,*,#376,.F.);
#559=ORIENTED_EDGE('',*,*,#328,.F.);
#560=ORIENTED_EDGE('',*,*,#322,.T.);
#561=ORIENTED_EDGE('',*,*,#362,.F.);
#562=ORIENTED_EDGE('',*,*,#311,.F.);
#563=ORIENTED_EDGE('',*,*,#390,.F.);
#564=ORIENTED_EDGE('',*,*,#341,.T.);
#565=ORIENTED_EDGE('',*,*,#342,.T.);
#566=ORIENTED_EDGE('',*,*,#390,.T.);
#567=ORIENTED_EDGE('',*,*,#310,.F.);
#568=ORIENTED_EDGE('',*,*,#391,.F.);
#569=ORIENTED_EDGE('',*,*,#343,.T.);
#570=ORIENTED_EDGE('',*,*,#391,.T.);
#571=ORIENTED_EDGE('',*,*,#309,.F.);
#572=ORIENTED_EDGE('',*,*,#392,.F.);
#573=ORIENTED_EDGE('',*,*,#344,.T.);
#574=ORIENTED_EDGE('',*,*,#392,.T.);
#575=ORIENTED_EDGE('',*,*,#308,.F.);
#576=ORIENTED_EDGE('',*,*,#361,.F.);
#577=CYLINDRICAL_SURFACE('',#637,3.);
#578=CYLINDRICAL_SURFACE('',#653,3.);
#579=CYLINDRICAL_SURFACE('',#664,3.);
#580=CYLINDRICAL_SURFACE('',#672,3.);
#581=CYLINDRICAL_SURFACE('',#674,2.);
#582=CYLINDRICAL_SURFACE('',#676,2.);
#583=CYLINDRICAL_SURFACE('',#680,2.);
#584=CYLINDRICAL_SURFACE('',#686,2.);
#585=CYLINDRICAL_SURFACE('',#688,1.00000000000001);
#586=CYLINDRICAL_SURFACE('',#689,1.);
#587=CYLINDRICAL_SURFACE('',#690,1.00000000000001);
#588=CYLINDRICAL_SURFACE('',#691,1.);
#589=CYLINDRICAL_SURFACE('',#692,11.0000000298023);
#590=CYLINDRICAL_SURFACE('',#694,11.000000079736);
#591=CYLINDRICAL_SURFACE('',#698,8.99999999999999);
#592=CYLINDRICAL_SURFACE('',#700,8.99999999999998);
#593=ADVANCED_FACE('',(#39),#577,.T.);
#594=ADVANCED_FACE('',(#40),#25,.F.);
#595=ADVANCED_FACE('',(#41,#21,#22),#26,.T.);
#596=ADVANCED_FACE('',(#42),#578,.T.);
#597=ADVANCED_FACE('',(#43),#27,.T.);
#598=ADVANCED_FACE('',(#44),#579,.T.);
#599=ADVANCED_FACE('',(#45),#28,.T.);
#600=ADVANCED_FACE('',(#46),#29,.T.);
#601=ADVANCED_FACE('',(#47),#580,.T.);
#602=ADVANCED_FACE('',(#48),#581,.T.);
#603=ADVANCED_FACE('',(#49),#30,.T.);
#604=ADVANCED_FACE('',(#50),#582,.T.);
#605=ADVANCED_FACE('',(#51,#23,#24),#31,.T.);
#606=ADVANCED_FACE('',(#52),#583,.F.);
#607=ADVANCED_FACE('',(#53),#32,.T.);
#608=ADVANCED_FACE('',(#54),#584,.F.);
#609=ADVANCED_FACE('',(#55),#33,.T.);
#610=ADVANCED_FACE('',(#56),#585,.F.);
#611=ADVANCED_FACE('',(#57),#586,.F.);
#612=ADVANCED_FACE('',(#58),#587,.F.);
#613=ADVANCED_FACE('',(#59),#588,.F.);
#614=ADVANCED_FACE('',(#60),#589,.T.);
#615=ADVANCED_FACE('',(#61),#34,.T.);
#616=ADVANCED_FACE('',(#62),#590,.T.);
#617=ADVANCED_FACE('',(#63),#35,.T.);
#618=ADVANCED_FACE('',(#64),#36,.T.);
#619=ADVANCED_FACE('',(#65),#37,.T.);
#620=ADVANCED_FACE('',(#66),#591,.F.);
#621=ADVANCED_FACE('',(#67),#38,.T.);
#622=ADVANCED_FACE('',(#68),#592,.F.);
#623=CLOSED_SHELL('',(#593,#594,#595,#596,#597,#598,#599,#600,#601,#602,
#603,#604,#605,#606,#607,#608,#609,#610,#611,#612,#613,#614,#615,#616,#617,
#618,#619,#620,#621,#622));
#624=DERIVED_UNIT_ELEMENT(#626,1.);
#625=DERIVED_UNIT_ELEMENT(#1127,-3.);
#626=(
MASS_UNIT()
NAMED_UNIT(*)
SI_UNIT(.KILO.,.GRAM.)
);
#627=DERIVED_UNIT((#624,#625));
#628=MEASURE_REPRESENTATION_ITEM('density measure',
POSITIVE_RATIO_MEASURE(7850.),#627);
#629=PROPERTY_DEFINITION_REPRESENTATION(#634,#631);
#630=PROPERTY_DEFINITION_REPRESENTATION(#635,#632);
#631=REPRESENTATION('material name',(#633),#1124);
#632=REPRESENTATION('density',(#628),#1124);
#633=DESCRIPTIVE_REPRESENTATION_ITEM('Steel','Steel');
#634=PROPERTY_DEFINITION('material property','material name',#1134);
#635=PROPERTY_DEFINITION('material property','density of part',#1134);
#636=AXIS2_PLACEMENT_3D('',#883,#701,#702);
#637=AXIS2_PLACEMENT_3D('',#884,#703,#704);
#638=AXIS2_PLACEMENT_3D('',#887,#705,#706);
#639=AXIS2_PLACEMENT_3D('',#891,#708,#709);
#640=AXIS2_PLACEMENT_3D('',#893,#711,#712);
#641=AXIS2_PLACEMENT_3D('',#897,#714,#715);
#642=AXIS2_PLACEMENT_3D('',#901,#717,#718);
#643=AXIS2_PLACEMENT_3D('',#905,#720,#721);
#644=AXIS2_PLACEMENT_3D('',#909,#723,#724);
#645=AXIS2_PLACEMENT_3D('',#915,#727,#728);
#646=AXIS2_PLACEMENT_3D('',#919,#730,#731);
#647=AXIS2_PLACEMENT_3D('',#923,#733,#734);
#648=AXIS2_PLACEMENT_3D('',#926,#736,#737);
#649=AXIS2_PLACEMENT_3D('',#927,#738,#739);
#650=AXIS2_PLACEMENT_3D('',#931,#741,#742);
#651=AXIS2_PLACEMENT_3D('',#936,#745,#746);
#652=AXIS2_PLACEMENT_3D('',#938,#747,#748);
#653=AXIS2_PLACEMENT_3D('',#939,#749,#750);
#654=AXIS2_PLACEMENT_3D('',#943,#752,#753);
#655=AXIS2_PLACEMENT_3D('',#945,#755,#756);
#656=AXIS2_PLACEMENT_3D('',#947,#757,#758);
#657=AXIS2_PLACEMENT_3D('',#951,#760,#761);
#658=AXIS2_PLACEMENT_3D('',#955,#763,#764);
#659=AXIS2_PLACEMENT_3D('',#959,#766,#767);
#660=AXIS2_PLACEMENT_3D('',#965,#770,#771);
#661=AXIS2_PLACEMENT_3D('',#969,#773,#774);
#662=AXIS2_PLACEMENT_3D('',#973,#776,#777);
#663=AXIS2_PLACEMENT_3D('',#976,#779,#780);
#664=AXIS2_PLACEMENT_3D('',#977,#781,#782);
#665=AXIS2_PLACEMENT_3D('',#979,#783,#784);
#666=AXIS2_PLACEMENT_3D('',#982,#786,#787);
#667=AXIS2_PLACEMENT_3D('',#983,#788,#789);
#668=AXIS2_PLACEMENT_3D('',#989,#793,#794);
#669=AXIS2_PLACEMENT_3D('',#993,#796,#797);
#670=AXIS2_PLACEMENT_3D('',#997,#799,#800);
#671=AXIS2_PLACEMENT_3D('',#999,#802,#803);
#672=AXIS2_PLACEMENT_3D('',#1000,#804,#805);
#673=AXIS2_PLACEMENT_3D('',#1001,#806,#807);
#674=AXIS2_PLACEMENT_3D('',#1002,#808,#809);
#675=AXIS2_PLACEMENT_3D('',#1004,#811,#812);
#676=AXIS2_PLACEMENT_3D('',#1006,#814,#815);
#677=AXIS2_PLACEMENT_3D('',#1009,#818,#819);
#678=AXIS2_PLACEMENT_3D('',#1011,#820,#821);
#679=AXIS2_PLACEMENT_3D('',#1013,#822,#823);
#680=AXIS2_PLACEMENT_3D('',#1014,#824,#825);
#681=AXIS2_PLACEMENT_3D('',#1053,#830,#831);
#682=AXIS2_PLACEMENT_3D('',#1055,#832,#833);
#683=AXIS2_PLACEMENT_3D('',#1056,#834,#835);
#684=AXIS2_PLACEMENT_3D('',#1058,#836,#837);
#685=AXIS2_PLACEMENT_3D('',#1059,#838,#839);
#686=AXIS2_PLACEMENT_3D('',#1061,#841,#842);
#687=AXIS2_PLACEMENT_3D('',#1097,#844,#845);
#688=AXIS2_PLACEMENT_3D('',#1099,#847,#848);
#689=AXIS2_PLACEMENT_3D('',#1101,#850,#851);
#690=AXIS2_PLACEMENT_3D('',#1103,#853,#854);
#691=AXIS2_PLACEMENT_3D('',#1105,#856,#857);
#692=AXIS2_PLACEMENT_3D('',#1107,#859,#860);
#693=AXIS2_PLACEMENT_3D('',#1109,#862,#863);
#694=AXIS2_PLACEMENT_3D('',#1111,#865,#866);
#695=AXIS2_PLACEMENT_3D('',#1113,#868,#869);
#696=AXIS2_PLACEMENT_3D('',#1114,#870,#871);
#697=AXIS2_PLACEMENT_3D('',#1115,#872,#873);
#698=AXIS2_PLACEMENT_3D('',#1117,#875,#876);
#699=AXIS2_PLACEMENT_3D('',#1119,#878,#879);
#700=AXIS2_PLACEMENT_3D('',#1121,#881,#882);
#701=DIRECTION('axis',(0.,0.,1.));
#702=DIRECTION('refdir',(1.,0.,0.));
#703=DIRECTION('center_axis',(0.,-1.,0.));
#704=DIRECTION('ref_axis',(0.707106781186545,0.,-0.70710678118655));
#705=DIRECTION('center_axis',(0.,1.,0.));
#706=DIRECTION('ref_axis',(0.707106781186545,0.,-0.70710678118655));
#707=DIRECTION('',(0.,1.,0.));
#708=DIRECTION('center_axis',(0.,-1.,0.));
#709=DIRECTION('ref_axis',(0.707106781186545,0.,-0.70710678118655));
#710=DIRECTION('',(0.,-1.,0.));
#711=DIRECTION('center_axis',(0.,0.,1.));
#712=DIRECTION('ref_axis',(1.,0.,0.));
#713=DIRECTION('',(-1.,0.,0.));
#714=DIRECTION('center_axis',(0.,0.,1.));
#715=DIRECTION('ref_axis',(-0.707106777348859,-0.707106785024237,0.));
#716=DIRECTION('',(-5.9209913399702E-9,1.,0.));
#717=DIRECTION('center_axis',(0.,0.,1.));
#718=DIRECTION('ref_axis',(1.,5.92098913109063E-9,0.));
#719=DIRECTION('',(-1.,0.,0.));
#720=DIRECTION('center_axis',(0.,0.,1.));
#721=DIRECTION('ref_axis',(1.48029736616688E-15,1.,0.));
#722=DIRECTION('',(0.,-1.,0.));
#723=DIRECTION('center_axis',(0.,0.,1.));
#724=DIRECTION('ref_axis',(0.707106781186546,-0.707106781186549,0.));
#725=DIRECTION('',(-1.,0.,0.));
#726=DIRECTION('',(0.,-1.,0.));
#727=DIRECTION('center_axis',(0.,0.,-1.));
#728=DIRECTION('ref_axis',(0.707106781186549,-0.707106781186546,0.));
#729=DIRECTION('',(0.,1.,0.));
#730=DIRECTION('center_axis',(0.,0.,-1.));
#731=DIRECTION('ref_axis',(1.61486984962506E-15,1.,0.));
#732=DIRECTION('',(1.,0.,0.));
#733=DIRECTION('center_axis',(0.,0.,-1.));
#734=DIRECTION('ref_axis',(1.,5.92098971617593E-9,0.));
#735=DIRECTION('',(0.,-1.,0.));
#736=DIRECTION('center_axis',(0.,0.,-1.));
#737=DIRECTION('ref_axis',(-0.707106781186548,-0.707106781186548,0.));
#738=DIRECTION('center_axis',(0.,-1.,0.));
#739=DIRECTION('ref_axis',(-1.,0.,0.));
#740=DIRECTION('',(0.,0.,-1.));
#741=DIRECTION('center_axis',(0.,1.,0.));
#742=DIRECTION('ref_axis',(0.707106781186548,0.,0.707106781186547));
#743=DIRECTION('',(-1.,0.,0.));
#744=DIRECTION('',(0.,0.,-1.));
#745=DIRECTION('center_axis',(0.,1.,0.));
#746=DIRECTION('ref_axis',(-1.,0.,0.));
#747=DIRECTION('center_axis',(0.,1.,0.));
#748=DIRECTION('ref_axis',(-1.,0.,0.));
#749=DIRECTION('center_axis',(0.,-1.,0.));
#750=DIRECTION('ref_axis',(0.707106781186548,0.,0.707106781186547));
#751=DIRECTION('',(0.,1.,0.));
#752=DIRECTION('center_axis',(0.,-1.,0.));
#753=DIRECTION('ref_axis',(0.707106781186548,0.,0.707106781186547));
#754=DIRECTION('',(0.,-1.,0.));
#755=DIRECTION('center_axis',(0.,0.,1.));
#756=DIRECTION('ref_axis',(1.,0.,0.));
#757=DIRECTION('center_axis',(0.,0.,1.));
#758=DIRECTION('ref_axis',(-0.707106781186548,-0.707106781186548,0.));
#759=DIRECTION('',(0.,-1.,0.));
#760=DIRECTION('center_axis',(0.,0.,-1.));
#761=DIRECTION('ref_axis',(1.,5.92098971617593E-9,0.));
#762=DIRECTION('',(1.,0.,0.));
#763=DIRECTION('center_axis',(0.,0.,-1.));
#764=DIRECTION('ref_axis',(1.61486984962506E-15,1.,0.));
#765=DIRECTION('',(0.,1.,0.));
#766=DIRECTION('center_axis',(0.,0.,1.));
#767=DIRECTION('ref_axis',(0.707106781186549,-0.707106781186546,0.));
#768=DIRECTION('',(0.,1.,0.));
#769=DIRECTION('',(-1.,0.,0.));
#770=DIRECTION('center_axis',(0.,0.,-1.));
#771=DIRECTION('ref_axis',(0.707106781186546,-0.707106781186549,0.));
#772=DIRECTION('',(0.,-1.,0.));
#773=DIRECTION('center_axis',(0.,0.,1.));
#774=DIRECTION('ref_axis',(1.48029736616688E-15,1.,0.));
#775=DIRECTION('',(-1.,0.,0.));
#776=DIRECTION('center_axis',(0.,0.,1.));
#777=DIRECTION('ref_axis',(1.,5.92098913109063E-9,0.));
#778=DIRECTION('',(-5.9209913399702E-9,1.,0.));
#779=DIRECTION('center_axis',(0.,0.,-1.));
#780=DIRECTION('ref_axis',(-0.707106777348859,-0.707106785024237,0.));
#781=DIRECTION('center_axis',(0.,1.,0.));
#782=DIRECTION('ref_axis',(-0.707106781186547,0.,0.707106781186548));
#783=DIRECTION('center_axis',(0.,-1.,0.));
#784=DIRECTION('ref_axis',(-0.707106781186547,0.,0.707106781186548));
#785=DIRECTION('',(0.,-1.,0.));
#786=DIRECTION('center_axis',(0.,1.,0.));
#787=DIRECTION('ref_axis',(-0.707106781186547,0.,0.707106781186548));
#788=DIRECTION('center_axis',(-1.,0.,0.));
#789=DIRECTION('ref_axis',(0.,1.,0.));
#790=DIRECTION('',(0.,0.,-1.));
#791=DIRECTION('',(0.,1.,0.));
#792=DIRECTION('',(0.,0.,-1.));
#793=DIRECTION('center_axis',(0.,1.,0.));
#794=DIRECTION('ref_axis',(1.,0.,0.));
#795=DIRECTION('',(0.,0.,1.));
#796=DIRECTION('center_axis',(0.,-1.,0.));
#797=DIRECTION('ref_axis',(-1.,0.,0.));
#798=DIRECTION('',(0.,0.,1.));
#799=DIRECTION('center_axis',(0.,-1.,0.));
#800=DIRECTION('ref_axis',(-1.,0.,0.));
#801=DIRECTION('',(0.,0.,1.));
#802=DIRECTION('center_axis',(0.,-1.,0.));
#803=DIRECTION('ref_axis',(-0.707106781186546,0.,-0.707106781186549));
#804=DIRECTION('center_axis',(0.,1.,0.));
#805=DIRECTION('ref_axis',(-0.707106781186546,0.,-0.707106781186549));
#806=DIRECTION('center_axis',(0.,1.,0.));
#807=DIRECTION('ref_axis',(-0.707106781186546,0.,-0.707106781186549));
#808=DIRECTION('center_axis',(0.,0.,-1.));
#809=DIRECTION('ref_axis',(-0.707106777348859,-0.707106785024237,0.));
#810=DIRECTION('',(0.,0.,-1.));
#811=DIRECTION('center_axis',(-1.,-5.9209913399702E-9,0.));
#812=DIRECTION('ref_axis',(-5.9209913399702E-9,1.,0.));
#813=DIRECTION('',(0.,0.,-1.));
#814=DIRECTION('center_axis',(0.,0.,-1.));
#815=DIRECTION('ref_axis',(0.707106781186546,-0.707106781186549,0.));
#816=DIRECTION('',(0.,0.,1.));
#817=DIRECTION('',(0.,0.,-1.));
#818=DIRECTION('center_axis',(0.,-1.,0.));
#819=DIRECTION('ref_axis',(-1.,0.,0.));
#820=DIRECTION('center_axis',(0.,1.,0.));
#821=DIRECTION('ref_axis',(-1.,0.,0.));
#822=DIRECTION('center_axis',(0.,1.,0.));
#823=DIRECTION('ref_axis',(-1.,0.,0.));
#824=DIRECTION('center_axis',(0.,0.,-1.));
#825=DIRECTION('ref_axis',(-0.707106781186548,-0.707106781186548,0.));
#826=DIRECTION('',(0.,0.,-1.));
#827=DIRECTION('',(0.,0.,1.));
#828=DIRECTION('',(0.,0.,-1.));
#829=DIRECTION('',(0.,0.,-1.));
#830=DIRECTION('center_axis',(0.,1.,0.));
#831=DIRECTION('ref_axis',(1.,0.,0.));
#832=DIRECTION('center_axis',(0.,-1.,0.));
#833=DIRECTION('ref_axis',(-1.,0.,0.));
#834=DIRECTION('center_axis',(0.,-1.,0.));
#835=DIRECTION('ref_axis',(-1.,0.,0.));
#836=DIRECTION('center_axis',(0.,-1.,0.));
#837=DIRECTION('ref_axis',(-1.,0.,0.));
#838=DIRECTION('center_axis',(0.,-1.,0.));
#839=DIRECTION('ref_axis',(-1.,0.,0.));
#840=DIRECTION('',(0.,0.,-1.));
#841=DIRECTION('center_axis',(0.,0.,-1.));
#842=DIRECTION('ref_axis',(0.707106781186549,-0.707106781186546,0.));
#843=DIRECTION('',(0.,0.,-1.));
#844=DIRECTION('center_axis',(-1.,0.,0.));
#845=DIRECTION('ref_axis',(0.,1.,0.));
#846=DIRECTION('',(0.,0.,-1.));
#847=DIRECTION('center_axis',(0.,-1.,0.));
#848=DIRECTION('ref_axis',(-1.,0.,0.));
#849=DIRECTION('',(0.,-1.,0.));
#850=DIRECTION('center_axis',(0.,-1.,0.));
#851=DIRECTION('ref_axis',(-1.,0.,0.));
#852=DIRECTION('',(0.,-1.,0.));
#853=DIRECTION('center_axis',(0.,-1.,0.));
#854=DIRECTION('ref_axis',(-1.,0.,0.));
#855=DIRECTION('',(0.,-1.,0.));
#856=DIRECTION('center_axis',(0.,-1.,0.));
#857=DIRECTION('ref_axis',(-1.,0.,0.));
#858=DIRECTION('',(0.,-1.,0.));
#859=DIRECTION('center_axis',(0.,0.,-1.));
#860=DIRECTION('ref_axis',(1.61486984962506E-15,1.,0.));
#861=DIRECTION('',(0.,0.,-1.));
#862=DIRECTION('center_axis',(0.,1.,0.));
#863=DIRECTION('ref_axis',(1.,0.,0.));
#864=DIRECTION('',(0.,0.,-1.));
#865=DIRECTION('center_axis',(0.,0.,-1.));
#866=DIRECTION('ref_axis',(1.,5.92098971617593E-9,0.));
#867=DIRECTION('',(0.,0.,-1.));
#868=DIRECTION('center_axis',(1.,0.,0.));
#869=DIRECTION('ref_axis',(0.,-1.,0.));
#870=DIRECTION('center_axis',(1.,0.,0.));
#871=DIRECTION('ref_axis',(0.,-1.,0.));
#872=DIRECTION('center_axis',(1.,0.,0.));
#873=DIRECTION('ref_axis',(0.,-1.,0.));
#874=DIRECTION('',(0.,0.,-1.));
#875=DIRECTION('center_axis',(0.,0.,-1.));
#876=DIRECTION('ref_axis',(1.48029736616688E-15,1.,0.));
#877=DIRECTION('',(0.,0.,-1.));
#878=DIRECTION('center_axis',(0.,-1.,0.));
#879=DIRECTION('ref_axis',(-1.,0.,0.));
#880=DIRECTION('',(0.,0.,-1.));
#881=DIRECTION('center_axis',(0.,0.,-1.));
#882=DIRECTION('ref_axis',(1.,5.92098913109063E-9,0.));
#883=CARTESIAN_POINT('',(0.,0.,0.));
#884=CARTESIAN_POINT('Origin',(68.0000009834766,63.1500008163299,-25.));
#885=CARTESIAN_POINT('',(71.0000009834766,56.6500008046627,-25.));
#886=CARTESIAN_POINT('',(68.0000009834766,56.6500008046627,-28.));
#887=CARTESIAN_POINT('Origin',(68.0000009834766,56.6500008046627,-25.));
#888=CARTESIAN_POINT('',(68.0000009525888,58.6500007930627,-28.));
#889=CARTESIAN_POINT('',(68.0000009834766,63.1500008163299,-28.));
#890=CARTESIAN_POINT('',(71.0000009834766,58.6500007930627,-25.));
#891=CARTESIAN_POINT('Origin',(68.0000009834766,58.6500007930627,-25.));
#892=CARTESIAN_POINT('',(71.0000009834766,63.1500008163299,-25.));
#893=CARTESIAN_POINT('Origin',(45.0000006332994,67.6500008395971,-28.));
#894=CARTESIAN_POINT('',(66.0000009525888,56.6500008046627,-28.));
#895=CARTESIAN_POINT('',(66.0000009525888,56.6500008046627,-28.));
#896=CARTESIAN_POINT('',(64.0000009261417,58.6500007928207,-28.));
#897=CARTESIAN_POINT('Origin',(66.0000009261417,58.6500008046627,-28.));
#898=CARTESIAN_POINT('',(64.0000008728528,67.6500008579516,-28.));
#899=CARTESIAN_POINT('',(64.0000009379837,56.6500007947954,-28.));
#900=CARTESIAN_POINT('',(55.0000008728528,76.6500008046627,-28.));
#901=CARTESIAN_POINT('Origin',(55.0000008728528,67.6500008046627,-28.));
#902=CARTESIAN_POINT('',(35.0000005215406,76.6500008046627,-28.));
#903=CARTESIAN_POINT('',(35.0000005215406,76.6500008046627,-28.));
#904=CARTESIAN_POINT('',(26.0000005215406,67.6500008046627,-28.));
#905=CARTESIAN_POINT('Origin',(35.0000005215406,67.6500008046627,-28.));
#906=CARTESIAN_POINT('',(26.0000005215406,58.6500008046627,-28.));
#907=CARTESIAN_POINT('',(26.0000005215406,67.6500008046627,-28.));
#908=CARTESIAN_POINT('',(24.0000005215406,56.6500008046627,-28.));
#909=CARTESIAN_POINT('Origin',(24.0000005215406,58.6500008046627,-28.));
#910=CARTESIAN_POINT('',(22.0000002831221,56.6500008046627,-28.));
#911=CARTESIAN_POINT('',(24.0000004917383,56.6500008046627,-28.));
#912=CARTESIAN_POINT('',(22.0000004917383,58.6500008046627,-28.));
#913=CARTESIAN_POINT('',(22.0000002831221,62.1500008221299,-28.));
#914=CARTESIAN_POINT('',(24.0000004917383,60.6500008046627,-28.));
#915=CARTESIAN_POINT('Origin',(22.0000004917383,60.6500008046627,-28.));
#916=CARTESIAN_POINT('',(24.0000004917383,67.6500008046627,-28.));
#917=CARTESIAN_POINT('',(24.0000004917383,67.6500008046627,-28.));
#918=CARTESIAN_POINT('',(35.0000005215406,78.650000834465,-28.));
#919=CARTESIAN_POINT('Origin',(35.0000005215406,67.6500008046627,-28.));
#920=CARTESIAN_POINT('',(55.0000008728528,78.6500008843987,-28.));
#921=CARTESIAN_POINT('',(35.0000005215406,78.650000834465,-28.));
#922=CARTESIAN_POINT('',(66.0000009525888,67.6500008697936,-28.));
#923=CARTESIAN_POINT('Origin',(55.0000008728528,67.6500008046627,-28.));
#924=CARTESIAN_POINT('',(66.0000009525888,60.6500007930627,-28.));
#925=CARTESIAN_POINT('',(66.0000009525888,56.6500008046627,-28.));
#926=CARTESIAN_POINT('Origin',(68.0000009525888,60.6500007930627,-28.));
#927=CARTESIAN_POINT('Origin',(71.0000009834766,56.6500008046627,0.));
#928=CARTESIAN_POINT('',(71.0000009834766,56.6500008046627,-12.));
#929=CARTESIAN_POINT('',(71.0000009834766,56.6500008046627,0.));
#930=CARTESIAN_POINT('',(68.0000009834766,56.6500008046627,-9.));
#931=CARTESIAN_POINT('Origin',(68.0000009834766,56.6500008046627,-12.));
#932=CARTESIAN_POINT('',(66.0000009525888,56.6500008046627,-9.));
#933=CARTESIAN_POINT('',(58.000000808388,56.6500008046627,-9.));
#934=CARTESIAN_POINT('',(66.0000009525888,56.6500008046627,0.));
#935=CARTESIAN_POINT('',(69.5000010207295,56.6500008046627,-11.9999999031425));
#936=CARTESIAN_POINT('Origin',(68.5000010207295,56.6500008046627,-11.9999999031425));
#937=CARTESIAN_POINT('',(69.5000010969791,56.6500008046627,-25.0000000968576));
#938=CARTESIAN_POINT('Origin',(68.5000010969791,56.6500008046627,-25.0000000968576));
#939=CARTESIAN_POINT('Origin',(68.0000009834766,63.1500008163299,-12.));
#940=CARTESIAN_POINT('',(71.0000009834766,58.6500007930627,-12.));
#941=CARTESIAN_POINT('',(71.0000009834766,63.1500008163299,-12.));
#942=CARTESIAN_POINT('',(68.0000009525888,58.6500007930627,-9.));
#943=CARTESIAN_POINT('Origin',(68.0000009834766,58.6500007930627,-12.));
#944=CARTESIAN_POINT('',(68.0000009834766,63.1500008163299,-9.));
#945=CARTESIAN_POINT('Origin',(45.0000006332994,67.6500008395971,-9.));
#946=CARTESIAN_POINT('',(66.0000009525888,60.6500007930627,-9.));
#947=CARTESIAN_POINT('Origin',(68.0000009525888,60.6500007930627,-9.));
#948=CARTESIAN_POINT('',(66.0000009525888,67.6500008697936,-9.));
#949=CARTESIAN_POINT('',(66.0000009525888,67.6500008546953,-9.));
#950=CARTESIAN_POINT('',(55.0000008728528,78.6500008843987,-9.));
#951=CARTESIAN_POINT('Origin',(55.0000008728528,67.6500008046627,-9.));
#952=CARTESIAN_POINT('',(35.0000005215406,78.650000834465,-9.));
#953=CARTESIAN_POINT('',(40.00000057742,78.650000834465,-9.));
#954=CARTESIAN_POINT('',(24.0000004917383,67.6500008046627,-9.));
#955=CARTESIAN_POINT('Origin',(35.0000005215406,67.6500008046627,-9.));
#956=CARTESIAN_POINT('',(24.0000004917383,60.6500008046627,-9.));
#957=CARTESIAN_POINT('',(24.0000004917383,63.1500008221299,-9.));
#958=CARTESIAN_POINT('',(22.0000004917383,58.6500008046627,-9.));
#959=CARTESIAN_POINT('Origin',(22.0000004917383,60.6500008046627,-9.));
#960=CARTESIAN_POINT('',(22.0000002831221,56.6500008046627,-9.));
#961=CARTESIAN_POINT('',(22.0000002831221,62.1500008221299,-9.));
#962=CARTESIAN_POINT('',(24.0000005215406,56.6500008046627,-9.));
#963=CARTESIAN_POINT('',(35.50000057742,56.6500008046627,-9.));
#964=CARTESIAN_POINT('',(26.0000005215406,58.6500008046627,-9.));
#965=CARTESIAN_POINT('Origin',(24.0000005215406,58.6500008046627,-9.));
#966=CARTESIAN_POINT('',(26.0000005215406,67.6500008046627,-9.));
#967=CARTESIAN_POINT('',(26.0000005215406,67.6500008221299,-9.));
#968=CARTESIAN_POINT('',(35.0000005215406,76.6500008046627,-9.));
#969=CARTESIAN_POINT('Origin',(35.0000005215406,67.6500008046627,-9.));
#970=CARTESIAN_POINT('',(55.0000008728528,76.6500008046627,-9.));
#971=CARTESIAN_POINT('',(50.0000007264316,76.6500008046627,-9.));
#972=CARTESIAN_POINT('',(64.0000008728528,67.6500008579516,-9.));
#973=CARTESIAN_POINT('Origin',(55.0000008728528,67.6500008046627,-9.));
#974=CARTESIAN_POINT('',(64.0000009261417,58.6500007928207,-9.));
#975=CARTESIAN_POINT('',(64.0000009054182,62.1500008734457,-9.));
#976=CARTESIAN_POINT('Origin',(66.0000009261417,58.6500008046627,-9.));
#977=CARTESIAN_POINT('Origin',(22.0000002831221,62.1500008221299,-12.));
#978=CARTESIAN_POINT('',(19.0000002831221,58.6500008046627,-12.));
#979=CARTESIAN_POINT('Origin',(22.0000002831221,58.6500008046627,-12.));
#980=CARTESIAN_POINT('',(19.0000002831221,56.6500008046627,-12.));
#981=CARTESIAN_POINT('',(19.0000002831221,62.1500008221299,-12.));
#982=CARTESIAN_POINT('Origin',(22.0000002831221,56.6500008046627,-12.));
#983=CARTESIAN_POINT('Origin',(19.0000002831221,56.6500008046627,0.));
#984=CARTESIAN_POINT('',(19.0000002831221,58.6500008046627,-25.));
#985=CARTESIAN_POINT('',(19.0000002831221,58.6500008046627,0.));
#986=CARTESIAN_POINT('',(19.0000002831221,56.6500008046627,-25.));
#987=CARTESIAN_POINT('',(19.0000002831221,62.1500008221299,-25.));
#988=CARTESIAN_POINT('',(19.0000002831221,56.6500008046627,0.));
#989=CARTESIAN_POINT('Origin',(19.0000002831221,58.6500008046627,0.));
#990=CARTESIAN_POINT('',(22.0000004917383,58.6500008046627,-11.1339749179889));
#991=CARTESIAN_POINT('',(22.0000004917383,58.6500008046627,0.));
#992=CARTESIAN_POINT('',(22.0000004917383,58.6500008046627,-12.8660254396389));
#993=CARTESIAN_POINT('Origin',(21.5000002441254,58.6500008046627,-12.0000001788139));
#994=CARTESIAN_POINT('',(22.0000004917383,58.6500008046627,-24.1339750676813));
#995=CARTESIAN_POINT('',(22.0000004917383,58.6500008046627,0.));
#996=CARTESIAN_POINT('',(22.0000004917383,58.6500008046627,-25.8660256773768));
#997=CARTESIAN_POINT('Origin',(21.500000320375,58.6500008046627,-25.000000372529));
#998=CARTESIAN_POINT('',(22.0000004917383,58.6500008046627,0.));
#999=CARTESIAN_POINT('Origin',(22.0000002831221,58.6500008046627,-25.));
#1000=CARTESIAN_POINT('Origin',(22.0000002831221,62.1500008221299,-25.));
#1001=CARTESIAN_POINT('Origin',(22.0000002831221,56.6500008046627,-25.));
#1002=CARTESIAN_POINT('Origin',(66.0000009261417,58.6500008046627,0.));
#1003=CARTESIAN_POINT('',(64.0000009261417,58.6500007928207,0.));
#1004=CARTESIAN_POINT('Origin',(64.0000009379837,56.6500007947954,0.));
#1005=CARTESIAN_POINT('',(64.0000008728528,67.6500008579516,0.));
#1006=CARTESIAN_POINT('Origin',(24.0000005215406,58.6500008046627,0.));
#1007=CARTESIAN_POINT('',(26.0000005215406,58.6500008046627,0.));
#1008=CARTESIAN_POINT('',(24.0000005215406,56.6500008046627,0.));
#1009=CARTESIAN_POINT('Origin',(26.0000005215406,56.6500008046627,0.));
#1010=CARTESIAN_POINT('',(22.500000320375,56.6500008046627,-25.000000372529));
#1011=CARTESIAN_POINT('Origin',(21.500000320375,56.6500008046627,-25.000000372529));
#1012=CARTESIAN_POINT('',(22.5000002441254,56.6500008046627,-12.0000001788139));
#1013=CARTESIAN_POINT('Origin',(21.5000002441254,56.6500008046627,-12.0000001788139));
#1014=CARTESIAN_POINT('Origin',(68.0000009525888,60.6500007930627,0.));
#1015=CARTESIAN_POINT('',(68.0000009525888,58.6500007930627,-25.8660254172782));
#1016=CARTESIAN_POINT('',(68.0000009525888,58.6500007930627,-24.1339747764369));
#1017=CARTESIAN_POINT('Ctrl Pts',(68.0000009525887,58.6500007930627,-24.1339747764369));
#1018=CARTESIAN_POINT('Ctrl Pts',(67.9247040258027,58.6500007930627,-24.1774474941248));
#1019=CARTESIAN_POINT('Ctrl Pts',(67.8559605099474,58.6543236832804,-24.2305813622));
#1020=CARTESIAN_POINT('Ctrl Pts',(67.7071677313248,58.6694806888312,-24.3775302004643));
#1021=CARTESIAN_POINT('Ctrl Pts',(67.6292498530743,58.6839509466846,-24.4902829996985));
#1022=CARTESIAN_POINT('Ctrl Pts',(67.5256528419295,58.7063438313841,-24.737960860088));
#1023=CARTESIAN_POINT('Ctrl Pts',(67.5000010969791,58.7135090826776,-24.8729652661096));
#1024=CARTESIAN_POINT('Ctrl Pts',(67.5000010969791,58.7135090826776,-25.0000000968576));
#1025=CARTESIAN_POINT('Ctrl Pts',(67.5000010969791,58.7135090826776,-25.1270349276056));
#1026=CARTESIAN_POINT('Ctrl Pts',(67.5256528419295,58.7063438313841,-25.2620393336271));
#1027=CARTESIAN_POINT('Ctrl Pts',(67.6292498530743,58.6839509466846,-25.5097171940166));
#1028=CARTESIAN_POINT('Ctrl Pts',(67.7071677313248,58.6694806888312,-25.6224699932508));
#1029=CARTESIAN_POINT('Ctrl Pts',(67.8559605099474,58.6543236832804,-25.7694188315152));
#1030=CARTESIAN_POINT('Ctrl Pts',(67.9247040258027,58.6500007930627,-25.8225526995903));
#1031=CARTESIAN_POINT('Ctrl Pts',(68.0000009525887,58.6500007930627,-25.8660254172782));
#1032=CARTESIAN_POINT('',(68.0000009525888,58.6500007930627,0.));
#1033=CARTESIAN_POINT('',(66.0000009525888,60.6500007930627,0.));
#1034=CARTESIAN_POINT('',(68.0000009525888,58.6500007930627,-11.1339745386991));
#1035=CARTESIAN_POINT('',(68.0000009525888,58.6500007930627,0.));
#1036=CARTESIAN_POINT('',(68.0000009525888,58.6500007930627,-12.8660252675858));
#1037=CARTESIAN_POINT('Ctrl Pts',(68.0000009525887,58.6500007930627,-11.1339745386991));
#1038=CARTESIAN_POINT('Ctrl Pts',(67.9247039959863,58.6500007930627,-11.1774472647621));
#1039=CARTESIAN_POINT('Ctrl Pts',(67.8559604534175,58.6543236867682,-11.2305811490095));
#1040=CARTESIAN_POINT('Ctrl Pts',(67.707167655134,58.669480700083,-11.3775300066911));
#1041=CARTESIAN_POINT('Ctrl Pts',(67.629249776921,58.6839509610328,-11.4902828058252));
#1042=CARTESIAN_POINT('Ctrl Pts',(67.5256527657433,58.7063438499647,-11.7379606661497));
#1043=CARTESIAN_POINT('Ctrl Pts',(67.5000010207295,58.7135091023651,-11.872965072225));
#1044=CARTESIAN_POINT('Ctrl Pts',(67.5000010207295,58.7135091023651,-11.9999999031425));
#1045=CARTESIAN_POINT('Ctrl Pts',(67.5000010207295,58.7135091023651,-12.12703473406));
#1046=CARTESIAN_POINT('Ctrl Pts',(67.5256527657433,58.7063438499647,-12.2620391401352));
#1047=CARTESIAN_POINT('Ctrl Pts',(67.629249776921,58.6839509610328,-12.5097170004597));
#1048=CARTESIAN_POINT('Ctrl Pts',(67.707167655134,58.669480700083,-12.6224697995938));
#1049=CARTESIAN_POINT('Ctrl Pts',(67.8559604534175,58.6543236867682,-12.7694186572754));
#1050=CARTESIAN_POINT('Ctrl Pts',(67.9247039959863,58.6500007930627,-12.8225525415228));
#1051=CARTESIAN_POINT('Ctrl Pts',(68.0000009525887,58.6500007930627,-12.8660252675858));
#1052=CARTESIAN_POINT('',(68.0000009525888,58.6500007930627,0.));
#1053=CARTESIAN_POINT('Origin',(66.0000009525888,58.6500007930627,0.));
#1054=CARTESIAN_POINT('',(69.5000010969791,58.6500007930627,-25.0000000968576));
#1055=CARTESIAN_POINT('Origin',(68.5000010969791,58.6500007930627,-25.0000000968576));
#1056=CARTESIAN_POINT('Origin',(68.5000010969791,58.6500007930627,-25.0000000968576));
#1057=CARTESIAN_POINT('',(69.5000010207295,58.6500007930627,-11.9999999031425));
#1058=CARTESIAN_POINT('Origin',(68.5000010207295,58.6500007930627,-11.9999999031425));
#1059=CARTESIAN_POINT('Origin',(68.5000010207295,58.6500007930627,-11.9999999031425));
#1060=CARTESIAN_POINT('',(71.0000009834766,58.6500007930627,0.));
#1061=CARTESIAN_POINT('Origin',(22.0000004917383,60.6500008046627,0.));
#1062=CARTESIAN_POINT('',(22.5000002441254,58.7135090676256,-12.0000001788139));
#1063=CARTESIAN_POINT('Ctrl Pts',(22.5000002441254,58.7135090676256,-12.0000001788139));
#1064=CARTESIAN_POINT('Ctrl Pts',(22.5000002441254,58.7135090676256,-11.8729653482954));
#1065=CARTESIAN_POINT('Ctrl Pts',(22.4743484992607,58.7063438178307,-11.7379609423466));
#1066=CARTESIAN_POINT('Ctrl Pts',(22.3707514881605,58.6839509388607,-11.4902830818691));
#1067=CARTESIAN_POINT('Ctrl Pts',(22.2928336098593,58.669480685199,-11.3775302824993));
#1068=CARTESIAN_POINT('Ctrl Pts',(22.1440408578526,58.6543236901588,-11.230581470521));
#1069=CARTESIAN_POINT('Ctrl Pts',(22.0752973781606,58.6500008046627,-11.177447624339));
#1070=CARTESIAN_POINT('Ctrl Pts',(22.0000004917384,58.6500008046627,-11.1339749179889));
#1071=CARTESIAN_POINT('',(24.0000004917383,60.6500008046627,0.));
#1072=CARTESIAN_POINT('',(22.500000320375,58.7135090873132,-25.000000372529));
#1073=CARTESIAN_POINT('Ctrl Pts',(22.0000004917384,58.6500008046627,-25.8660256773767));
#1074=CARTESIAN_POINT('Ctrl Pts',(22.075297407977,58.6500008046627,-25.8225529626516));
#1075=CARTESIAN_POINT('Ctrl Pts',(22.1440409143825,58.6543236936466,-25.7694191002973));
#1076=CARTESIAN_POINT('Ctrl Pts',(22.2928336860501,58.6694806964509,-25.6224702689018));
#1077=CARTESIAN_POINT('Ctrl Pts',(22.3707515643138,58.6839509532089,-25.5097174696321));
#1078=CARTESIAN_POINT('Ctrl Pts',(22.4743485754469,58.7063438364113,-25.2620396092196));
#1079=CARTESIAN_POINT('Ctrl Pts',(22.500000320375,58.7135090873132,-25.1270352032171));
#1080=CARTESIAN_POINT('Ctrl Pts',(22.500000320375,58.7135090873132,-25.000000372529));
#1081=CARTESIAN_POINT('Ctrl Pts',(22.500000320375,58.7135090873132,-25.000000372529));
#1082=CARTESIAN_POINT('Ctrl Pts',(22.500000320375,58.7135090873132,-24.872965541841));
#1083=CARTESIAN_POINT('Ctrl Pts',(22.4743485754469,58.7063438364113,-24.7379611358385));
#1084=CARTESIAN_POINT('Ctrl Pts',(22.3707515643138,58.6839509532089,-24.490283275426));
#1085=CARTESIAN_POINT('Ctrl Pts',(22.2928336860501,58.6694806964509,-24.3775304761563));
#1086=CARTESIAN_POINT('Ctrl Pts',(22.1440409143825,58.6543236936466,-24.2305816447608));
#1087=CARTESIAN_POINT('Ctrl Pts',(22.075297407977,58.6500008046627,-24.1774477824065));
#1088=CARTESIAN_POINT('Ctrl Pts',(22.0000004917384,58.6500008046627,-24.1339750676813));
#1089=CARTESIAN_POINT('Ctrl Pts',(22.0000004917384,58.6500008046627,-12.8660254396389));
#1090=CARTESIAN_POINT('Ctrl Pts',(22.0752973781606,58.6500008046627,-12.8225527332889));
#1091=CARTESIAN_POINT('Ctrl Pts',(22.1440408578526,58.6543236901588,-12.7694188871068));
#1092=CARTESIAN_POINT('Ctrl Pts',(22.2928336098593,58.669480685199,-12.6224700751286));
#1093=CARTESIAN_POINT('Ctrl Pts',(22.3707514881605,58.6839509388607,-12.5097172757588));
#1094=CARTESIAN_POINT('Ctrl Pts',(22.4743484992607,58.7063438178307,-12.2620394152813));
#1095=CARTESIAN_POINT('Ctrl Pts',(22.5000002441254,58.7135090676256,-12.1270350093325));
#1096=CARTESIAN_POINT('Ctrl Pts',(22.5000002441254,58.7135090676256,-12.0000001788139));
#1097=CARTESIAN_POINT('Origin',(24.0000004917383,58.6500008046627,0.));
#1098=CARTESIAN_POINT('',(24.0000004917383,67.6500008046627,0.));
#1099=CARTESIAN_POINT('Origin',(68.5000010207295,58.6500007930627,-11.9999999031425));
#1100=CARTESIAN_POINT('',(69.5000010207295,58.6500007930627,-11.9999999031425));
#1101=CARTESIAN_POINT('Origin',(21.5000002441254,58.6500007930627,-12.0000001788139));
#1102=CARTESIAN_POINT('',(22.5000002441254,58.6500007930627,-12.0000001788139));
#1103=CARTESIAN_POINT('Origin',(68.5000010969791,58.6500007930627,-25.0000000968576));
#1104=CARTESIAN_POINT('',(69.5000010969791,58.6500007930627,-25.0000000968576));
#1105=CARTESIAN_POINT('Origin',(21.500000320375,58.6500007930627,-25.000000372529));
#1106=CARTESIAN_POINT('',(22.500000320375,58.6500007930627,-25.000000372529));
#1107=CARTESIAN_POINT('Origin',(35.0000005215406,67.6500008046627,0.));
#1108=CARTESIAN_POINT('',(35.0000005215406,78.650000834465,0.));
#1109=CARTESIAN_POINT('Origin',(35.0000005215406,78.650000834465,0.));
#1110=CARTESIAN_POINT('',(55.0000008728528,78.6500008843987,0.));
#1111=CARTESIAN_POINT('Origin',(55.0000008728528,67.6500008046627,0.));
#1112=CARTESIAN_POINT('',(66.0000009525888,67.6500008697936,0.));
#1113=CARTESIAN_POINT('Origin',(66.0000009525888,67.6500008697936,0.));
#1114=CARTESIAN_POINT('Origin',(71.0000009834766,58.6500007930627,0.));
#1115=CARTESIAN_POINT('Origin',(26.0000005215406,67.6500008046627,0.));
#1116=CARTESIAN_POINT('',(26.0000005215406,67.6500008046627,0.));
#1117=CARTESIAN_POINT('Origin',(35.0000005215406,67.6500008046627,0.));
#1118=CARTESIAN_POINT('',(35.0000005215406,76.6500008046627,0.));
#1119=CARTESIAN_POINT('Origin',(55.0000008195639,76.6500008046627,0.));
#1120=CARTESIAN_POINT('',(55.0000008728528,76.6500008046627,0.));
#1121=CARTESIAN_POINT('Origin',(55.0000008728528,67.6500008046627,0.));
#1122=UNCERTAINTY_MEASURE_WITH_UNIT(LENGTH_MEASURE(0.01),#1126,
'DISTANCE_ACCURACY_VALUE',
'Maximum model space distance between geometric entities at asserted c
onnectivities');
#1123=UNCERTAINTY_MEASURE_WITH_UNIT(LENGTH_MEASURE(0.01),#1126,
'DISTANCE_ACCURACY_VALUE',
'Maximum model space distance between geometric entities at asserted c
onnectivities');
#1124=(
GEOMETRIC_REPRESENTATION_CONTEXT(3)
GLOBAL_UNCERTAINTY_ASSIGNED_CONTEXT((#1122))
GLOBAL_UNIT_ASSIGNED_CONTEXT((#1126,#1128,#1129))
REPRESENTATION_CONTEXT('','3D')
);
#1125=(
GEOMETRIC_REPRESENTATION_CONTEXT(3)
GLOBAL_UNCERTAINTY_ASSIGNED_CONTEXT((#1123))
GLOBAL_UNIT_ASSIGNED_CONTEXT((#1126,#1128,#1129))
REPRESENTATION_CONTEXT('','3D')
);
#1126=(
LENGTH_UNIT()
NAMED_UNIT(*)
SI_UNIT(.MILLI.,.METRE.)
);
#1127=(
LENGTH_UNIT()
NAMED_UNIT(*)
SI_UNIT($,.METRE.)
);
#1128=(
NAMED_UNIT(*)
PLANE_ANGLE_UNIT()
SI_UNIT($,.RADIAN.)
);
#1129=(
NAMED_UNIT(*)
SI_UNIT($,.STERADIAN.)
SOLID_ANGLE_UNIT()
);
#1130=SHAPE_DEFINITION_REPRESENTATION(#1131,#1132);
#1131=PRODUCT_DEFINITION_SHAPE('',$,#1134);
#1132=SHAPE_REPRESENTATION('',(#636),#1124);
#1133=PRODUCT_DEFINITION_CONTEXT('part definition',#1138,'design');
#1134=PRODUCT_DEFINITION('2 \X2\044D044204300436\X0\ \X2\0434043B044F\X0\ 
\X2\043C043E0442043E04400430\X0\','2 \X2\044D044204300436\X0\ \X2\0434043B044F\X0\ 
\X2\043C043E0442043E04400430\X0\ v24',#1135,#1133);
#1135=PRODUCT_DEFINITION_FORMATION('',$,#1140);
#1136=PRODUCT_RELATED_PRODUCT_CATEGORY(
'2 \X2\044D044204300436\X0\ \X2\0434043B044F\X0\ \X2\043C043E0442043E04400430\X0\ 
v24','2 \X2\044D044204300436\X0\ \X2\0434043B044F\X0\ \X2\043C043E0442043E04400430\X0\ 
v24',(#1140));
#1137=APPLICATION_PROTOCOL_DEFINITION('international standard',
'automotive_design',2009,#1138);
#1138=APPLICATION_CONTEXT(
'Core Data for Automotive Mechanical Design Process');
#1139=PRODUCT_CONTEXT('part definition',#1138,'mechanical');
#1140=PRODUCT('2 \X2\044D044204300436\X0\ \X2\0434043B044F\X0\ \X2\043C043E0442043E04400430\X0\',
'2 \X2\044D044204300436\X0\ \X2\0434043B044F\X0\ \X2\043C043E0442043E04400430\X0\ 
v24',$,(#1139));
#1141=PRESENTATION_STYLE_ASSIGNMENT((#1142));
#1142=SURFACE_STYLE_USAGE(.BOTH.,#1143);
#1143=SURFACE_SIDE_STYLE('',(#1144));
#1144=SURFACE_STYLE_FILL_AREA(#1145);
#1145=FILL_AREA_STYLE('Steel - Satin',(#1146));
#1146=FILL_AREA_STYLE_COLOUR('Steel - Satin',#1147);
#1147=COLOUR_RGB('Steel - Satin',0.627450980392157,0.627450980392157,0.627450980392157);
ENDSEC;
END-ISO-10303-21;
