ISO-10303-21;
HEADER;
/* Generated by software containing ST-Developer
 * from STEP Tools, Inc. (www.steptools.com) 
 */

FILE_DESCRIPTION(
/* description */ (''),
/* implementation_level */ '2;1');

FILE_NAME(
/* name */ '',
/* time_stamp */ '2025-02-22T19:25:13+10:00',
/* author */ (''),
/* organization */ (''),
/* preprocessor_version */ 'ST-DEVELOPER v20',
/* originating_system */ 'Autodesk Translation Framework v13.14.0.145',

/* authorisation */ '');

FILE_SCHEMA (('AUTOMOTIVE_DESIGN { 1 0 10303 214 3 1 1 }'));
ENDSEC;

DATA;
#10=MECHANICAL_DESIGN_GEOMETRIC_PRESENTATION_REPRESENTATION('',(#13),#838);
#11=SHAPE_REPRESENTATION_RELATIONSHIP('SRR','None',#845,#12);
#12=ADVANCED_BREP_SHAPE_REPRESENTATION('',(#14),#837);
#13=STYLED_ITEM('',(#854),#14);
#14=MANIFOLD_SOLID_BREP(
'\X2\04120442043E0440043E0435\X0\ \X2\043A04400435043F043B0435043D04380435\X0\ 
\X2\0434043204380433043004420435043B044F\X0\',#434);
#15=FACE_BOUND('',#56,.T.);
#16=FACE_BOUND('',#63,.T.);
#17=FACE_BOUND('',#75,.T.);
#18=FACE_BOUND('',#77,.T.);
#19=PLANE('',#452);
#20=PLANE('',#453);
#21=PLANE('',#454);
#22=PLANE('',#460);
#23=PLANE('',#470);
#24=PLANE('',#471);
#25=PLANE('',#476);
#26=PLANE('',#493);
#27=PLANE('',#494);
#28=FACE_OUTER_BOUND('',#51,.T.);
#29=FACE_OUTER_BOUND('',#52,.T.);
#30=FACE_OUTER_BOUND('',#53,.T.);
#31=FACE_OUTER_BOUND('',#54,.T.);
#32=FACE_OUTER_BOUND('',#55,.T.);
#33=FACE_OUTER_BOUND('',#57,.T.);
#34=FACE_OUTER_BOUND('',#58,.T.);
#35=FACE_OUTER_BOUND('',#59,.T.);
#36=FACE_OUTER_BOUND('',#60,.T.);
#37=FACE_OUTER_BOUND('',#61,.T.);
#38=FACE_OUTER_BOUND('',#62,.T.);
#39=FACE_OUTER_BOUND('',#64,.T.);
#40=FACE_OUTER_BOUND('',#65,.T.);
#41=FACE_OUTER_BOUND('',#66,.T.);
#42=FACE_OUTER_BOUND('',#67,.T.);
#43=FACE_OUTER_BOUND('',#68,.T.);
#44=FACE_OUTER_BOUND('',#69,.T.);
#45=FACE_OUTER_BOUND('',#70,.T.);
#46=FACE_OUTER_BOUND('',#71,.T.);
#47=FACE_OUTER_BOUND('',#72,.T.);
#48=FACE_OUTER_BOUND('',#73,.T.);
#49=FACE_OUTER_BOUND('',#74,.T.);
#50=FACE_OUTER_BOUND('',#76,.T.);
#51=EDGE_LOOP('',(#275,#276,#277,#278));
#52=EDGE_LOOP('',(#279,#280,#281,#282));
#53=EDGE_LOOP('',(#283,#284,#285,#286));
#54=EDGE_LOOP('',(#287,#288,#289,#290));
#55=EDGE_LOOP('',(#291,#292,#293,#294,#295,#296));
#56=EDGE_LOOP('',(#297));
#57=EDGE_LOOP('',(#298,#299,#300,#301));
#58=EDGE_LOOP('',(#302,#303,#304,#305));
#59=EDGE_LOOP('',(#306,#307,#308,#309,#310,#311,#312,#313,#314,#315,#316,
#317,#318));
#60=EDGE_LOOP('',(#319,#320,#321,#322));
#61=EDGE_LOOP('',(#323,#324,#325,#326));
#62=EDGE_LOOP('',(#327,#328,#329,#330,#331,#332));
#63=EDGE_LOOP('',(#333));
#64=EDGE_LOOP('',(#334,#335,#336,#337));
#65=EDGE_LOOP('',(#338,#339,#340,#341,#342,#343,#344,#345,#346,#347,#348,
#349,#350));
#66=EDGE_LOOP('',(#351,#352,#353,#354));
#67=EDGE_LOOP('',(#355,#356,#357,#358));
#68=EDGE_LOOP('',(#359,#360,#361,#362));
#69=EDGE_LOOP('',(#363,#364,#365,#366));
#70=EDGE_LOOP('',(#367,#368,#369,#370));
#71=EDGE_LOOP('',(#371,#372,#373,#374));
#72=EDGE_LOOP('',(#375,#376,#377,#378));
#73=EDGE_LOOP('',(#379,#380,#381,#382));
#74=EDGE_LOOP('',(#383,#384,#385,#386,#387,#388));
#75=EDGE_LOOP('',(#389));
#76=EDGE_LOOP('',(#390,#391,#392,#393,#394,#395));
#77=EDGE_LOOP('',(#396));
#78=CIRCLE('',#449,2.);
#79=CIRCLE('',#451,2.);
#80=CIRCLE('',#455,2.);
#81=CIRCLE('',#456,1.5);
#82=CIRCLE('',#459,2.);
#83=CIRCLE('',#461,2.);
#84=CIRCLE('',#462,13.55);
#85=CIRCLE('',#463,2.);
#86=CIRCLE('',#464,2.);
#87=CIRCLE('',#465,15.);
#88=CIRCLE('',#466,2.);
#89=CIRCLE('',#468,2.);
#90=CIRCLE('',#469,2.);
#91=CIRCLE('',#472,2.);
#92=CIRCLE('',#473,1.5);
#93=CIRCLE('',#475,2.);
#94=CIRCLE('',#477,2.);
#95=CIRCLE('',#478,15.);
#96=CIRCLE('',#479,2.);
#97=CIRCLE('',#480,2.);
#98=CIRCLE('',#481,13.55);
#99=CIRCLE('',#482,2.);
#100=CIRCLE('',#484,1.5);
#101=CIRCLE('',#486,1.50000131437689);
#102=LINE('',#674,#137);
#103=LINE('',#677,#138);
#104=LINE('',#680,#139);
#105=LINE('',#683,#140);
#106=LINE('',#686,#141);
#107=LINE('',#688,#142);
#108=LINE('',#689,#143);
#109=LINE('',#692,#144);
#110=LINE('',#693,#145);
#111=LINE('',#696,#146);
#112=LINE('',#698,#147);
#113=LINE('',#700,#148);
#114=LINE('',#749,#149);
#115=LINE('',#752,#150);
#116=LINE('',#762,#151);
#117=LINE('',#764,#152);
#118=LINE('',#766,#153);
#119=LINE('',#773,#154);
#120=LINE('',#779,#155);
#121=LINE('',#782,#156);
#122=LINE('',#784,#157);
#123=LINE('',#785,#158);
#124=LINE('',#788,#159);
#125=LINE('',#790,#160);
#126=LINE('',#796,#161);
#127=LINE('',#800,#162);
#128=LINE('',#807,#163);
#129=LINE('',#815,#164);
#130=LINE('',#819,#165);
#131=LINE('',#822,#166);
#132=LINE('',#824,#167);
#133=LINE('',#827,#168);
#134=LINE('',#828,#169);
#135=LINE('',#830,#170);
#136=LINE('',#832,#171);
#137=VECTOR('',#499,10.);
#138=VECTOR('',#502,10.);
#139=VECTOR('',#505,10.);
#140=VECTOR('',#508,10.);
#141=VECTOR('',#511,10.);
#142=VECTOR('',#512,10.);
#143=VECTOR('',#513,10.);
#144=VECTOR('',#516,10.);
#145=VECTOR('',#517,10.);
#146=VECTOR('',#520,10.);
#147=VECTOR('',#521,10.);
#148=VECTOR('',#522,10.);
#149=VECTOR('',#529,10.);
#150=VECTOR('',#532,10.);
#151=VECTOR('',#543,10.);
#152=VECTOR('',#544,10.);
#153=VECTOR('',#545,10.);
#154=VECTOR('',#552,10.);
#155=VECTOR('',#559,10.);
#156=VECTOR('',#562,10.);
#157=VECTOR('',#563,10.);
#158=VECTOR('',#564,10.);
#159=VECTOR('',#567,10.);
#160=VECTOR('',#568,10.);
#161=VECTOR('',#575,10.);
#162=VECTOR('',#580,10.);
#163=VECTOR('',#587,10.);
#164=VECTOR('',#596,1.5);
#165=VECTOR('',#601,1.5);
#166=VECTOR('',#606,10.);
#167=VECTOR('',#609,10.);
#168=VECTOR('',#614,10.);
#169=VECTOR('',#615,10.);
#170=VECTOR('',#618,10.);
#171=VECTOR('',#621,10.);
#172=B_SPLINE_CURVE_WITH_KNOTS('',3,(#630,#631,#632,#633,#634,#635,#636,
#637,#638,#639,#640,#641,#642,#643,#644,#645,#646,#647,#648,#649,#650,#651,
#652,#653,#654,#655,#656,#657,#658,#659,#660,#661,#662,#663,#664,#665,#666,
#667,#668,#669,#670,#671,#672),.UNSPECIFIED.,.F.,.F.,(4,3,3,3,3,3,3,3,3,
3,3,3,3,3,4),(0.,0.111854538884844,0.22370537508657,0.335552782346291,0.44739703431659,
0.559238404568621,0.671077166599037,0.783542079055961,0.895396745520207,
1.00724426207972,1.11908572341305,1.2320134091234,1.34386105376826,1.45732876001134,
1.57079646625443),.UNSPECIFIED.);
#173=B_SPLINE_CURVE_WITH_KNOTS('',3,(#706,#707,#708,#709,#710,#711,#712,
#713,#714,#715,#716,#717,#718,#719,#720,#721,#722,#723,#724,#725,#726,#727,
#728,#729,#730,#731,#732,#733,#734,#735,#736,#737,#738,#739,#740,#741,#742,
#743,#744,#745,#746,#747,#748),.UNSPECIFIED.,.F.,.F.,(4,3,3,3,3,3,3,3,3,
3,3,3,3,3,4),(0.,0.111854538884842,0.223705375086587,0.335552782346288,
0.447397034316597,0.559238404568614,0.671077166599077,0.783542079055995,
0.895396745520237,1.00724426207976,1.11908572341311,1.23201340912344,1.34386105376831,
1.45732876001137,1.57079646625443),.UNSPECIFIED.);
#174=VERTEX_POINT('',#628);
#175=VERTEX_POINT('',#629);
#176=VERTEX_POINT('',#673);
#177=VERTEX_POINT('',#675);
#178=VERTEX_POINT('',#679);
#179=VERTEX_POINT('',#681);
#180=VERTEX_POINT('',#685);
#181=VERTEX_POINT('',#687);
#182=VERTEX_POINT('',#691);
#183=VERTEX_POINT('',#695);
#184=VERTEX_POINT('',#697);
#185=VERTEX_POINT('',#699);
#186=VERTEX_POINT('',#702);
#187=VERTEX_POINT('',#705);
#188=VERTEX_POINT('',#751);
#189=VERTEX_POINT('',#755);
#190=VERTEX_POINT('',#757);
#191=VERTEX_POINT('',#759);
#192=VERTEX_POINT('',#761);
#193=VERTEX_POINT('',#763);
#194=VERTEX_POINT('',#765);
#195=VERTEX_POINT('',#767);
#196=VERTEX_POINT('',#769);
#197=VERTEX_POINT('',#771);
#198=VERTEX_POINT('',#775);
#199=VERTEX_POINT('',#777);
#200=VERTEX_POINT('',#781);
#201=VERTEX_POINT('',#783);
#202=VERTEX_POINT('',#787);
#203=VERTEX_POINT('',#789);
#204=VERTEX_POINT('',#792);
#205=VERTEX_POINT('',#795);
#206=VERTEX_POINT('',#799);
#207=VERTEX_POINT('',#801);
#208=VERTEX_POINT('',#803);
#209=VERTEX_POINT('',#805);
#210=VERTEX_POINT('',#808);
#211=VERTEX_POINT('',#810);
#212=VERTEX_POINT('',#814);
#213=VERTEX_POINT('',#818);
#214=EDGE_CURVE('',#174,#175,#172,.T.);
#215=EDGE_CURVE('',#175,#176,#102,.T.);
#216=EDGE_CURVE('',#176,#177,#78,.T.);
#217=EDGE_CURVE('',#177,#174,#103,.T.);
#218=EDGE_CURVE('',#174,#178,#104,.T.);
#219=EDGE_CURVE('',#178,#179,#79,.T.);
#220=EDGE_CURVE('',#179,#175,#105,.T.);
#221=EDGE_CURVE('',#180,#174,#106,.T.);
#222=EDGE_CURVE('',#181,#180,#107,.T.);
#223=EDGE_CURVE('',#181,#178,#108,.T.);
#224=EDGE_CURVE('',#182,#177,#109,.T.);
#225=EDGE_CURVE('',#180,#182,#110,.T.);
#226=EDGE_CURVE('',#183,#176,#111,.T.);
#227=EDGE_CURVE('',#184,#183,#112,.T.);
#228=EDGE_CURVE('',#184,#185,#113,.T.);
#229=EDGE_CURVE('',#182,#185,#80,.T.);
#230=EDGE_CURVE('',#186,#186,#81,.T.);
#231=EDGE_CURVE('',#187,#180,#173,.T.);
#232=EDGE_CURVE('',#185,#187,#114,.T.);
#233=EDGE_CURVE('',#187,#188,#115,.T.);
#234=EDGE_CURVE('',#188,#181,#82,.T.);
#235=EDGE_CURVE('',#189,#184,#83,.T.);
#236=EDGE_CURVE('',#190,#189,#84,.T.);
#237=EDGE_CURVE('',#191,#190,#85,.T.);
#238=EDGE_CURVE('',#192,#191,#116,.T.);
#239=EDGE_CURVE('',#193,#192,#117,.T.);
#240=EDGE_CURVE('',#193,#194,#118,.T.);
#241=EDGE_CURVE('',#195,#194,#86,.T.);
#242=EDGE_CURVE('',#195,#196,#87,.T.);
#243=EDGE_CURVE('',#197,#196,#88,.T.);
#244=EDGE_CURVE('',#188,#197,#119,.T.);
#245=EDGE_CURVE('',#198,#193,#89,.T.);
#246=EDGE_CURVE('',#192,#199,#90,.T.);
#247=EDGE_CURVE('',#199,#198,#120,.T.);
#248=EDGE_CURVE('',#199,#200,#121,.T.);
#249=EDGE_CURVE('',#201,#200,#122,.T.);
#250=EDGE_CURVE('',#198,#201,#123,.T.);
#251=EDGE_CURVE('',#202,#191,#124,.T.);
#252=EDGE_CURVE('',#203,#202,#125,.T.);
#253=EDGE_CURVE('',#200,#203,#91,.T.);
#254=EDGE_CURVE('',#204,#204,#92,.T.);
#255=EDGE_CURVE('',#203,#205,#126,.T.);
#256=EDGE_CURVE('',#205,#201,#93,.T.);
#257=EDGE_CURVE('',#179,#206,#127,.T.);
#258=EDGE_CURVE('',#207,#206,#94,.T.);
#259=EDGE_CURVE('',#207,#208,#95,.T.);
#260=EDGE_CURVE('',#209,#208,#96,.T.);
#261=EDGE_CURVE('',#209,#205,#128,.T.);
#262=EDGE_CURVE('',#210,#202,#97,.T.);
#263=EDGE_CURVE('',#210,#211,#98,.T.);
#264=EDGE_CURVE('',#183,#211,#99,.T.);
#265=EDGE_CURVE('',#204,#212,#129,.T.);
#266=EDGE_CURVE('',#212,#212,#100,.T.);
#267=EDGE_CURVE('',#186,#213,#130,.T.);
#268=EDGE_CURVE('',#213,#213,#101,.T.);
#269=EDGE_CURVE('',#190,#210,#131,.T.);
#270=EDGE_CURVE('',#211,#189,#132,.T.);
#271=EDGE_CURVE('',#196,#207,#133,.T.);
#272=EDGE_CURVE('',#206,#197,#134,.T.);
#273=EDGE_CURVE('',#208,#195,#135,.T.);
#274=EDGE_CURVE('',#194,#209,#136,.T.);
#275=ORIENTED_EDGE('',*,*,#214,.T.);
#276=ORIENTED_EDGE('',*,*,#215,.T.);
#277=ORIENTED_EDGE('',*,*,#216,.T.);
#278=ORIENTED_EDGE('',*,*,#217,.T.);
#279=ORIENTED_EDGE('',*,*,#214,.F.);
#280=ORIENTED_EDGE('',*,*,#218,.T.);
#281=ORIENTED_EDGE('',*,*,#219,.T.);
#282=ORIENTED_EDGE('',*,*,#220,.T.);
#283=ORIENTED_EDGE('',*,*,#218,.F.);
#284=ORIENTED_EDGE('',*,*,#221,.F.);
#285=ORIENTED_EDGE('',*,*,#222,.F.);
#286=ORIENTED_EDGE('',*,*,#223,.T.);
#287=ORIENTED_EDGE('',*,*,#217,.F.);
#288=ORIENTED_EDGE('',*,*,#224,.F.);
#289=ORIENTED_EDGE('',*,*,#225,.F.);
#290=ORIENTED_EDGE('',*,*,#221,.T.);
#291=ORIENTED_EDGE('',*,*,#216,.F.);
#292=ORIENTED_EDGE('',*,*,#226,.F.);
#293=ORIENTED_EDGE('',*,*,#227,.F.);
#294=ORIENTED_EDGE('',*,*,#228,.T.);
#295=ORIENTED_EDGE('',*,*,#229,.F.);
#296=ORIENTED_EDGE('',*,*,#224,.T.);
#297=ORIENTED_EDGE('',*,*,#230,.T.);
#298=ORIENTED_EDGE('',*,*,#231,.T.);
#299=ORIENTED_EDGE('',*,*,#225,.T.);
#300=ORIENTED_EDGE('',*,*,#229,.T.);
#301=ORIENTED_EDGE('',*,*,#232,.T.);
#302=ORIENTED_EDGE('',*,*,#231,.F.);
#303=ORIENTED_EDGE('',*,*,#233,.T.);
#304=ORIENTED_EDGE('',*,*,#234,.T.);
#305=ORIENTED_EDGE('',*,*,#222,.T.);
#306=ORIENTED_EDGE('',*,*,#233,.F.);
#307=ORIENTED_EDGE('',*,*,#232,.F.);
#308=ORIENTED_EDGE('',*,*,#228,.F.);
#309=ORIENTED_EDGE('',*,*,#235,.F.);
#310=ORIENTED_EDGE('',*,*,#236,.F.);
#311=ORIENTED_EDGE('',*,*,#237,.F.);
#312=ORIENTED_EDGE('',*,*,#238,.F.);
#313=ORIENTED_EDGE('',*,*,#239,.F.);
#314=ORIENTED_EDGE('',*,*,#240,.T.);
#315=ORIENTED_EDGE('',*,*,#241,.F.);
#316=ORIENTED_EDGE('',*,*,#242,.T.);
#317=ORIENTED_EDGE('',*,*,#243,.F.);
#318=ORIENTED_EDGE('',*,*,#244,.F.);
#319=ORIENTED_EDGE('',*,*,#245,.T.);
#320=ORIENTED_EDGE('',*,*,#239,.T.);
#321=ORIENTED_EDGE('',*,*,#246,.T.);
#322=ORIENTED_EDGE('',*,*,#247,.T.);
#323=ORIENTED_EDGE('',*,*,#247,.F.);
#324=ORIENTED_EDGE('',*,*,#248,.T.);
#325=ORIENTED_EDGE('',*,*,#249,.F.);
#326=ORIENTED_EDGE('',*,*,#250,.F.);
#327=ORIENTED_EDGE('',*,*,#246,.F.);
#328=ORIENTED_EDGE('',*,*,#238,.T.);
#329=ORIENTED_EDGE('',*,*,#251,.F.);
#330=ORIENTED_EDGE('',*,*,#252,.F.);
#331=ORIENTED_EDGE('',*,*,#253,.F.);
#332=ORIENTED_EDGE('',*,*,#248,.F.);
#333=ORIENTED_EDGE('',*,*,#254,.T.);
#334=ORIENTED_EDGE('',*,*,#253,.T.);
#335=ORIENTED_EDGE('',*,*,#255,.T.);
#336=ORIENTED_EDGE('',*,*,#256,.T.);
#337=ORIENTED_EDGE('',*,*,#249,.T.);
#338=ORIENTED_EDGE('',*,*,#220,.F.);
#339=ORIENTED_EDGE('',*,*,#257,.T.);
#340=ORIENTED_EDGE('',*,*,#258,.F.);
#341=ORIENTED_EDGE('',*,*,#259,.T.);
#342=ORIENTED_EDGE('',*,*,#260,.F.);
#343=ORIENTED_EDGE('',*,*,#261,.T.);
#344=ORIENTED_EDGE('',*,*,#255,.F.);
#345=ORIENTED_EDGE('',*,*,#252,.T.);
#346=ORIENTED_EDGE('',*,*,#262,.F.);
#347=ORIENTED_EDGE('',*,*,#263,.T.);
#348=ORIENTED_EDGE('',*,*,#264,.F.);
#349=ORIENTED_EDGE('',*,*,#226,.T.);
#350=ORIENTED_EDGE('',*,*,#215,.F.);
#351=ORIENTED_EDGE('',*,*,#254,.F.);
#352=ORIENTED_EDGE('',*,*,#265,.T.);
#353=ORIENTED_EDGE('',*,*,#266,.F.);
#354=ORIENTED_EDGE('',*,*,#265,.F.);
#355=ORIENTED_EDGE('',*,*,#230,.F.);
#356=ORIENTED_EDGE('',*,*,#267,.T.);
#357=ORIENTED_EDGE('',*,*,#268,.F.);
#358=ORIENTED_EDGE('',*,*,#267,.F.);
#359=ORIENTED_EDGE('',*,*,#262,.T.);
#360=ORIENTED_EDGE('',*,*,#251,.T.);
#361=ORIENTED_EDGE('',*,*,#237,.T.);
#362=ORIENTED_EDGE('',*,*,#269,.T.);
#363=ORIENTED_EDGE('',*,*,#269,.F.);
#364=ORIENTED_EDGE('',*,*,#236,.T.);
#365=ORIENTED_EDGE('',*,*,#270,.F.);
#366=ORIENTED_EDGE('',*,*,#263,.F.);
#367=ORIENTED_EDGE('',*,*,#264,.T.);
#368=ORIENTED_EDGE('',*,*,#270,.T.);
#369=ORIENTED_EDGE('',*,*,#235,.T.);
#370=ORIENTED_EDGE('',*,*,#227,.T.);
#371=ORIENTED_EDGE('',*,*,#243,.T.);
#372=ORIENTED_EDGE('',*,*,#271,.T.);
#373=ORIENTED_EDGE('',*,*,#258,.T.);
#374=ORIENTED_EDGE('',*,*,#272,.T.);
#375=ORIENTED_EDGE('',*,*,#271,.F.);
#376=ORIENTED_EDGE('',*,*,#242,.F.);
#377=ORIENTED_EDGE('',*,*,#273,.F.);
#378=ORIENTED_EDGE('',*,*,#259,.F.);
#379=ORIENTED_EDGE('',*,*,#241,.T.);
#380=ORIENTED_EDGE('',*,*,#274,.T.);
#381=ORIENTED_EDGE('',*,*,#260,.T.);
#382=ORIENTED_EDGE('',*,*,#273,.T.);
#383=ORIENTED_EDGE('',*,*,#245,.F.);
#384=ORIENTED_EDGE('',*,*,#250,.T.);
#385=ORIENTED_EDGE('',*,*,#256,.F.);
#386=ORIENTED_EDGE('',*,*,#261,.F.);
#387=ORIENTED_EDGE('',*,*,#274,.F.);
#388=ORIENTED_EDGE('',*,*,#240,.F.);
#389=ORIENTED_EDGE('',*,*,#266,.T.);
#390=ORIENTED_EDGE('',*,*,#219,.F.);
#391=ORIENTED_EDGE('',*,*,#223,.F.);
#392=ORIENTED_EDGE('',*,*,#234,.F.);
#393=ORIENTED_EDGE('',*,*,#244,.T.);
#394=ORIENTED_EDGE('',*,*,#272,.F.);
#395=ORIENTED_EDGE('',*,*,#257,.F.);
#396=ORIENTED_EDGE('',*,*,#268,.T.);
#397=CYLINDRICAL_SURFACE('',#448,2.);
#398=CYLINDRICAL_SURFACE('',#450,2.);
#399=CYLINDRICAL_SURFACE('',#457,2.);
#400=CYLINDRICAL_SURFACE('',#458,2.);
#401=CYLINDRICAL_SURFACE('',#467,2.);
#402=CYLINDRICAL_SURFACE('',#474,2.);
#403=CYLINDRICAL_SURFACE('',#483,1.5);
#404=CYLINDRICAL_SURFACE('',#485,1.5);
#405=CYLINDRICAL_SURFACE('',#487,2.);
#406=CYLINDRICAL_SURFACE('',#488,13.55);
#407=CYLINDRICAL_SURFACE('',#489,2.);
#408=CYLINDRICAL_SURFACE('',#490,2.);
#409=CYLINDRICAL_SURFACE('',#491,15.);
#410=CYLINDRICAL_SURFACE('',#492,2.);
#411=ADVANCED_FACE('',(#28),#397,.T.);
#412=ADVANCED_FACE('',(#29),#398,.T.);
#413=ADVANCED_FACE('',(#30),#19,.T.);
#414=ADVANCED_FACE('',(#31),#20,.T.);
#415=ADVANCED_FACE('',(#32,#15),#21,.T.);
#416=ADVANCED_FACE('',(#33),#399,.T.);
#417=ADVANCED_FACE('',(#34),#400,.T.);
#418=ADVANCED_FACE('',(#35),#22,.T.);
#419=ADVANCED_FACE('',(#36),#401,.T.);
#420=ADVANCED_FACE('',(#37),#23,.T.);
#421=ADVANCED_FACE('',(#38,#16),#24,.T.);
#422=ADVANCED_FACE('',(#39),#402,.T.);
#423=ADVANCED_FACE('',(#40),#25,.F.);
#424=ADVANCED_FACE('',(#41),#403,.F.);
#425=ADVANCED_FACE('',(#42),#404,.F.);
#426=ADVANCED_FACE('',(#43),#405,.T.);
#427=ADVANCED_FACE('',(#44),#406,.F.);
#428=ADVANCED_FACE('',(#45),#407,.T.);
#429=ADVANCED_FACE('',(#46),#408,.F.);
#430=ADVANCED_FACE('',(#47),#409,.T.);
#431=ADVANCED_FACE('',(#48),#410,.F.);
#432=ADVANCED_FACE('',(#49,#17),#26,.T.);
#433=ADVANCED_FACE('',(#50,#18),#27,.T.);
#434=CLOSED_SHELL('',(#411,#412,#413,#414,#415,#416,#417,#418,#419,#420,
#421,#422,#423,#424,#425,#426,#427,#428,#429,#430,#431,#432,#433));
#435=DERIVED_UNIT_ELEMENT(#437,1.);
#436=DERIVED_UNIT_ELEMENT(#840,-3.);
#437=(
MASS_UNIT()
NAMED_UNIT(*)
SI_UNIT(.KILO.,.GRAM.)
);
#438=DERIVED_UNIT((#435,#436));
#439=MEASURE_REPRESENTATION_ITEM('density measure',
POSITIVE_RATIO_MEASURE(7850.),#438);
#440=PROPERTY_DEFINITION_REPRESENTATION(#445,#442);
#441=PROPERTY_DEFINITION_REPRESENTATION(#446,#443);
#442=REPRESENTATION('material name',(#444),#837);
#443=REPRESENTATION('density',(#439),#837);
#444=DESCRIPTIVE_REPRESENTATION_ITEM('Steel','Steel');
#445=PROPERTY_DEFINITION('material property','material name',#847);
#446=PROPERTY_DEFINITION('material property','density of part',#847);
#447=AXIS2_PLACEMENT_3D('',#626,#495,#496);
#448=AXIS2_PLACEMENT_3D('',#627,#497,#498);
#449=AXIS2_PLACEMENT_3D('',#676,#500,#501);
#450=AXIS2_PLACEMENT_3D('',#678,#503,#504);
#451=AXIS2_PLACEMENT_3D('',#682,#506,#507);
#452=AXIS2_PLACEMENT_3D('',#684,#509,#510);
#453=AXIS2_PLACEMENT_3D('',#690,#514,#515);
#454=AXIS2_PLACEMENT_3D('',#694,#518,#519);
#455=AXIS2_PLACEMENT_3D('',#701,#523,#524);
#456=AXIS2_PLACEMENT_3D('',#703,#525,#526);
#457=AXIS2_PLACEMENT_3D('',#704,#527,#528);
#458=AXIS2_PLACEMENT_3D('',#750,#530,#531);
#459=AXIS2_PLACEMENT_3D('',#753,#533,#534);
#460=AXIS2_PLACEMENT_3D('',#754,#535,#536);
#461=AXIS2_PLACEMENT_3D('',#756,#537,#538);
#462=AXIS2_PLACEMENT_3D('',#758,#539,#540);
#463=AXIS2_PLACEMENT_3D('',#760,#541,#542);
#464=AXIS2_PLACEMENT_3D('',#768,#546,#547);
#465=AXIS2_PLACEMENT_3D('',#770,#548,#549);
#466=AXIS2_PLACEMENT_3D('',#772,#550,#551);
#467=AXIS2_PLACEMENT_3D('',#774,#553,#554);
#468=AXIS2_PLACEMENT_3D('',#776,#555,#556);
#469=AXIS2_PLACEMENT_3D('',#778,#557,#558);
#470=AXIS2_PLACEMENT_3D('',#780,#560,#561);
#471=AXIS2_PLACEMENT_3D('',#786,#565,#566);
#472=AXIS2_PLACEMENT_3D('',#791,#569,#570);
#473=AXIS2_PLACEMENT_3D('',#793,#571,#572);
#474=AXIS2_PLACEMENT_3D('',#794,#573,#574);
#475=AXIS2_PLACEMENT_3D('',#797,#576,#577);
#476=AXIS2_PLACEMENT_3D('',#798,#578,#579);
#477=AXIS2_PLACEMENT_3D('',#802,#581,#582);
#478=AXIS2_PLACEMENT_3D('',#804,#583,#584);
#479=AXIS2_PLACEMENT_3D('',#806,#585,#586);
#480=AXIS2_PLACEMENT_3D('',#809,#588,#589);
#481=AXIS2_PLACEMENT_3D('',#811,#590,#591);
#482=AXIS2_PLACEMENT_3D('',#812,#592,#593);
#483=AXIS2_PLACEMENT_3D('',#813,#594,#595);
#484=AXIS2_PLACEMENT_3D('',#816,#597,#598);
#485=AXIS2_PLACEMENT_3D('',#817,#599,#600);
#486=AXIS2_PLACEMENT_3D('',#820,#602,#603);
#487=AXIS2_PLACEMENT_3D('',#821,#604,#605);
#488=AXIS2_PLACEMENT_3D('',#823,#607,#608);
#489=AXIS2_PLACEMENT_3D('',#825,#610,#611);
#490=AXIS2_PLACEMENT_3D('',#826,#612,#613);
#491=AXIS2_PLACEMENT_3D('',#829,#616,#617);
#492=AXIS2_PLACEMENT_3D('',#831,#619,#620);
#493=AXIS2_PLACEMENT_3D('',#833,#622,#623);
#494=AXIS2_PLACEMENT_3D('',#834,#624,#625);
#495=DIRECTION('axis',(0.,0.,1.));
#496=DIRECTION('refdir',(1.,0.,0.));
#497=DIRECTION('center_axis',(0.,1.,0.));
#498=DIRECTION('ref_axis',(-0.707106781186546,0.,0.707106781186549));
#499=DIRECTION('',(0.,-1.,0.));
#500=DIRECTION('center_axis',(0.,1.,9.51502033652524E-16));
#501=DIRECTION('ref_axis',(-0.707106781186546,0.,0.707106781186549));
#502=DIRECTION('',(0.,1.,0.));
#503=DIRECTION('center_axis',(0.,0.999999123749512,-0.00132382030812527));
#504=DIRECTION('ref_axis',(-0.707106781186546,0.000936082316944946,0.707106161583887));
#505=DIRECTION('',(0.,0.999999123749512,-0.00132382030812527));
#506=DIRECTION('center_axis',(0.,-0.999999123749512,0.0013238203081237));
#507=DIRECTION('ref_axis',(-0.707106781186546,0.000936082316944946,0.707106161583887));
#508=DIRECTION('',(0.,-0.999999123749512,0.00132382030812527));
#509=DIRECTION('center_axis',(0.,0.00132382030812527,0.999999123749512));
#510=DIRECTION('ref_axis',(0.,0.999999123749512,-0.00132382030812527));
#511=DIRECTION('',(-1.,0.,0.));
#512=DIRECTION('',(0.,-0.999999123749512,0.00132382030812527));
#513=DIRECTION('',(-1.,0.,0.));
#514=DIRECTION('center_axis',(0.,0.,1.));
#515=DIRECTION('ref_axis',(0.,1.,0.));
#516=DIRECTION('',(-1.,0.,0.));
#517=DIRECTION('',(0.,-1.,0.));
#518=DIRECTION('center_axis',(0.,-1.,-9.51502033652524E-16));
#519=DIRECTION('ref_axis',(0.,-9.51502033652524E-16,1.));
#520=DIRECTION('',(0.,-9.51502033652524E-16,1.));
#521=DIRECTION('',(-1.,0.,0.));
#522=DIRECTION('',(0.,-9.51502033652524E-16,1.));
#523=DIRECTION('center_axis',(0.,1.,9.51502033652524E-16));
#524=DIRECTION('ref_axis',(0.707106781186546,0.,0.707106781186549));
#525=DIRECTION('center_axis',(0.,1.,9.51502033652524E-16));
#526=DIRECTION('ref_axis',(-1.,0.,0.));
#527=DIRECTION('center_axis',(0.,-1.,0.));
#528=DIRECTION('ref_axis',(0.707106781186546,0.,0.707106781186549));
#529=DIRECTION('',(0.,1.,0.));
#530=DIRECTION('center_axis',(0.,0.999999123749512,-0.00132382030812527));
#531=DIRECTION('ref_axis',(0.707106781186549,0.000936082316944942,0.707106161583884));
#532=DIRECTION('',(0.,0.999999123749512,-0.00132382030812527));
#533=DIRECTION('center_axis',(0.,-0.999999123749512,0.0013238203081237));
#534=DIRECTION('ref_axis',(0.707106781186549,0.000936082316944942,0.707106161583884));
#535=DIRECTION('center_axis',(1.,0.,0.));
#536=DIRECTION('ref_axis',(0.,0.,-1.));
#537=DIRECTION('center_axis',(-1.,0.,0.));
#538=DIRECTION('ref_axis',(0.,-0.751204820053775,-0.660069176926158));
#539=DIRECTION('center_axis',(1.,0.,0.));
#540=DIRECTION('ref_axis',(0.,-0.181268882175227,-0.983433572924447));
#541=DIRECTION('center_axis',(-1.,0.,0.));
#542=DIRECTION('ref_axis',(0.,-0.751204820053777,0.660069176926156));
#543=DIRECTION('',(0.,-9.51502033652524E-16,1.));
#544=DIRECTION('',(0.,-1.,0.));
#545=DIRECTION('',(0.,0.,1.));
#546=DIRECTION('center_axis',(1.,0.,0.));
#547=DIRECTION('ref_axis',(0.,-0.785905258867784,0.61834692857971));
#548=DIRECTION('center_axis',(1.,0.,0.));
#549=DIRECTION('ref_axis',(0.,-0.0190727676830983,-0.999818098222325));
#550=DIRECTION('center_axis',(1.,0.,0.));
#551=DIRECTION('ref_axis',(0.,-0.786723150439438,-0.617305989410961));
#552=DIRECTION('',(0.,-0.0013238203081237,-0.999999123749512));
#553=DIRECTION('center_axis',(0.,1.,0.));
#554=DIRECTION('ref_axis',(0.707106781186544,0.,-0.707106781186551));
#555=DIRECTION('center_axis',(0.,-1.,0.));
#556=DIRECTION('ref_axis',(0.707106781186544,0.,-0.707106781186551));
#557=DIRECTION('center_axis',(0.,1.,9.51502033652524E-16));
#558=DIRECTION('ref_axis',(0.707106781186544,0.,-0.707106781186551));
#559=DIRECTION('',(0.,1.,0.));
#560=DIRECTION('center_axis',(0.,0.,-1.));
#561=DIRECTION('ref_axis',(0.,-1.,0.));
#562=DIRECTION('',(-1.,0.,0.));
#563=DIRECTION('',(0.,-1.,0.));
#564=DIRECTION('',(-1.,0.,0.));
#565=DIRECTION('center_axis',(0.,-1.,-9.51502033652524E-16));
#566=DIRECTION('ref_axis',(0.,-9.51502033652524E-16,1.));
#567=DIRECTION('',(1.,0.,0.));
#568=DIRECTION('',(0.,-9.51502033652524E-16,1.));
#569=DIRECTION('center_axis',(0.,1.,9.51502033652524E-16));
#570=DIRECTION('ref_axis',(-0.707106781186544,0.,-0.707106781186551));
#571=DIRECTION('center_axis',(0.,1.,9.51502033652524E-16));
#572=DIRECTION('ref_axis',(-1.,0.,0.));
#573=DIRECTION('center_axis',(0.,-1.,0.));
#574=DIRECTION('ref_axis',(-0.707106781186544,0.,-0.707106781186551));
#575=DIRECTION('',(0.,1.,0.));
#576=DIRECTION('center_axis',(0.,-1.,0.));
#577=DIRECTION('ref_axis',(-0.707106781186544,0.,-0.707106781186551));
#578=DIRECTION('center_axis',(1.,0.,0.));
#579=DIRECTION('ref_axis',(0.,0.,-1.));
#580=DIRECTION('',(0.,-0.0013238203081237,-0.999999123749512));
#581=DIRECTION('center_axis',(-1.,0.,0.));
#582=DIRECTION('ref_axis',(0.,-0.786723150439438,-0.617305989410961));
#583=DIRECTION('center_axis',(-1.,0.,0.));
#584=DIRECTION('ref_axis',(0.,-0.0190727676830983,-0.999818098222325));
#585=DIRECTION('center_axis',(-1.,0.,0.));
#586=DIRECTION('ref_axis',(0.,-0.785905258867784,0.61834692857971));
#587=DIRECTION('',(0.,0.,-1.));
#588=DIRECTION('center_axis',(1.,0.,0.));
#589=DIRECTION('ref_axis',(0.,-0.751204820053777,0.660069176926156));
#590=DIRECTION('center_axis',(1.,0.,0.));
#591=DIRECTION('ref_axis',(0.,-0.181268882175227,-0.983433572924447));
#592=DIRECTION('center_axis',(1.,0.,0.));
#593=DIRECTION('ref_axis',(0.,-0.751204820053775,-0.660069176926158));
#594=DIRECTION('center_axis',(0.,1.,2.96059473233375E-15));
#595=DIRECTION('ref_axis',(-1.,0.,0.));
#596=DIRECTION('',(0.,1.,2.96059473233375E-15));
#597=DIRECTION('center_axis',(0.,-1.,0.));
#598=DIRECTION('ref_axis',(-1.,0.,0.));
#599=DIRECTION('center_axis',(0.,1.,1.48029736616687E-15));
#600=DIRECTION('ref_axis',(-1.,0.,0.));
#601=DIRECTION('',(0.,1.,1.48029736616687E-15));
#602=DIRECTION('center_axis',(0.,-0.999999123749512,0.0013238203081237));
#603=DIRECTION('ref_axis',(0.,0.0013238203081237,0.999999123749512));
#604=DIRECTION('center_axis',(-1.,0.,0.));
#605=DIRECTION('ref_axis',(0.,-0.751204820053777,0.660069176926156));
#606=DIRECTION('',(-1.,0.,0.));
#607=DIRECTION('center_axis',(-1.,0.,0.));
#608=DIRECTION('ref_axis',(0.,1.,7.5790132677363E-16));
#609=DIRECTION('',(1.,0.,0.));
#610=DIRECTION('center_axis',(-1.,0.,0.));
#611=DIRECTION('ref_axis',(0.,-0.751204820053775,-0.660069176926158));
#612=DIRECTION('center_axis',(-1.,0.,0.));
#613=DIRECTION('ref_axis',(0.,-0.786723150439438,-0.617305989410961));
#614=DIRECTION('',(-1.,0.,0.));
#615=DIRECTION('',(1.,0.,0.));
#616=DIRECTION('center_axis',(-1.,0.,0.));
#617=DIRECTION('ref_axis',(0.,-0.0190727676830983,-0.999818098222325));
#618=DIRECTION('',(1.,0.,0.));
#619=DIRECTION('center_axis',(-1.,0.,0.));
#620=DIRECTION('ref_axis',(0.,-0.785905258867784,0.61834692857971));
#621=DIRECTION('',(-1.,0.,0.));
#622=DIRECTION('center_axis',(0.,1.,0.));
#623=DIRECTION('ref_axis',(0.,0.,-1.));
#624=DIRECTION('center_axis',(0.,0.999999123749512,-0.0013238203081237));
#625=DIRECTION('ref_axis',(0.,-0.0013238203081237,-0.999999123749512));
#626=CARTESIAN_POINT('',(0.,0.,0.));
#627=CARTESIAN_POINT('Origin',(55.0501079584138,40.75,-2.38406649977774));
#628=CARTESIAN_POINT('',(55.0501079584138,37.0278002264706,-0.38406649977774));
#629=CARTESIAN_POINT('',(53.0501079584138,37.0264764061625,-2.38406649977774));
#630=CARTESIAN_POINT('Ctrl Pts',(55.0501079584138,37.0278002264706,-0.384066499777739));
#631=CARTESIAN_POINT('Ctrl Pts',(54.9755382724444,37.0277688039166,-0.384066499777739));
#632=CARTESIAN_POINT('Ctrl Pts',(54.9009687809065,37.0277373813627,-0.388241321111527));
#633=CARTESIAN_POINT('Ctrl Pts',(54.8268650956851,37.0277059588087,-0.396564896195821));
#634=CARTESIAN_POINT('Ctrl Pts',(54.7527638634931,37.0276745372949,-0.404888195747613));
#635=CARTESIAN_POINT('Ctrl Pts',(54.6791287931353,37.0276431157812,-0.417359930699111));
#636=CARTESIAN_POINT('Ctrl Pts',(54.6064196315889,37.0276116942674,-0.433902232686544));
#637=CARTESIAN_POINT('Ctrl Pts',(54.5337126990425,37.0275802737169,-0.450444027546841));
#638=CARTESIAN_POINT('Ctrl Pts',(54.4619319975493,37.0275488531664,-0.471056053366468));
#639=CARTESIAN_POINT('Ctrl Pts',(54.3915256687465,37.0275174326158,-0.495609625042022));
#640=CARTESIAN_POINT('Ctrl Pts',(54.3211213261529,37.0274860129517,-0.520162504045059));
#641=CARTESIAN_POINT('Ctrl Pts',(54.2520916456485,37.0274545932876,-0.548656578293234));
#642=CARTESIAN_POINT('Ctrl Pts',(54.1848675694124,37.0274231736235,-0.580913963456787));
#643=CARTESIAN_POINT('Ctrl Pts',(54.1176452252354,37.0273917547689,-0.61317051749407));
#644=CARTESIAN_POINT('Ctrl Pts',(54.0522287425838,37.0273603359143,-0.649190020183465));
#645=CARTESIAN_POINT('Ctrl Pts',(53.9890264859672,37.0273289170597,-0.688747618613926));
#646=CARTESIAN_POINT('Ctrl Pts',(53.925825703273,37.0272974989379,-0.728304294532591));
#647=CARTESIAN_POINT('Ctrl Pts',(53.8648393726356,37.027266080816,-0.771398694831514));
#648=CARTESIAN_POINT('Ctrl Pts',(53.806448185474,37.0272346626941,-0.817761813846144));
#649=CARTESIAN_POINT('Ctrl Pts',(53.7477300842258,37.027203068672,-0.864384505536814));
#650=CARTESIAN_POINT('Ctrl Pts',(53.6916366075471,37.0271714746498,-0.914312411615678));
#651=CARTESIAN_POINT('Ctrl Pts',(53.6385218287612,37.0271398806277,-0.967230377083073));
#652=CARTESIAN_POINT('Ctrl Pts',(53.5856952561385,37.0271084580379,-1.01986120431632));
#653=CARTESIAN_POINT('Ctrl Pts',(53.5358153879282,37.0270770354481,-1.07544941990974));
#654=CARTESIAN_POINT('Ctrl Pts',(53.489193674723,37.0270456128583,-1.13364793026989));
#655=CARTESIAN_POINT('Ctrl Pts',(53.4425749416422,37.0270141922771,-1.19184272050089));
#656=CARTESIAN_POINT('Ctrl Pts',(53.3992141896834,37.0269827716959,-1.25264716803063));
#657=CARTESIAN_POINT('Ctrl Pts',(53.3593821294397,37.0269513511147,-1.31568165748552));
#658=CARTESIAN_POINT('Ctrl Pts',(53.3195522256331,37.0269199322345,-1.37871273436495));
#659=CARTESIAN_POINT('Ctrl Pts',(53.2832508387041,37.0268885133543,-1.44397328289931));
#660=CARTESIAN_POINT('Ctrl Pts',(53.2507045816035,37.0268570944742,-1.5110559113404));
#661=CARTESIAN_POINT('Ctrl Pts',(53.2178422294035,37.0268253704482,-1.57879005832764));
#662=CARTESIAN_POINT('Ctrl Pts',(53.1888085553444,37.0267936464222,-1.64838152576125));
#663=CARTESIAN_POINT('Ctrl Pts',(53.1637883342602,37.0267619223962,-1.71938742267905));
#664=CARTESIAN_POINT('Ctrl Pts',(53.1390074067209,37.026730501779,-1.78971421877157));
#665=CARTESIAN_POINT('Ctrl Pts',(53.1181635816098,37.0266990811618,-1.86142811852973));
#666=CARTESIAN_POINT('Ctrl Pts',(53.1013869917521,37.0266676605446,-1.93408139547644));
#667=CARTESIAN_POINT('Ctrl Pts',(53.0843674007203,37.0266357848143,-2.00778702166429));
#668=CARTESIAN_POINT('Ctrl Pts',(53.071533941189,37.0266039090839,-2.08245906589498));
#669=CARTESIAN_POINT('Ctrl Pts',(53.0629690687884,37.0265720333535,-2.15761775648626));
#670=CARTESIAN_POINT('Ctrl Pts',(53.0544041963879,37.0265401576232,-2.23277644707754));
#671=CARTESIAN_POINT('Ctrl Pts',(53.0501079584138,37.0265082818928,-2.30842136899833));
#672=CARTESIAN_POINT('Ctrl Pts',(53.0501079584138,37.0264764061625,-2.38406649977774));
#673=CARTESIAN_POINT('',(53.0501079584138,37.,-2.38406649977774));
#674=CARTESIAN_POINT('',(53.0501079584138,40.75,-2.38406649977774));
#675=CARTESIAN_POINT('',(55.0501079584138,37.,-0.38406649977774));
#676=CARTESIAN_POINT('Origin',(55.0501079584138,37.,-2.38406649977774));
#677=CARTESIAN_POINT('',(55.0501079584138,40.75,-0.38406649977774));
#678=CARTESIAN_POINT('Origin',(55.0501079584138,40.7751460200685,-2.3890290690903));
#679=CARTESIAN_POINT('',(55.0501079584138,39.0277990551144,-0.386714141163322));
#680=CARTESIAN_POINT('',(55.0501079584138,40.7777936606848,-0.389030821591278));
#681=CARTESIAN_POINT('',(53.0501079584138,39.0251514144981,-2.38671238866235));
#682=CARTESIAN_POINT('Origin',(55.0501079584138,39.0251514144981,-2.38671238866235));
#683=CARTESIAN_POINT('',(53.0501079584138,40.7751460200685,-2.3890290690903));
#684=CARTESIAN_POINT('Origin',(63.0501079584138,37.0278002264706,-0.38406649977774));
#685=CARTESIAN_POINT('',(61.0501079584138,37.0278002264706,-0.38406649977774));
#686=CARTESIAN_POINT('',(63.0501079584138,37.0278002264706,-0.38406649977774));
#687=CARTESIAN_POINT('',(61.0501079584138,39.0277990551144,-0.386714141163322));
#688=CARTESIAN_POINT('',(61.0501079584138,40.7777936606848,-0.389030821591278));
#689=CARTESIAN_POINT('',(63.0501079584138,39.0277990551144,-0.386714141163322));
#690=CARTESIAN_POINT('Origin',(63.0501079584138,37.,-0.38406649977774));
#691=CARTESIAN_POINT('',(61.0501079584138,37.,-0.38406649977774));
#692=CARTESIAN_POINT('',(63.0501079584138,37.,-0.38406649977774));
#693=CARTESIAN_POINT('',(61.0501079584138,40.75,-0.38406649977774));
#694=CARTESIAN_POINT('Origin',(63.0501079584138,37.,-7.83404809851749));
#695=CARTESIAN_POINT('',(53.0501079584138,37.,-5.96320181823832));
#696=CARTESIAN_POINT('',(53.0501079584138,37.,-42.3840480985175));
#697=CARTESIAN_POINT('',(63.0501079584138,37.,-5.96320181823832));
#698=CARTESIAN_POINT('',(63.0501079584138,37.,-5.96320181823832));
#699=CARTESIAN_POINT('',(63.0501079584138,37.,-2.38406649977774));
#700=CARTESIAN_POINT('',(63.0501079584138,37.,-42.3840480985175));
#701=CARTESIAN_POINT('Origin',(61.0501079584138,37.,-2.38406649977774));
#702=CARTESIAN_POINT('',(59.5000008642673,36.9999999999999,-3.00000004470343));
#703=CARTESIAN_POINT('Origin',(58.0000008642673,37.,-3.00000004470343));
#704=CARTESIAN_POINT('Origin',(61.0501079584138,40.75,-2.38406649977774));
#705=CARTESIAN_POINT('',(63.0501079584138,37.0264764061625,-2.38406649977774));
#706=CARTESIAN_POINT('Ctrl Pts',(63.0501079584138,37.0264764061625,-2.38406649977774));
#707=CARTESIAN_POINT('Ctrl Pts',(63.0501079584138,37.0265078287164,-2.30949681380834));
#708=CARTESIAN_POINT('Ctrl Pts',(63.0459331370801,37.0265392512704,-2.23492732227043));
#709=CARTESIAN_POINT('Ctrl Pts',(63.0376095619958,37.0265706738243,-2.16082363704905));
#710=CARTESIAN_POINT('Ctrl Pts',(63.029286262444,37.0266020953381,-2.08672240485697));
#711=CARTESIAN_POINT('Ctrl Pts',(63.0168145274925,37.0266335168519,-2.01308733449915));
#712=CARTESIAN_POINT('Ctrl Pts',(63.000272225505,37.0266649383657,-1.94037817295283));
#713=CARTESIAN_POINT('Ctrl Pts',(62.9837304306447,37.0266963589162,-1.86767124040639));
#714=CARTESIAN_POINT('Ctrl Pts',(62.9631184048251,37.0267277794667,-1.79589053891324));
#715=CARTESIAN_POINT('Ctrl Pts',(62.9385648331496,37.0267592000172,-1.72548421011046));
#716=CARTESIAN_POINT('Ctrl Pts',(62.9140119541465,37.0267906196813,-1.65507986751681));
#717=CARTESIAN_POINT('Ctrl Pts',(62.8855178798983,37.0268220393454,-1.58605018701237));
#718=CARTESIAN_POINT('Ctrl Pts',(62.8532604947348,37.0268534590096,-1.51882611077631));
#719=CARTESIAN_POINT('Ctrl Pts',(62.8210039406975,37.0268848778641,-1.45160376659932));
#720=CARTESIAN_POINT('Ctrl Pts',(62.7849844380081,37.0269162967187,-1.3861872839477));
#721=CARTESIAN_POINT('Ctrl Pts',(62.7454268395777,37.0269477155733,-1.32298502733114));
#722=CARTESIAN_POINT('Ctrl Pts',(62.705870163659,37.0269791336952,-1.25978424463686));
#723=CARTESIAN_POINT('Ctrl Pts',(62.66277576336,37.027010551817,-1.19879791399943));
#724=CARTESIAN_POINT('Ctrl Pts',(62.6164126443454,37.0270419699389,-1.14040672683786));
#725=CARTESIAN_POINT('Ctrl Pts',(62.5697899526547,37.027073563961,-1.08168862558962));
#726=CARTESIAN_POINT('Ctrl Pts',(62.5198620465759,37.0271051579832,-1.02559514891099));
#727=CARTESIAN_POINT('Ctrl Pts',(62.4669440811085,37.0271367520054,-0.972480370125112));
#728=CARTESIAN_POINT('Ctrl Pts',(62.4143132538752,37.0271681745951,-0.919653797502365));
#729=CARTESIAN_POINT('Ctrl Pts',(62.3587250382818,37.0271995971849,-0.869773929292039));
#730=CARTESIAN_POINT('Ctrl Pts',(62.3005265279216,37.0272310197747,-0.82315221608691));
#731=CARTESIAN_POINT('Ctrl Pts',(62.2423317376906,37.0272624403559,-0.776533483006061));
#732=CARTESIAN_POINT('Ctrl Pts',(62.1815272901609,37.0272938609372,-0.733172731047247));
#733=CARTESIAN_POINT('Ctrl Pts',(62.118492800706,37.0273252815184,-0.693340670803574));
#734=CARTESIAN_POINT('Ctrl Pts',(62.0554617238266,37.0273567003985,-0.653510766996995));
#735=CARTESIAN_POINT('Ctrl Pts',(61.9902011752922,37.0273881192787,-0.617209380067955));
#736=CARTESIAN_POINT('Ctrl Pts',(61.9231185468511,37.0274195381589,-0.584663122967397));
#737=CARTESIAN_POINT('Ctrl Pts',(61.8553843998639,37.0274512621848,-0.551800770767395));
#738=CARTESIAN_POINT('Ctrl Pts',(61.7857929324302,37.0274829862108,-0.522767096708291));
#739=CARTESIAN_POINT('Ctrl Pts',(61.7147870355125,37.0275147102368,-0.497746875624045));
#740=CARTESIAN_POINT('Ctrl Pts',(61.6444602394199,37.027546130854,-0.472965948084761));
#741=CARTESIAN_POINT('Ctrl Pts',(61.5727463396618,37.0275775514712,-0.452122122973661));
#742=CARTESIAN_POINT('Ctrl Pts',(61.5000930627151,37.0276089720884,-0.435345533116009));
#743=CARTESIAN_POINT('Ctrl Pts',(61.4263874365272,37.0276408478188,-0.418325942084187));
#744=CARTESIAN_POINT('Ctrl Pts',(61.3517153922965,37.0276727235491,-0.405492482552878));
#745=CARTESIAN_POINT('Ctrl Pts',(61.2765567017053,37.0277045992795,-0.396927610152323));
#746=CARTESIAN_POINT('Ctrl Pts',(61.201398011114,37.0277364750099,-0.388362737751768));
#747=CARTESIAN_POINT('Ctrl Pts',(61.1257530891932,37.0277683507402,-0.384066499777739));
#748=CARTESIAN_POINT('Ctrl Pts',(61.0501079584138,37.0278002264706,-0.384066499777739));
#749=CARTESIAN_POINT('',(63.0501079584138,40.75,-2.38406649977774));
#750=CARTESIAN_POINT('Origin',(61.0501079584138,40.7751460200685,-2.3890290690903));
#751=CARTESIAN_POINT('',(63.0501079584138,39.0251514144981,-2.38671238866235));
#752=CARTESIAN_POINT('',(63.0501079584138,40.7751460200685,-2.3890290690903));
#753=CARTESIAN_POINT('Origin',(61.0501079584138,39.0251514144981,-2.38671238866235));
#754=CARTESIAN_POINT('Origin',(63.0501079584138,44.5,-21.3840572991476));
#755=CARTESIAN_POINT('',(63.0501079584138,38.7427652733119,-7.94659040734174));
#756=CARTESIAN_POINT('Origin',(63.0501079584138,39.,-5.96320181823831));
#757=CARTESIAN_POINT('',(63.0501079584138,38.7427652733119,-34.8215057896932));
#758=CARTESIAN_POINT('Origin',(63.0501079584138,37.,-21.3840480985175));
#759=CARTESIAN_POINT('',(63.0501079584138,37.,-36.8048943787967));
#760=CARTESIAN_POINT('Origin',(63.0501079584138,39.,-36.8048943787967));
#761=CARTESIAN_POINT('',(63.0501079584138,37.,-40.3840480985175));
#762=CARTESIAN_POINT('',(63.0501079584138,37.,-42.3840480985175));
#763=CARTESIAN_POINT('',(63.0501079584138,39.0000005811453,-40.3840480985175));
#764=CARTESIAN_POINT('',(63.0501079584138,41.7500002905726,-40.3840480985175));
#765=CARTESIAN_POINT('',(63.0501079584138,39.0000005811453,-37.9067595996857));
#766=CARTESIAN_POINT('',(63.0501079584138,39.0000005811453,-42.3840480985175));
#767=CARTESIAN_POINT('',(63.0501079584138,40.5294122774811,-35.9629111877836));
#768=CARTESIAN_POINT('Origin',(63.0501079584138,41.0000005811453,-37.9067595996857));
#769=CARTESIAN_POINT('',(63.0501079584138,40.5487089798588,-6.80987009163596));
#770=CARTESIAN_POINT('Origin',(63.0501079584138,37.,-21.3840480985175));
#771=CARTESIAN_POINT('',(63.0501079584138,39.0218719296743,-4.86399871676885));
#772=CARTESIAN_POINT('Origin',(63.0501079584138,41.0218701771733,-4.86664635738509));
#773=CARTESIAN_POINT('',(63.0501079584138,39.0277990551144,-0.386714141163322));
#774=CARTESIAN_POINT('Origin',(61.0501079584138,41.7500002905726,-40.3840480985175));
#775=CARTESIAN_POINT('',(61.0501079584138,39.0000005811453,-42.3840480985175));
#776=CARTESIAN_POINT('Origin',(61.0501079584138,39.0000005811453,-40.3840480985175));
#777=CARTESIAN_POINT('',(61.0501079584138,37.,-42.3840480985175));
#778=CARTESIAN_POINT('Origin',(61.0501079584138,37.,-40.3840480985175));
#779=CARTESIAN_POINT('',(61.0501079584138,41.7500002905726,-42.3840480985175));
#780=CARTESIAN_POINT('Origin',(63.0501079584138,39.0000005811453,-42.3840480985175));
#781=CARTESIAN_POINT('',(55.0501079584138,37.,-42.3840480985175));
#782=CARTESIAN_POINT('',(63.0501079584138,37.,-42.3840480985175));
#783=CARTESIAN_POINT('',(55.0501079584138,39.0000005811453,-42.3840480985175));
#784=CARTESIAN_POINT('',(55.0501079584138,41.7500002905726,-42.3840480985175));
#785=CARTESIAN_POINT('',(63.0501079584138,39.0000005811453,-42.3840480985175));
#786=CARTESIAN_POINT('Origin',(63.0501079584138,37.,-42.3840480985175));
#787=CARTESIAN_POINT('',(53.0501079584138,37.,-36.8048943787967));
#788=CARTESIAN_POINT('',(63.0501079584138,37.,-36.8048943787967));
#789=CARTESIAN_POINT('',(53.0501079584138,37.,-40.3840480985175));
#790=CARTESIAN_POINT('',(53.0501079584138,37.,-42.3840480985175));
#791=CARTESIAN_POINT('Origin',(55.0501079584138,37.,-40.3840480985175));
#792=CARTESIAN_POINT('',(59.5000008642673,37.,-40.0000005960464));
#793=CARTESIAN_POINT('Origin',(58.0000008642673,37.,-40.0000005960464));
#794=CARTESIAN_POINT('Origin',(55.0501079584138,41.7500002905726,-40.3840480985175));
#795=CARTESIAN_POINT('',(53.0501079584138,39.0000005811453,-40.3840480985175));
#796=CARTESIAN_POINT('',(53.0501079584138,41.7500002905726,-40.3840480985175));
#797=CARTESIAN_POINT('Origin',(55.0501079584138,39.0000005811453,-40.3840480985175));
#798=CARTESIAN_POINT('Origin',(53.0501079584138,44.5,-21.3840572991476));
#799=CARTESIAN_POINT('',(53.0501079584138,39.0218719296743,-4.86399871676885));
#800=CARTESIAN_POINT('',(53.0501079584138,39.0277990551144,-0.386714141163322));
#801=CARTESIAN_POINT('',(53.0501079584138,40.5487089798588,-6.80987009163596));
#802=CARTESIAN_POINT('Origin',(53.0501079584138,41.0218701771733,-4.86664635738509));
#803=CARTESIAN_POINT('',(53.0501079584138,40.5294122774811,-35.9629111877836));
#804=CARTESIAN_POINT('Origin',(53.0501079584138,37.,-21.3840480985175));
#805=CARTESIAN_POINT('',(53.0501079584138,39.0000005811453,-37.9067595996857));
#806=CARTESIAN_POINT('Origin',(53.0501079584138,41.0000005811453,-37.9067595996857));
#807=CARTESIAN_POINT('',(53.0501079584138,39.0000005811453,-42.3840480985175));
#808=CARTESIAN_POINT('',(53.0501079584138,38.7427652733119,-34.8215057896932));
#809=CARTESIAN_POINT('Origin',(53.0501079584138,39.,-36.8048943787967));
#810=CARTESIAN_POINT('',(53.0501079584138,38.7427652733119,-7.94659040734174));
#811=CARTESIAN_POINT('Origin',(53.0501079584138,37.,-21.3840480985175));
#812=CARTESIAN_POINT('Origin',(53.0501079584138,39.,-5.96320181823831));
#813=CARTESIAN_POINT('Origin',(58.0000008642673,37.,-40.0000005960464));
#814=CARTESIAN_POINT('',(59.5000008642673,39.0000005811453,-40.0000005960464));
#815=CARTESIAN_POINT('',(59.5000008642673,37.,-40.0000005960464));
#816=CARTESIAN_POINT('Origin',(58.0000008642673,39.0000005811453,-40.0000005960464));
#817=CARTESIAN_POINT('Origin',(58.0000008642673,36.9999999999999,-3.00000004470343));
#818=CARTESIAN_POINT('',(59.5000008642673,39.0243395311329,-3.00000004470343));
#819=CARTESIAN_POINT('',(59.5000008642673,36.9999999999999,-3.00000004470343));
#820=CARTESIAN_POINT('Origin',(58.0000008642673,39.0243395311329,-3.00000004470343));
#821=CARTESIAN_POINT('Origin',(63.0501079584138,39.,-36.8048943787967));
#822=CARTESIAN_POINT('',(63.0501079584138,38.7427652733119,-34.8215057896932));
#823=CARTESIAN_POINT('Origin',(63.0501079584138,37.,-21.3840480985175));
#824=CARTESIAN_POINT('',(63.0501079584138,38.7427652733119,-7.94659040734174));
#825=CARTESIAN_POINT('Origin',(63.0501079584138,39.,-5.96320181823831));
#826=CARTESIAN_POINT('Origin',(63.0501079584138,41.0218701771733,-4.86664635738509));
#827=CARTESIAN_POINT('',(63.0501079584138,40.5487089798588,-6.80987009163596));
#828=CARTESIAN_POINT('',(63.0501079584138,39.0218719296743,-4.86399871676885));
#829=CARTESIAN_POINT('Origin',(63.0501079584138,37.,-21.3840480985175));
#830=CARTESIAN_POINT('',(63.0501079584138,40.5294122774811,-35.9629111877836));
#831=CARTESIAN_POINT('Origin',(63.0501079584138,41.0000005811453,-37.9067595996857));
#832=CARTESIAN_POINT('',(63.0501079584138,39.0000005811453,-37.9067595996857));
#833=CARTESIAN_POINT('Origin',(63.0501079584138,39.0000005811453,-36.2501167676519));
#834=CARTESIAN_POINT('Origin',(63.0501079584138,39.0277990551144,-0.386714141163322));
#835=UNCERTAINTY_MEASURE_WITH_UNIT(LENGTH_MEASURE(0.01),#839,
'DISTANCE_ACCURACY_VALUE',
'Maximum model space distance between geometric entities at asserted c
onnectivities');
#836=UNCERTAINTY_MEASURE_WITH_UNIT(LENGTH_MEASURE(0.01),#839,
'DISTANCE_ACCURACY_VALUE',
'Maximum model space distance between geometric entities at asserted c
onnectivities');
#837=(
GEOMETRIC_REPRESENTATION_CONTEXT(3)
GLOBAL_UNCERTAINTY_ASSIGNED_CONTEXT((#835))
GLOBAL_UNIT_ASSIGNED_CONTEXT((#839,#841,#842))
REPRESENTATION_CONTEXT('','3D')
);
#838=(
GEOMETRIC_REPRESENTATION_CONTEXT(3)
GLOBAL_UNCERTAINTY_ASSIGNED_CONTEXT((#836))
GLOBAL_UNIT_ASSIGNED_CONTEXT((#839,#841,#842))
REPRESENTATION_CONTEXT('','3D')
);
#839=(
LENGTH_UNIT()
NAMED_UNIT(*)
SI_UNIT(.MILLI.,.METRE.)
);
#840=(
LENGTH_UNIT()
NAMED_UNIT(*)
SI_UNIT($,.METRE.)
);
#841=(
NAMED_UNIT(*)
PLANE_ANGLE_UNIT()
SI_UNIT($,.RADIAN.)
);
#842=(
NAMED_UNIT(*)
SI_UNIT($,.STERADIAN.)
SOLID_ANGLE_UNIT()
);
#843=SHAPE_DEFINITION_REPRESENTATION(#844,#845);
#844=PRODUCT_DEFINITION_SHAPE('',$,#847);
#845=SHAPE_REPRESENTATION('',(#447),#837);
#846=PRODUCT_DEFINITION_CONTEXT('part definition',#851,'design');
#847=PRODUCT_DEFINITION('2 \X2\044D044204300436\X0\ \X2\0434043B044F\X0\ 
\X2\043C043E0442043E04400430\X0\','2 \X2\044D044204300436\X0\ \X2\0434043B044F\X0\ 
\X2\043C043E0442043E04400430\X0\ v24',#848,#846);
#848=PRODUCT_DEFINITION_FORMATION('',$,#853);
#849=PRODUCT_RELATED_PRODUCT_CATEGORY(
'2 \X2\044D044204300436\X0\ \X2\0434043B044F\X0\ \X2\043C043E0442043E04400430\X0\ 
v24','2 \X2\044D044204300436\X0\ \X2\0434043B044F\X0\ \X2\043C043E0442043E04400430\X0\ 
v24',(#853));
#850=APPLICATION_PROTOCOL_DEFINITION('international standard',
'automotive_design',2009,#851);
#851=APPLICATION_CONTEXT(
'Core Data for Automotive Mechanical Design Process');
#852=PRODUCT_CONTEXT('part definition',#851,'mechanical');
#853=PRODUCT('2 \X2\044D044204300436\X0\ \X2\0434043B044F\X0\ \X2\043C043E0442043E04400430\X0\',
'2 \X2\044D044204300436\X0\ \X2\0434043B044F\X0\ \X2\043C043E0442043E04400430\X0\ 
v24',$,(#852));
#854=PRESENTATION_STYLE_ASSIGNMENT((#855));
#855=SURFACE_STYLE_USAGE(.BOTH.,#856);
#856=SURFACE_SIDE_STYLE('',(#857));
#857=SURFACE_STYLE_FILL_AREA(#858);
#858=FILL_AREA_STYLE('Steel - Satin',(#859));
#859=FILL_AREA_STYLE_COLOUR('Steel - Satin',#860);
#860=COLOUR_RGB('Steel - Satin',0.627450980392157,0.627450980392157,0.627450980392157);
ENDSEC;
END-ISO-10303-21;
