ISO-10303-21;
HEADER;
/* Generated by software containing ST-Developer
 * from STEP Tools, Inc. (www.steptools.com) 
 */

FILE_DESCRIPTION(
/* description */ (''),
/* implementation_level */ '2;1');

FILE_NAME(
/* name */ '',
/* time_stamp */ '2025-02-22T19:26:02+10:00',
/* author */ (''),
/* organization */ (''),
/* preprocessor_version */ 'ST-DEVELOPER v20',
/* originating_system */ 'Autodesk Translation Framework v13.14.0.145',

/* authorisation */ '');

FILE_SCHEMA (('AUTOMOTIVE_DESIGN { 1 0 10303 214 3 1 1 }'));
ENDSEC;

DATA;
#10=MECHANICAL_DESIGN_GEOMETRIC_PRESENTATION_REPRESENTATION('',(#13),#677);
#11=SHAPE_REPRESENTATION_RELATIONSHIP('SRR','None',#684,#12);
#12=ADVANCED_BREP_SHAPE_REPRESENTATION('',(#14),#676);
#13=STYLED_ITEM('',(#693),#14);
#14=MANIFOLD_SOLID_BREP(
'\X2\041F043504400432043E0435\X0\ \X2\043A04400435043F043B0435043D04380435\X0\ 
\X2\0434043204380433043004420435043B044F\X0\',#385);
#15=FACE_BOUND('',#50,.T.);
#16=FACE_BOUND('',#55,.T.);
#17=FACE_BOUND('',#68,.T.);
#18=FACE_BOUND('',#70,.T.);
#19=PLANE('',#402);
#20=PLANE('',#409);
#21=PLANE('',#414);
#22=PLANE('',#424);
#23=PLANE('',#427);
#24=PLANE('',#440);
#25=PLANE('',#441);
#26=PLANE('',#442);
#27=FACE_OUTER_BOUND('',#47,.T.);
#28=FACE_OUTER_BOUND('',#48,.T.);
#29=FACE_OUTER_BOUND('',#49,.T.);
#30=FACE_OUTER_BOUND('',#51,.T.);
#31=FACE_OUTER_BOUND('',#52,.T.);
#32=FACE_OUTER_BOUND('',#53,.T.);
#33=FACE_OUTER_BOUND('',#54,.T.);
#34=FACE_OUTER_BOUND('',#56,.T.);
#35=FACE_OUTER_BOUND('',#57,.T.);
#36=FACE_OUTER_BOUND('',#58,.T.);
#37=FACE_OUTER_BOUND('',#59,.T.);
#38=FACE_OUTER_BOUND('',#60,.T.);
#39=FACE_OUTER_BOUND('',#61,.T.);
#40=FACE_OUTER_BOUND('',#62,.T.);
#41=FACE_OUTER_BOUND('',#63,.T.);
#42=FACE_OUTER_BOUND('',#64,.T.);
#43=FACE_OUTER_BOUND('',#65,.T.);
#44=FACE_OUTER_BOUND('',#66,.T.);
#45=FACE_OUTER_BOUND('',#67,.T.);
#46=FACE_OUTER_BOUND('',#69,.T.);
#47=EDGE_LOOP('',(#245,#246,#247,#248));
#48=EDGE_LOOP('',(#249,#250,#251,#252,#253,#254,#255,#256,#257,#258,#259,
#260));
#49=EDGE_LOOP('',(#261,#262,#263,#264,#265,#266));
#50=EDGE_LOOP('',(#267));
#51=EDGE_LOOP('',(#268,#269,#270,#271));
#52=EDGE_LOOP('',(#272,#273,#274,#275,#276,#277,#278,#279,#280,#281,#282,
#283));
#53=EDGE_LOOP('',(#284,#285,#286,#287));
#54=EDGE_LOOP('',(#288,#289,#290,#291,#292,#293));
#55=EDGE_LOOP('',(#294));
#56=EDGE_LOOP('',(#295,#296,#297,#298));
#57=EDGE_LOOP('',(#299,#300,#301,#302));
#58=EDGE_LOOP('',(#303,#304,#305,#306));
#59=EDGE_LOOP('',(#307,#308,#309,#310));
#60=EDGE_LOOP('',(#311,#312,#313,#314));
#61=EDGE_LOOP('',(#315,#316,#317,#318));
#62=EDGE_LOOP('',(#319,#320,#321,#322));
#63=EDGE_LOOP('',(#323,#324,#325,#326));
#64=EDGE_LOOP('',(#327,#328,#329,#330));
#65=EDGE_LOOP('',(#331,#332,#333,#334));
#66=EDGE_LOOP('',(#335,#336,#337,#338));
#67=EDGE_LOOP('',(#339,#340,#341,#342,#343,#344));
#68=EDGE_LOOP('',(#345));
#69=EDGE_LOOP('',(#346,#347,#348,#349,#350,#351));
#70=EDGE_LOOP('',(#352));
#71=LINE('',#569,#101);
#72=LINE('',#572,#102);
#73=LINE('',#575,#103);
#74=LINE('',#583,#104);
#75=LINE('',#585,#105);
#76=LINE('',#587,#106);
#77=LINE('',#594,#107);
#78=LINE('',#597,#108);
#79=LINE('',#601,#109);
#80=LINE('',#602,#110);
#81=LINE('',#607,#111);
#82=LINE('',#610,#112);
#83=LINE('',#613,#113);
#84=LINE('',#621,#114);
#85=LINE('',#623,#115);
#86=LINE('',#625,#116);
#87=LINE('',#636,#117);
#88=LINE('',#639,#118);
#89=LINE('',#641,#119);
#90=LINE('',#646,#120);
#91=LINE('',#647,#121);
#92=LINE('',#653,#122);
#93=LINE('',#657,#123);
#94=LINE('',#659,#124);
#95=LINE('',#661,#125);
#96=LINE('',#664,#126);
#97=LINE('',#665,#127);
#98=LINE('',#667,#128);
#99=LINE('',#669,#129);
#100=LINE('',#671,#130);
#101=VECTOR('',#449,10.);
#102=VECTOR('',#452,10.);
#103=VECTOR('',#455,10.);
#104=VECTOR('',#462,10.);
#105=VECTOR('',#463,10.);
#106=VECTOR('',#464,10.);
#107=VECTOR('',#471,10.);
#108=VECTOR('',#474,10.);
#109=VECTOR('',#477,10.);
#110=VECTOR('',#478,10.);
#111=VECTOR('',#483,10.);
#112=VECTOR('',#486,10.);
#113=VECTOR('',#489,10.);
#114=VECTOR('',#496,10.);
#115=VECTOR('',#497,10.);
#116=VECTOR('',#498,10.);
#117=VECTOR('',#511,10.);
#118=VECTOR('',#514,10.);
#119=VECTOR('',#517,10.);
#120=VECTOR('',#522,10.);
#121=VECTOR('',#523,10.);
#122=VECTOR('',#532,1.5);
#123=VECTOR('',#537,1.5);
#124=VECTOR('',#540,10.);
#125=VECTOR('',#543,10.);
#126=VECTOR('',#548,10.);
#127=VECTOR('',#549,10.);
#128=VECTOR('',#552,10.);
#129=VECTOR('',#555,10.);
#130=VECTOR('',#558,10.);
#131=CIRCLE('',#400,2.);
#132=CIRCLE('',#401,2.);
#133=CIRCLE('',#403,2.);
#134=CIRCLE('',#404,15.);
#135=CIRCLE('',#405,2.);
#136=CIRCLE('',#406,2.);
#137=CIRCLE('',#407,12.05);
#138=CIRCLE('',#408,2.);
#139=CIRCLE('',#410,2.);
#140=CIRCLE('',#411,1.5);
#141=CIRCLE('',#413,2.);
#142=CIRCLE('',#415,2.);
#143=CIRCLE('',#416,12.05);
#144=CIRCLE('',#417,2.);
#145=CIRCLE('',#418,2.);
#146=CIRCLE('',#419,15.);
#147=CIRCLE('',#420,2.);
#148=CIRCLE('',#422,2.);
#149=CIRCLE('',#423,2.);
#150=CIRCLE('',#425,2.);
#151=CIRCLE('',#426,1.5);
#152=CIRCLE('',#429,2.);
#153=CIRCLE('',#431,1.5);
#154=CIRCLE('',#433,1.5);
#155=VERTEX_POINT('',#565);
#156=VERTEX_POINT('',#566);
#157=VERTEX_POINT('',#568);
#158=VERTEX_POINT('',#570);
#159=VERTEX_POINT('',#574);
#160=VERTEX_POINT('',#576);
#161=VERTEX_POINT('',#578);
#162=VERTEX_POINT('',#580);
#163=VERTEX_POINT('',#582);
#164=VERTEX_POINT('',#584);
#165=VERTEX_POINT('',#586);
#166=VERTEX_POINT('',#588);
#167=VERTEX_POINT('',#590);
#168=VERTEX_POINT('',#592);
#169=VERTEX_POINT('',#596);
#170=VERTEX_POINT('',#598);
#171=VERTEX_POINT('',#600);
#172=VERTEX_POINT('',#603);
#173=VERTEX_POINT('',#606);
#174=VERTEX_POINT('',#608);
#175=VERTEX_POINT('',#612);
#176=VERTEX_POINT('',#614);
#177=VERTEX_POINT('',#616);
#178=VERTEX_POINT('',#618);
#179=VERTEX_POINT('',#620);
#180=VERTEX_POINT('',#622);
#181=VERTEX_POINT('',#624);
#182=VERTEX_POINT('',#626);
#183=VERTEX_POINT('',#628);
#184=VERTEX_POINT('',#632);
#185=VERTEX_POINT('',#634);
#186=VERTEX_POINT('',#638);
#187=VERTEX_POINT('',#642);
#188=VERTEX_POINT('',#645);
#189=VERTEX_POINT('',#651);
#190=VERTEX_POINT('',#655);
#191=EDGE_CURVE('',#155,#156,#131,.T.);
#192=EDGE_CURVE('',#156,#157,#71,.T.);
#193=EDGE_CURVE('',#157,#158,#132,.T.);
#194=EDGE_CURVE('',#158,#155,#72,.T.);
#195=EDGE_CURVE('',#156,#159,#73,.T.);
#196=EDGE_CURVE('',#160,#159,#133,.T.);
#197=EDGE_CURVE('',#160,#161,#134,.T.);
#198=EDGE_CURVE('',#162,#161,#135,.T.);
#199=EDGE_CURVE('',#162,#163,#74,.T.);
#200=EDGE_CURVE('',#164,#163,#75,.T.);
#201=EDGE_CURVE('',#164,#165,#76,.T.);
#202=EDGE_CURVE('',#166,#165,#136,.T.);
#203=EDGE_CURVE('',#166,#167,#137,.T.);
#204=EDGE_CURVE('',#168,#167,#138,.T.);
#205=EDGE_CURVE('',#168,#157,#77,.T.);
#206=EDGE_CURVE('',#169,#155,#78,.T.);
#207=EDGE_CURVE('',#170,#169,#139,.T.);
#208=EDGE_CURVE('',#170,#171,#79,.T.);
#209=EDGE_CURVE('',#159,#171,#80,.T.);
#210=EDGE_CURVE('',#172,#172,#140,.T.);
#211=EDGE_CURVE('',#169,#173,#81,.T.);
#212=EDGE_CURVE('',#173,#174,#141,.T.);
#213=EDGE_CURVE('',#174,#170,#82,.T.);
#214=EDGE_CURVE('',#174,#175,#83,.T.);
#215=EDGE_CURVE('',#176,#175,#142,.T.);
#216=EDGE_CURVE('',#177,#176,#143,.T.);
#217=EDGE_CURVE('',#178,#177,#144,.T.);
#218=EDGE_CURVE('',#178,#179,#84,.T.);
#219=EDGE_CURVE('',#180,#179,#85,.T.);
#220=EDGE_CURVE('',#180,#181,#86,.T.);
#221=EDGE_CURVE('',#182,#181,#145,.T.);
#222=EDGE_CURVE('',#182,#183,#146,.T.);
#223=EDGE_CURVE('',#171,#183,#147,.T.);
#224=EDGE_CURVE('',#184,#180,#148,.T.);
#225=EDGE_CURVE('',#179,#185,#149,.T.);
#226=EDGE_CURVE('',#185,#184,#87,.T.);
#227=EDGE_CURVE('',#184,#186,#88,.T.);
#228=EDGE_CURVE('',#163,#186,#150,.T.);
#229=EDGE_CURVE('',#181,#162,#89,.T.);
#230=EDGE_CURVE('',#187,#187,#151,.T.);
#231=EDGE_CURVE('',#185,#188,#90,.T.);
#232=EDGE_CURVE('',#186,#188,#91,.T.);
#233=EDGE_CURVE('',#188,#164,#152,.T.);
#234=EDGE_CURVE('',#189,#189,#153,.T.);
#235=EDGE_CURVE('',#189,#172,#92,.T.);
#236=EDGE_CURVE('',#190,#190,#154,.T.);
#237=EDGE_CURVE('',#190,#187,#93,.T.);
#238=EDGE_CURVE('',#183,#160,#94,.T.);
#239=EDGE_CURVE('',#161,#182,#95,.T.);
#240=EDGE_CURVE('',#165,#178,#96,.T.);
#241=EDGE_CURVE('',#177,#166,#97,.T.);
#242=EDGE_CURVE('',#167,#176,#98,.T.);
#243=EDGE_CURVE('',#175,#168,#99,.T.);
#244=EDGE_CURVE('',#173,#158,#100,.T.);
#245=ORIENTED_EDGE('',*,*,#191,.T.);
#246=ORIENTED_EDGE('',*,*,#192,.T.);
#247=ORIENTED_EDGE('',*,*,#193,.T.);
#248=ORIENTED_EDGE('',*,*,#194,.T.);
#249=ORIENTED_EDGE('',*,*,#192,.F.);
#250=ORIENTED_EDGE('',*,*,#195,.T.);
#251=ORIENTED_EDGE('',*,*,#196,.F.);
#252=ORIENTED_EDGE('',*,*,#197,.T.);
#253=ORIENTED_EDGE('',*,*,#198,.F.);
#254=ORIENTED_EDGE('',*,*,#199,.T.);
#255=ORIENTED_EDGE('',*,*,#200,.F.);
#256=ORIENTED_EDGE('',*,*,#201,.T.);
#257=ORIENTED_EDGE('',*,*,#202,.F.);
#258=ORIENTED_EDGE('',*,*,#203,.T.);
#259=ORIENTED_EDGE('',*,*,#204,.F.);
#260=ORIENTED_EDGE('',*,*,#205,.T.);
#261=ORIENTED_EDGE('',*,*,#191,.F.);
#262=ORIENTED_EDGE('',*,*,#206,.F.);
#263=ORIENTED_EDGE('',*,*,#207,.F.);
#264=ORIENTED_EDGE('',*,*,#208,.T.);
#265=ORIENTED_EDGE('',*,*,#209,.F.);
#266=ORIENTED_EDGE('',*,*,#195,.F.);
#267=ORIENTED_EDGE('',*,*,#210,.T.);
#268=ORIENTED_EDGE('',*,*,#207,.T.);
#269=ORIENTED_EDGE('',*,*,#211,.T.);
#270=ORIENTED_EDGE('',*,*,#212,.T.);
#271=ORIENTED_EDGE('',*,*,#213,.T.);
#272=ORIENTED_EDGE('',*,*,#213,.F.);
#273=ORIENTED_EDGE('',*,*,#214,.T.);
#274=ORIENTED_EDGE('',*,*,#215,.F.);
#275=ORIENTED_EDGE('',*,*,#216,.F.);
#276=ORIENTED_EDGE('',*,*,#217,.F.);
#277=ORIENTED_EDGE('',*,*,#218,.T.);
#278=ORIENTED_EDGE('',*,*,#219,.F.);
#279=ORIENTED_EDGE('',*,*,#220,.T.);
#280=ORIENTED_EDGE('',*,*,#221,.F.);
#281=ORIENTED_EDGE('',*,*,#222,.T.);
#282=ORIENTED_EDGE('',*,*,#223,.F.);
#283=ORIENTED_EDGE('',*,*,#208,.F.);
#284=ORIENTED_EDGE('',*,*,#224,.T.);
#285=ORIENTED_EDGE('',*,*,#219,.T.);
#286=ORIENTED_EDGE('',*,*,#225,.T.);
#287=ORIENTED_EDGE('',*,*,#226,.T.);
#288=ORIENTED_EDGE('',*,*,#224,.F.);
#289=ORIENTED_EDGE('',*,*,#227,.T.);
#290=ORIENTED_EDGE('',*,*,#228,.F.);
#291=ORIENTED_EDGE('',*,*,#199,.F.);
#292=ORIENTED_EDGE('',*,*,#229,.F.);
#293=ORIENTED_EDGE('',*,*,#220,.F.);
#294=ORIENTED_EDGE('',*,*,#230,.T.);
#295=ORIENTED_EDGE('',*,*,#226,.F.);
#296=ORIENTED_EDGE('',*,*,#231,.T.);
#297=ORIENTED_EDGE('',*,*,#232,.F.);
#298=ORIENTED_EDGE('',*,*,#227,.F.);
#299=ORIENTED_EDGE('',*,*,#233,.T.);
#300=ORIENTED_EDGE('',*,*,#200,.T.);
#301=ORIENTED_EDGE('',*,*,#228,.T.);
#302=ORIENTED_EDGE('',*,*,#232,.T.);
#303=ORIENTED_EDGE('',*,*,#234,.F.);
#304=ORIENTED_EDGE('',*,*,#235,.T.);
#305=ORIENTED_EDGE('',*,*,#210,.F.);
#306=ORIENTED_EDGE('',*,*,#235,.F.);
#307=ORIENTED_EDGE('',*,*,#236,.F.);
#308=ORIENTED_EDGE('',*,*,#237,.T.);
#309=ORIENTED_EDGE('',*,*,#230,.F.);
#310=ORIENTED_EDGE('',*,*,#237,.F.);
#311=ORIENTED_EDGE('',*,*,#223,.T.);
#312=ORIENTED_EDGE('',*,*,#238,.T.);
#313=ORIENTED_EDGE('',*,*,#196,.T.);
#314=ORIENTED_EDGE('',*,*,#209,.T.);
#315=ORIENTED_EDGE('',*,*,#238,.F.);
#316=ORIENTED_EDGE('',*,*,#222,.F.);
#317=ORIENTED_EDGE('',*,*,#239,.F.);
#318=ORIENTED_EDGE('',*,*,#197,.F.);
#319=ORIENTED_EDGE('',*,*,#221,.T.);
#320=ORIENTED_EDGE('',*,*,#229,.T.);
#321=ORIENTED_EDGE('',*,*,#198,.T.);
#322=ORIENTED_EDGE('',*,*,#239,.T.);
#323=ORIENTED_EDGE('',*,*,#202,.T.);
#324=ORIENTED_EDGE('',*,*,#240,.T.);
#325=ORIENTED_EDGE('',*,*,#217,.T.);
#326=ORIENTED_EDGE('',*,*,#241,.T.);
#327=ORIENTED_EDGE('',*,*,#241,.F.);
#328=ORIENTED_EDGE('',*,*,#216,.T.);
#329=ORIENTED_EDGE('',*,*,#242,.F.);
#330=ORIENTED_EDGE('',*,*,#203,.F.);
#331=ORIENTED_EDGE('',*,*,#204,.T.);
#332=ORIENTED_EDGE('',*,*,#242,.T.);
#333=ORIENTED_EDGE('',*,*,#215,.T.);
#334=ORIENTED_EDGE('',*,*,#243,.T.);
#335=ORIENTED_EDGE('',*,*,#194,.F.);
#336=ORIENTED_EDGE('',*,*,#244,.F.);
#337=ORIENTED_EDGE('',*,*,#211,.F.);
#338=ORIENTED_EDGE('',*,*,#206,.T.);
#339=ORIENTED_EDGE('',*,*,#193,.F.);
#340=ORIENTED_EDGE('',*,*,#205,.F.);
#341=ORIENTED_EDGE('',*,*,#243,.F.);
#342=ORIENTED_EDGE('',*,*,#214,.F.);
#343=ORIENTED_EDGE('',*,*,#212,.F.);
#344=ORIENTED_EDGE('',*,*,#244,.T.);
#345=ORIENTED_EDGE('',*,*,#234,.T.);
#346=ORIENTED_EDGE('',*,*,#225,.F.);
#347=ORIENTED_EDGE('',*,*,#218,.F.);
#348=ORIENTED_EDGE('',*,*,#240,.F.);
#349=ORIENTED_EDGE('',*,*,#201,.F.);
#350=ORIENTED_EDGE('',*,*,#233,.F.);
#351=ORIENTED_EDGE('',*,*,#231,.F.);
#352=ORIENTED_EDGE('',*,*,#236,.T.);
#353=CYLINDRICAL_SURFACE('',#399,2.);
#354=CYLINDRICAL_SURFACE('',#412,2.);
#355=CYLINDRICAL_SURFACE('',#421,2.);
#356=CYLINDRICAL_SURFACE('',#428,2.);
#357=CYLINDRICAL_SURFACE('',#430,1.5);
#358=CYLINDRICAL_SURFACE('',#432,1.5);
#359=CYLINDRICAL_SURFACE('',#434,2.);
#360=CYLINDRICAL_SURFACE('',#435,15.);
#361=CYLINDRICAL_SURFACE('',#436,2.);
#362=CYLINDRICAL_SURFACE('',#437,2.);
#363=CYLINDRICAL_SURFACE('',#438,12.05);
#364=CYLINDRICAL_SURFACE('',#439,2.);
#365=ADVANCED_FACE('',(#27),#353,.T.);
#366=ADVANCED_FACE('',(#28),#19,.F.);
#367=ADVANCED_FACE('',(#29,#15),#20,.T.);
#368=ADVANCED_FACE('',(#30),#354,.T.);
#369=ADVANCED_FACE('',(#31),#21,.T.);
#370=ADVANCED_FACE('',(#32),#355,.T.);
#371=ADVANCED_FACE('',(#33,#16),#22,.T.);
#372=ADVANCED_FACE('',(#34),#23,.T.);
#373=ADVANCED_FACE('',(#35),#356,.T.);
#374=ADVANCED_FACE('',(#36),#357,.F.);
#375=ADVANCED_FACE('',(#37),#358,.F.);
#376=ADVANCED_FACE('',(#38),#359,.F.);
#377=ADVANCED_FACE('',(#39),#360,.T.);
#378=ADVANCED_FACE('',(#40),#361,.F.);
#379=ADVANCED_FACE('',(#41),#362,.T.);
#380=ADVANCED_FACE('',(#42),#363,.F.);
#381=ADVANCED_FACE('',(#43),#364,.T.);
#382=ADVANCED_FACE('',(#44),#24,.T.);
#383=ADVANCED_FACE('',(#45,#17),#25,.T.);
#384=ADVANCED_FACE('',(#46,#18),#26,.T.);
#385=CLOSED_SHELL('',(#365,#366,#367,#368,#369,#370,#371,#372,#373,#374,
#375,#376,#377,#378,#379,#380,#381,#382,#383,#384));
#386=DERIVED_UNIT_ELEMENT(#388,1.);
#387=DERIVED_UNIT_ELEMENT(#679,-3.);
#388=(
MASS_UNIT()
NAMED_UNIT(*)
SI_UNIT(.KILO.,.GRAM.)
);
#389=DERIVED_UNIT((#386,#387));
#390=MEASURE_REPRESENTATION_ITEM('density measure',
POSITIVE_RATIO_MEASURE(7850.),#389);
#391=PROPERTY_DEFINITION_REPRESENTATION(#396,#393);
#392=PROPERTY_DEFINITION_REPRESENTATION(#397,#394);
#393=REPRESENTATION('material name',(#395),#676);
#394=REPRESENTATION('density',(#390),#676);
#395=DESCRIPTIVE_REPRESENTATION_ITEM('Steel','Steel');
#396=PROPERTY_DEFINITION('material property','material name',#686);
#397=PROPERTY_DEFINITION('material property','density of part',#686);
#398=AXIS2_PLACEMENT_3D('',#563,#443,#444);
#399=AXIS2_PLACEMENT_3D('',#564,#445,#446);
#400=AXIS2_PLACEMENT_3D('',#567,#447,#448);
#401=AXIS2_PLACEMENT_3D('',#571,#450,#451);
#402=AXIS2_PLACEMENT_3D('',#573,#453,#454);
#403=AXIS2_PLACEMENT_3D('',#577,#456,#457);
#404=AXIS2_PLACEMENT_3D('',#579,#458,#459);
#405=AXIS2_PLACEMENT_3D('',#581,#460,#461);
#406=AXIS2_PLACEMENT_3D('',#589,#465,#466);
#407=AXIS2_PLACEMENT_3D('',#591,#467,#468);
#408=AXIS2_PLACEMENT_3D('',#593,#469,#470);
#409=AXIS2_PLACEMENT_3D('',#595,#472,#473);
#410=AXIS2_PLACEMENT_3D('',#599,#475,#476);
#411=AXIS2_PLACEMENT_3D('',#604,#479,#480);
#412=AXIS2_PLACEMENT_3D('',#605,#481,#482);
#413=AXIS2_PLACEMENT_3D('',#609,#484,#485);
#414=AXIS2_PLACEMENT_3D('',#611,#487,#488);
#415=AXIS2_PLACEMENT_3D('',#615,#490,#491);
#416=AXIS2_PLACEMENT_3D('',#617,#492,#493);
#417=AXIS2_PLACEMENT_3D('',#619,#494,#495);
#418=AXIS2_PLACEMENT_3D('',#627,#499,#500);
#419=AXIS2_PLACEMENT_3D('',#629,#501,#502);
#420=AXIS2_PLACEMENT_3D('',#630,#503,#504);
#421=AXIS2_PLACEMENT_3D('',#631,#505,#506);
#422=AXIS2_PLACEMENT_3D('',#633,#507,#508);
#423=AXIS2_PLACEMENT_3D('',#635,#509,#510);
#424=AXIS2_PLACEMENT_3D('',#637,#512,#513);
#425=AXIS2_PLACEMENT_3D('',#640,#515,#516);
#426=AXIS2_PLACEMENT_3D('',#643,#518,#519);
#427=AXIS2_PLACEMENT_3D('',#644,#520,#521);
#428=AXIS2_PLACEMENT_3D('',#648,#524,#525);
#429=AXIS2_PLACEMENT_3D('',#649,#526,#527);
#430=AXIS2_PLACEMENT_3D('',#650,#528,#529);
#431=AXIS2_PLACEMENT_3D('',#652,#530,#531);
#432=AXIS2_PLACEMENT_3D('',#654,#533,#534);
#433=AXIS2_PLACEMENT_3D('',#656,#535,#536);
#434=AXIS2_PLACEMENT_3D('',#658,#538,#539);
#435=AXIS2_PLACEMENT_3D('',#660,#541,#542);
#436=AXIS2_PLACEMENT_3D('',#662,#544,#545);
#437=AXIS2_PLACEMENT_3D('',#663,#546,#547);
#438=AXIS2_PLACEMENT_3D('',#666,#550,#551);
#439=AXIS2_PLACEMENT_3D('',#668,#553,#554);
#440=AXIS2_PLACEMENT_3D('',#670,#556,#557);
#441=AXIS2_PLACEMENT_3D('',#672,#559,#560);
#442=AXIS2_PLACEMENT_3D('',#673,#561,#562);
#443=DIRECTION('axis',(0.,0.,1.));
#444=DIRECTION('refdir',(1.,0.,0.));
#445=DIRECTION('center_axis',(0.,1.,0.));
#446=DIRECTION('ref_axis',(0.707106781186545,0.,-0.70710678118655));
#447=DIRECTION('center_axis',(0.,-1.,0.));
#448=DIRECTION('ref_axis',(0.707106781186545,0.,-0.70710678118655));
#449=DIRECTION('',(0.,-1.,0.));
#450=DIRECTION('center_axis',(0.,1.,1.59055789874284E-15));
#451=DIRECTION('ref_axis',(0.707106781186545,0.,-0.70710678118655));
#452=DIRECTION('',(0.,1.,0.));
#453=DIRECTION('center_axis',(-1.,0.,0.));
#454=DIRECTION('ref_axis',(0.,0.,1.));
#455=DIRECTION('',(0.,0.,1.));
#456=DIRECTION('center_axis',(1.,0.,0.));
#457=DIRECTION('ref_axis',(0.,-0.785905258867784,0.61834692857971));
#458=DIRECTION('center_axis',(1.,0.,0.));
#459=DIRECTION('ref_axis',(0.,-5.32907051820075E-15,1.));
#460=DIRECTION('center_axis',(1.,0.,0.));
#461=DIRECTION('ref_axis',(0.,-0.785905258867784,-0.61834692857971));
#462=DIRECTION('',(0.,0.,1.));
#463=DIRECTION('',(0.,1.,0.));
#464=DIRECTION('',(0.,1.59055789874284E-15,-1.));
#465=DIRECTION('center_axis',(-1.,0.,0.));
#466=DIRECTION('ref_axis',(0.,-0.755760793653784,-0.654847785959304));
#467=DIRECTION('center_axis',(-1.,0.,0.));
#468=DIRECTION('ref_axis',(0.,-5.89662021377676E-15,1.));
#469=DIRECTION('center_axis',(-1.,0.,0.));
#470=DIRECTION('ref_axis',(0.,-0.755760793653786,0.654847785959302));
#471=DIRECTION('',(0.,1.59055789874284E-15,-1.));
#472=DIRECTION('center_axis',(0.,1.,0.));
#473=DIRECTION('ref_axis',(0.,0.,1.));
#474=DIRECTION('',(1.,0.,0.));
#475=DIRECTION('center_axis',(0.,-1.,0.));
#476=DIRECTION('ref_axis',(-0.707106781186545,0.,-0.70710678118655));
#477=DIRECTION('',(0.,0.,1.));
#478=DIRECTION('',(-1.,0.,0.));
#479=DIRECTION('center_axis',(0.,-1.,0.));
#480=DIRECTION('ref_axis',(-1.,0.,0.));
#481=DIRECTION('center_axis',(0.,1.,0.));
#482=DIRECTION('ref_axis',(-0.707106781186545,0.,-0.70710678118655));
#483=DIRECTION('',(0.,-1.,0.));
#484=DIRECTION('center_axis',(0.,1.,1.59055789874284E-15));
#485=DIRECTION('ref_axis',(-0.707106781186545,0.,-0.70710678118655));
#486=DIRECTION('',(0.,1.,0.));
#487=DIRECTION('center_axis',(-1.,0.,0.));
#488=DIRECTION('ref_axis',(0.,0.,1.));
#489=DIRECTION('',(0.,-1.59055789874284E-15,1.));
#490=DIRECTION('center_axis',(1.,0.,0.));
#491=DIRECTION('ref_axis',(0.,-0.755760793653786,0.654847785959302));
#492=DIRECTION('center_axis',(-1.,0.,0.));
#493=DIRECTION('ref_axis',(0.,-5.89662021377676E-15,1.));
#494=DIRECTION('center_axis',(1.,0.,0.));
#495=DIRECTION('ref_axis',(0.,-0.755760793653784,-0.654847785959304));
#496=DIRECTION('',(0.,-1.59055789874284E-15,1.));
#497=DIRECTION('',(0.,-1.,0.));
#498=DIRECTION('',(0.,0.,-1.));
#499=DIRECTION('center_axis',(-1.,0.,0.));
#500=DIRECTION('ref_axis',(0.,-0.785905258867784,-0.61834692857971));
#501=DIRECTION('center_axis',(-1.,0.,0.));
#502=DIRECTION('ref_axis',(0.,-5.32907051820075E-15,1.));
#503=DIRECTION('center_axis',(-1.,0.,0.));
#504=DIRECTION('ref_axis',(0.,-0.785905258867784,0.61834692857971));
#505=DIRECTION('center_axis',(0.,1.,0.));
#506=DIRECTION('ref_axis',(-0.707106781186548,0.,0.707106781186547));
#507=DIRECTION('center_axis',(0.,-1.,0.));
#508=DIRECTION('ref_axis',(-0.707106781186548,0.,0.707106781186547));
#509=DIRECTION('center_axis',(0.,1.,1.59055789874284E-15));
#510=DIRECTION('ref_axis',(-0.707106781186548,0.,0.707106781186547));
#511=DIRECTION('',(0.,1.,0.));
#512=DIRECTION('center_axis',(0.,1.,0.));
#513=DIRECTION('ref_axis',(0.,0.,1.));
#514=DIRECTION('',(1.,0.,0.));
#515=DIRECTION('center_axis',(0.,-1.,0.));
#516=DIRECTION('ref_axis',(0.707106781186547,0.,0.707106781186548));
#517=DIRECTION('',(1.,0.,0.));
#518=DIRECTION('center_axis',(0.,-1.,0.));
#519=DIRECTION('ref_axis',(-1.,0.,0.));
#520=DIRECTION('center_axis',(0.,0.,1.));
#521=DIRECTION('ref_axis',(0.,-1.,0.));
#522=DIRECTION('',(1.,0.,0.));
#523=DIRECTION('',(0.,-1.,0.));
#524=DIRECTION('center_axis',(0.,-1.,0.));
#525=DIRECTION('ref_axis',(0.707106781186547,0.,0.707106781186548));
#526=DIRECTION('center_axis',(0.,1.,1.59055789874284E-15));
#527=DIRECTION('ref_axis',(0.707106781186547,0.,0.707106781186548));
#528=DIRECTION('center_axis',(0.,1.,2.96059473233375E-15));
#529=DIRECTION('ref_axis',(-1.,0.,0.));
#530=DIRECTION('center_axis',(0.,1.,1.59055789874284E-15));
#531=DIRECTION('ref_axis',(-1.,0.,0.));
#532=DIRECTION('',(0.,1.,2.96059473233375E-15));
#533=DIRECTION('center_axis',(0.,1.,1.48029736616687E-15));
#534=DIRECTION('ref_axis',(-1.,0.,0.));
#535=DIRECTION('center_axis',(0.,1.,1.59055789874284E-15));
#536=DIRECTION('ref_axis',(-1.,0.,0.));
#537=DIRECTION('',(0.,1.,1.48029736616687E-15));
#538=DIRECTION('center_axis',(1.,0.,0.));
#539=DIRECTION('ref_axis',(0.,-0.785905258867784,0.61834692857971));
#540=DIRECTION('',(1.,0.,0.));
#541=DIRECTION('center_axis',(1.,0.,0.));
#542=DIRECTION('ref_axis',(0.,-5.32907051820075E-15,1.));
#543=DIRECTION('',(-1.,0.,0.));
#544=DIRECTION('center_axis',(1.,0.,0.));
#545=DIRECTION('ref_axis',(0.,-0.785905258867784,-0.61834692857971));
#546=DIRECTION('center_axis',(1.,0.,0.));
#547=DIRECTION('ref_axis',(0.,-0.755760793653784,-0.654847785959304));
#548=DIRECTION('',(-1.,0.,0.));
#549=DIRECTION('',(1.,0.,0.));
#550=DIRECTION('center_axis',(1.,0.,0.));
#551=DIRECTION('ref_axis',(0.,-5.89662021377676E-15,1.));
#552=DIRECTION('',(-1.,0.,0.));
#553=DIRECTION('center_axis',(1.,0.,0.));
#554=DIRECTION('ref_axis',(0.,-0.755760793653786,0.654847785959302));
#555=DIRECTION('',(1.,0.,0.));
#556=DIRECTION('center_axis',(0.,0.,-1.));
#557=DIRECTION('ref_axis',(0.,1.,0.));
#558=DIRECTION('',(1.,0.,0.));
#559=DIRECTION('center_axis',(0.,-1.,-1.59055789874284E-15));
#560=DIRECTION('ref_axis',(0.,1.59055789874284E-15,-1.));
#561=DIRECTION('center_axis',(0.,-1.,-1.59055789874284E-15));
#562=DIRECTION('ref_axis',(0.,1.59055789874284E-15,-1.));
#563=CARTESIAN_POINT('',(0.,0.,0.));
#564=CARTESIAN_POINT('Origin',(17.0501079584138,40.75,-40.3243048254684));
#565=CARTESIAN_POINT('',(17.0501079584138,39.0000005811453,-42.3243048254684));
#566=CARTESIAN_POINT('',(19.0501079584138,39.0000005811453,-40.3243048254684));
#567=CARTESIAN_POINT('Origin',(17.0501079584138,39.0000005811453,-40.3243048254684));
#568=CARTESIAN_POINT('',(19.0501079584138,37.,-40.3243048254684));
#569=CARTESIAN_POINT('',(19.0501079584138,40.75,-40.3243048254684));
#570=CARTESIAN_POINT('',(17.0501079584138,37.,-42.3243048254684));
#571=CARTESIAN_POINT('Origin',(17.0501079584138,37.,-40.3243048254684));
#572=CARTESIAN_POINT('',(17.0501079584138,40.75,-42.3243048254684));
#573=CARTESIAN_POINT('Origin',(19.0501079584138,44.5,-21.3840480985175));
#574=CARTESIAN_POINT('',(19.0501079584138,39.0000005811453,-37.9067595996857));
#575=CARTESIAN_POINT('',(19.0501079584138,39.0000005811453,-42.3243048254684));
#576=CARTESIAN_POINT('',(19.0501079584138,40.5294122774811,-35.9629111877836));
#577=CARTESIAN_POINT('Origin',(19.0501079584138,41.0000005811453,-37.9067595996857));
#578=CARTESIAN_POINT('',(19.0501079584138,40.5294122774811,-6.8051850092514));
#579=CARTESIAN_POINT('Origin',(19.0501079584138,37.,-21.3840480985175));
#580=CARTESIAN_POINT('',(19.0501079584138,39.0000005811453,-4.86133659734925));
#581=CARTESIAN_POINT('Origin',(19.0501079584138,41.0000005811453,-4.86133659734925));
#582=CARTESIAN_POINT('',(19.0501079584138,39.0000005811453,-2.44379137156657));
#583=CARTESIAN_POINT('',(19.0501079584138,39.0000005811453,-0.443791371566569));
#584=CARTESIAN_POINT('',(19.0501079584138,36.9999999999999,-2.44379137156657));
#585=CARTESIAN_POINT('',(19.0501079584138,41.7500002905726,-2.44379137156657));
#586=CARTESIAN_POINT('',(19.0501079584138,36.9999999999999,-7.47712536198084));
#587=CARTESIAN_POINT('',(19.0501079584138,37.,-42.3243048254684));
#588=CARTESIAN_POINT('',(19.0501079584138,38.7153024911031,-9.45675849173694));
#589=CARTESIAN_POINT('Origin',(19.0501079584138,38.9999999999999,-7.47712536198084));
#590=CARTESIAN_POINT('',(19.0501079584138,38.7153024911032,-33.311337705298));
#591=CARTESIAN_POINT('Origin',(19.0501079584138,37.,-21.3840480985175));
#592=CARTESIAN_POINT('',(19.0501079584138,37.,-35.2909708350542));
#593=CARTESIAN_POINT('Origin',(19.0501079584138,39.,-35.2909708350541));
#594=CARTESIAN_POINT('',(19.0501079584138,37.,-42.3243048254684));
#595=CARTESIAN_POINT('Origin',(13.0501079584138,39.0000005811453,-42.3243048254684));
#596=CARTESIAN_POINT('',(15.0501079584138,39.0000005811453,-42.3243048254684));
#597=CARTESIAN_POINT('',(13.0501079584138,39.0000005811453,-42.3243048254684));
#598=CARTESIAN_POINT('',(13.0501079584138,39.0000005811453,-40.3243048254684));
#599=CARTESIAN_POINT('Origin',(15.0501079584138,39.0000005811453,-40.3243048254684));
#600=CARTESIAN_POINT('',(13.0501079584138,39.0000005811453,-37.9067595996857));
#601=CARTESIAN_POINT('',(13.0501079584138,39.0000005811453,-42.3243048254684));
#602=CARTESIAN_POINT('',(13.0501079584138,39.0000005811453,-37.9067595996857));
#603=CARTESIAN_POINT('',(17.5000002384186,39.0000005811453,-40.0000005960464));
#604=CARTESIAN_POINT('Origin',(16.0000002384186,39.0000005811453,-40.0000005960464));
#605=CARTESIAN_POINT('Origin',(15.0501079584138,40.75,-40.3243048254684));
#606=CARTESIAN_POINT('',(15.0501079584138,37.,-42.3243048254684));
#607=CARTESIAN_POINT('',(15.0501079584138,40.75,-42.3243048254684));
#608=CARTESIAN_POINT('',(13.0501079584138,37.,-40.3243048254684));
#609=CARTESIAN_POINT('Origin',(15.0501079584138,37.,-40.3243048254684));
#610=CARTESIAN_POINT('',(13.0501079584138,40.75,-40.3243048254684));
#611=CARTESIAN_POINT('Origin',(13.0501079584138,44.5,-21.3840480985175));
#612=CARTESIAN_POINT('',(13.0501079584138,37.,-35.2909708350542));
#613=CARTESIAN_POINT('',(13.0501079584138,37.,-42.3243048254684));
#614=CARTESIAN_POINT('',(13.0501079584138,38.7153024911032,-33.311337705298));
#615=CARTESIAN_POINT('Origin',(13.0501079584138,39.,-35.2909708350541));
#616=CARTESIAN_POINT('',(13.0501079584138,38.7153024911031,-9.45675849173694));
#617=CARTESIAN_POINT('Origin',(13.0501079584138,37.,-21.3840480985175));
#618=CARTESIAN_POINT('',(13.0501079584138,36.9999999999999,-7.47712536198084));
#619=CARTESIAN_POINT('Origin',(13.0501079584138,38.9999999999999,-7.47712536198084));
#620=CARTESIAN_POINT('',(13.0501079584138,36.9999999999999,-2.44379137156657));
#621=CARTESIAN_POINT('',(13.0501079584138,37.,-42.3243048254684));
#622=CARTESIAN_POINT('',(13.0501079584138,39.0000005811453,-2.44379137156657));
#623=CARTESIAN_POINT('',(13.0501079584138,41.7500002905726,-2.44379137156657));
#624=CARTESIAN_POINT('',(13.0501079584138,39.0000005811453,-4.86133659734925));
#625=CARTESIAN_POINT('',(13.0501079584138,39.0000005811453,-0.443791371566569));
#626=CARTESIAN_POINT('',(13.0501079584138,40.5294122774811,-6.8051850092514));
#627=CARTESIAN_POINT('Origin',(13.0501079584138,41.0000005811453,-4.86133659734925));
#628=CARTESIAN_POINT('',(13.0501079584138,40.5294122774811,-35.9629111877836));
#629=CARTESIAN_POINT('Origin',(13.0501079584138,37.,-21.3840480985175));
#630=CARTESIAN_POINT('Origin',(13.0501079584138,41.0000005811453,-37.9067595996857));
#631=CARTESIAN_POINT('Origin',(15.0501079584138,41.7500002905726,-2.44379137156657));
#632=CARTESIAN_POINT('',(15.0501079584138,39.0000005811453,-0.443791371566569));
#633=CARTESIAN_POINT('Origin',(15.0501079584138,39.0000005811453,-2.44379137156657));
#634=CARTESIAN_POINT('',(15.0501079584138,37.,-0.443791371566569));
#635=CARTESIAN_POINT('Origin',(15.0501079584138,36.9999999999999,-2.44379137156657));
#636=CARTESIAN_POINT('',(15.0501079584138,41.7500002905726,-0.443791371566569));
#637=CARTESIAN_POINT('Origin',(13.0501079584138,39.0000005811453,-6.51797942938313));
#638=CARTESIAN_POINT('',(17.0501079584138,39.0000005811453,-0.443791371566569));
#639=CARTESIAN_POINT('',(13.0501079584138,39.0000005811453,-0.443791371566569));
#640=CARTESIAN_POINT('Origin',(17.0501079584138,39.0000005811453,-2.44379137156657));
#641=CARTESIAN_POINT('',(13.0501079584138,39.0000005811453,-4.86133659734925));
#642=CARTESIAN_POINT('',(17.5000002384186,39.0000005811453,-3.00000004470343));
#643=CARTESIAN_POINT('Origin',(16.0000002384186,39.0000005811453,-3.00000004470343));
#644=CARTESIAN_POINT('Origin',(13.0501079584138,39.0000005811453,-0.443791371566569));
#645=CARTESIAN_POINT('',(17.0501079584138,37.,-0.443791371566569));
#646=CARTESIAN_POINT('',(13.0501079584138,37.,-0.443791371566569));
#647=CARTESIAN_POINT('',(17.0501079584138,41.7500002905726,-0.443791371566569));
#648=CARTESIAN_POINT('Origin',(17.0501079584138,41.7500002905726,-2.44379137156657));
#649=CARTESIAN_POINT('Origin',(17.0501079584138,36.9999999999999,-2.44379137156657));
#650=CARTESIAN_POINT('Origin',(16.0000002384186,37.,-40.0000005960464));
#651=CARTESIAN_POINT('',(17.5000002384186,37.,-40.0000005960464));
#652=CARTESIAN_POINT('Origin',(16.0000002384186,37.,-40.0000005960464));
#653=CARTESIAN_POINT('',(17.5000002384186,37.,-40.0000005960464));
#654=CARTESIAN_POINT('Origin',(16.0000002384186,36.9999999999999,-3.00000004470343));
#655=CARTESIAN_POINT('',(17.5000002384186,36.9999999999999,-3.00000004470343));
#656=CARTESIAN_POINT('Origin',(16.0000002384186,36.9999999999999,-3.00000004470343));
#657=CARTESIAN_POINT('',(17.5000002384186,36.9999999999999,-3.00000004470343));
#658=CARTESIAN_POINT('Origin',(13.0501079584138,41.0000005811453,-37.9067595996857));
#659=CARTESIAN_POINT('',(13.0501079584138,40.5294122774811,-35.9629111877836));
#660=CARTESIAN_POINT('Origin',(13.0501079584138,37.,-21.3840480985175));
#661=CARTESIAN_POINT('',(13.0501079584138,40.5294122774811,-6.8051850092514));
#662=CARTESIAN_POINT('Origin',(13.0501079584138,41.0000005811453,-4.86133659734925));
#663=CARTESIAN_POINT('Origin',(13.0501079584138,38.9999999999999,-7.47712536198084));
#664=CARTESIAN_POINT('',(13.0501079584138,36.9999999999999,-7.47712536198084));
#665=CARTESIAN_POINT('',(13.0501079584138,38.7153024911031,-9.45675849173695));
#666=CARTESIAN_POINT('Origin',(13.0501079584138,37.,-21.3840480985175));
#667=CARTESIAN_POINT('',(13.0501079584138,38.7153024911032,-33.311337705298));
#668=CARTESIAN_POINT('Origin',(13.0501079584138,39.,-35.2909708350541));
#669=CARTESIAN_POINT('',(13.0501079584138,37.,-35.2909708350542));
#670=CARTESIAN_POINT('Origin',(13.0501079584138,37.,-42.3243048254684));
#671=CARTESIAN_POINT('',(13.0501079584138,37.,-42.3243048254684));
#672=CARTESIAN_POINT('Origin',(13.0501079584138,37.,-33.4340480985175));
#673=CARTESIAN_POINT('Origin',(13.0501079584138,36.9999999999999,-0.443791371566569));
#674=UNCERTAINTY_MEASURE_WITH_UNIT(LENGTH_MEASURE(0.01),#678,
'DISTANCE_ACCURACY_VALUE',
'Maximum model space distance between geometric entities at asserted c
onnectivities');
#675=UNCERTAINTY_MEASURE_WITH_UNIT(LENGTH_MEASURE(0.01),#678,
'DISTANCE_ACCURACY_VALUE',
'Maximum model space distance between geometric entities at asserted c
onnectivities');
#676=(
GEOMETRIC_REPRESENTATION_CONTEXT(3)
GLOBAL_UNCERTAINTY_ASSIGNED_CONTEXT((#674))
GLOBAL_UNIT_ASSIGNED_CONTEXT((#678,#680,#681))
REPRESENTATION_CONTEXT('','3D')
);
#677=(
GEOMETRIC_REPRESENTATION_CONTEXT(3)
GLOBAL_UNCERTAINTY_ASSIGNED_CONTEXT((#675))
GLOBAL_UNIT_ASSIGNED_CONTEXT((#678,#680,#681))
REPRESENTATION_CONTEXT('','3D')
);
#678=(
LENGTH_UNIT()
NAMED_UNIT(*)
SI_UNIT(.MILLI.,.METRE.)
);
#679=(
LENGTH_UNIT()
NAMED_UNIT(*)
SI_UNIT($,.METRE.)
);
#680=(
NAMED_UNIT(*)
PLANE_ANGLE_UNIT()
SI_UNIT($,.RADIAN.)
);
#681=(
NAMED_UNIT(*)
SI_UNIT($,.STERADIAN.)
SOLID_ANGLE_UNIT()
);
#682=SHAPE_DEFINITION_REPRESENTATION(#683,#684);
#683=PRODUCT_DEFINITION_SHAPE('',$,#686);
#684=SHAPE_REPRESENTATION('',(#398),#676);
#685=PRODUCT_DEFINITION_CONTEXT('part definition',#690,'design');
#686=PRODUCT_DEFINITION('2 \X2\044D044204300436\X0\ \X2\0434043B044F\X0\ 
\X2\043C043E0442043E04400430\X0\','2 \X2\044D044204300436\X0\ \X2\0434043B044F\X0\ 
\X2\043C043E0442043E04400430\X0\ v24',#687,#685);
#687=PRODUCT_DEFINITION_FORMATION('',$,#692);
#688=PRODUCT_RELATED_PRODUCT_CATEGORY(
'2 \X2\044D044204300436\X0\ \X2\0434043B044F\X0\ \X2\043C043E0442043E04400430\X0\ 
v24','2 \X2\044D044204300436\X0\ \X2\0434043B044F\X0\ \X2\043C043E0442043E04400430\X0\ 
v24',(#692));
#689=APPLICATION_PROTOCOL_DEFINITION('international standard',
'automotive_design',2009,#690);
#690=APPLICATION_CONTEXT(
'Core Data for Automotive Mechanical Design Process');
#691=PRODUCT_CONTEXT('part definition',#690,'mechanical');
#692=PRODUCT('2 \X2\044D044204300436\X0\ \X2\0434043B044F\X0\ \X2\043C043E0442043E04400430\X0\',
'2 \X2\044D044204300436\X0\ \X2\0434043B044F\X0\ \X2\043C043E0442043E04400430\X0\ 
v24',$,(#691));
#693=PRESENTATION_STYLE_ASSIGNMENT((#694));
#694=SURFACE_STYLE_USAGE(.BOTH.,#695);
#695=SURFACE_SIDE_STYLE('',(#696));
#696=SURFACE_STYLE_FILL_AREA(#697);
#697=FILL_AREA_STYLE('Steel - Satin',(#698));
#698=FILL_AREA_STYLE_COLOUR('Steel - Satin',#699);
#699=COLOUR_RGB('Steel - Satin',0.627450980392157,0.627450980392157,0.627450980392157);
ENDSEC;
END-ISO-10303-21;
